<?xml version="1.0" encoding="utf-8"?>
<!-- Generator: Adobe Illustrator 27.5.0, SVG Export Plug-In . SVG Version: 6.00 Build 0)  -->
<svg version="1.1" xmlns="http://www.w3.org/2000/svg" xmlns:xlink="http://www.w3.org/1999/xlink" x="0px" y="0px"
	 viewBox="0 0 500 500" style="enable-background:new 0 0 500 500;" xml:space="preserve">
<g id="BACKGROUND">
	<rect style="fill:transparent;" width="500" height="500"/>
</g>
<g id="OBJECTS">
	<g>
		<g>
			<path style="fill:#AABBFF;" d="M256.018,347.323c0-7.42-6.015-13.435-13.435-13.435c-7.42,0-13.434,6.015-13.434,13.435h-26.038
				v78.945h78.945v-78.945H256.018z"/>
			<path style="fill:#FFB127;" d="M247.352,245.122c0.186-7.417-5.676-13.581-13.093-13.768
				c-7.417-0.186-13.581,5.676-13.768,13.093l-26.03-0.654l-1.982,78.92l28.284,0.71c0.017-7.663,6.233-13.87,13.9-13.87
				c7.677,0,13.901,6.224,13.901,13.901c0,0.225-0.023,0.444-0.034,0.667l22.869,0.574l1.982-78.92L247.352,245.122z"/>
			<g>
				<circle style="fill:#FFB127;" cx="418.014" cy="130.942" r="60.551"/>
				<g>
					<g>
						<path style="fill:#D8948F;" d="M298.323,160.534c0,0-14.664-5.635-14.834-4.431c-0.17,1.205,4.546,3.576,4.546,3.576
							s-7.012,0.895-10.888,1.125c-1.467,0.087-2.726,1.227-3.009,2.707l-0.736,3.844c0,0,7.115,0.77,10.998,0.906
							s15.519-0.114,15.519-0.114L298.323,160.534z"/>
						
							<line style="fill:none;stroke:#050528;stroke-width:0.5;stroke-linecap:round;stroke-linejoin:round;stroke-miterlimit:10;" x1="274.246" y1="163.144" x2="283.192" y2="162.776"/>
						
							<line style="fill:none;stroke:#050528;stroke-width:0.5;stroke-linecap:round;stroke-linejoin:round;stroke-miterlimit:10;" x1="273.809" y1="165.599" x2="282.755" y2="165.231"/>
					</g>
					<g>
						<path style="fill:#D8948F;" d="M429.933,207.983c0,0-9.833,12.252-8.738,12.781c1.096,0.529,4.79-3.242,4.79-3.242
							s-1.283,6.952-2.244,10.713c-0.364,1.424,0.339,2.97,1.662,3.691l3.437,1.872c0,0,2.9-6.543,4.212-10.2
							c1.313-3.657,4.617-14.816,4.617-14.816L429.933,207.983z"/>
						
							<line style="fill:none;stroke:#050528;stroke-width:0.5;stroke-linecap:round;stroke-linejoin:round;stroke-miterlimit:10;" x1="425.087" y1="231.711" x2="427.461" y2="223.078"/>
						
							<line style="fill:none;stroke:#050528;stroke-width:0.5;stroke-linecap:round;stroke-linejoin:round;stroke-miterlimit:10;" x1="427.293" y1="232.875" x2="429.666" y2="224.242"/>
					</g>
					<g>
						<g>
							<g>
								<path style="fill:#D8948F;" d="M382.927,133.239L382.927,133.239c2.609-2.538,2.668-6.748,0.13-9.358l-9.33-9.593
									c-2.537-2.609-6.748-2.668-9.357-0.13l0,0c-2.609,2.538-2.668,6.748-0.13,9.357l9.33,9.593
									C376.107,135.718,380.318,135.777,382.927,133.239z"/>
								<path style="fill:#C67775;" d="M363.966,114.551l0.808-0.786c2.387-2.321,6.239-2.268,8.561,0.119l3.308,3.401
									c-0.52,5.483-3.281,11.06-5.76,13.06l-7.035-7.234C361.526,120.724,361.579,116.872,363.966,114.551z"/>
							</g>
							<path style="fill:#D8948F;" d="M346.768,120.545c-1.075-1.111-1.914-2.361-2.54-3.685c-0.032-0.053-0.054-0.092-0.064-0.111
								c0,0,0.008-0.009,0.01-0.01c-2.374-5.149-1.405-11.445,2.891-15.623c5.051-4.912,12.903-5.157,18.243-0.827
								c0.006,0.003,0.013,0.004,0.019,0.007c2.621,1.525,5.808,7.83,7.441,11.369c0.741,1.606,1.02,3.379,0.807,5.135
								c-0.723,5.954-4.535,18.153-11.335,16.885C356.118,132.543,350.482,125.59,346.768,120.545z"/>
							
								<path style="fill:none;stroke:#0E0108;stroke-width:0.5;stroke-linecap:round;stroke-linejoin:round;stroke-miterlimit:10;" d="
								M357.274,125.307c0,0,2.117-0.009,2.752-2.676"/>
							<g>
								<path style="fill:#0E0108;" d="M363.004,110.658c0.051-0.05,0.088-0.116,0.102-0.191c0.035-0.193-0.093-0.378-0.286-0.413
									c-3.398-0.616-4.957,3.22-4.972,3.259c-0.072,0.182,0.017,0.388,0.199,0.461c0.182,0.072,0.389-0.016,0.461-0.199
									c0.054-0.136,1.362-3.333,4.185-2.822C362.81,110.775,362.924,110.736,363.004,110.658z"/>
							</g>
							<path style="fill:#0E0108;" d="M348.448,122.766c-0.148-0.191-0.294-0.379-0.438-0.567c1.002-1.102,2.342-1.609,2.364-1.618
								c0.184-0.067,0.389,0.028,0.455,0.213c0.067,0.184-0.028,0.387-0.212,0.455C350.596,121.256,349.322,121.735,348.448,122.766
								z"/>
							<path style="fill:#FFFFFF;" d="M359.817,119.949c0,0,4.599-1.08,5.151-7.531
								C364.968,112.418,358.207,114.953,359.817,119.949z"/>
							<g>
								<g>
									<path style="fill:#0E0108;" d="M359.711,120.239c0.075-0.073,0.117-0.178,0.106-0.29c-0.022-0.222-0.473-5.454,5.316-6.84
										c0.191-0.046,0.308-0.237,0.263-0.428c-0.046-0.191-0.238-0.308-0.428-0.263c-6.401,1.533-5.865,7.542-5.858,7.603
										c0.02,0.195,0.194,0.337,0.389,0.317C359.582,120.33,359.655,120.293,359.711,120.239z"/>
								</g>
							</g>
							<g>
								<path style="fill:#D8948F;" d="M375.409,104.713c-2.049-2.107-5.418-2.154-7.525-0.105
									c-2.107,2.049-2.154,5.418-0.105,7.524c2.049,2.107,5.418,2.154,7.524,0.105C377.41,110.189,377.457,106.82,375.409,104.713
									z"/>
								
									<path style="fill:none;stroke:#0E0108;stroke-width:0.5;stroke-linecap:round;stroke-linejoin:round;stroke-miterlimit:10;" d="
									M370.209,110.481c0,0-1.801-4.298,2.159-6.805"/>
							</g>
							<path style="fill:#050528;" d="M361.523,119.115c-0.406-0.089-0.798-0.268-1.132-0.563c-0.343-0.303-0.573-0.68-0.711-1.084
								c0.32-1.404,1.298-2.517,2.328-3.337c0.614-0.014,1.236,0.187,1.733,0.625c0.237,0.209,0.418,0.455,0.557,0.719
								C363.583,117.354,362.466,118.466,361.523,119.115z"/>
							<g>
								<path style="fill:#FFFFFF;" d="M352.914,123.81c0.729-0.141,1.562-0.171,2.51-0.045c-0.448,0.75-0.921,1.385-1.408,1.9
									c-0.027-0.297-0.1-0.594-0.238-0.878C353.576,124.373,353.271,124.048,352.914,123.81z"/>
								<polygon style="fill:#050528;" points="352.418,123.544 352.418,123.544 352.417,123.544 								"/>
								<path style="fill:#050528;" d="M352.17,127.134c0.03-0.018,0.061-0.035,0.091-0.053c0.101-0.061,0.203-0.123,0.305-0.191
									c0.092-0.061,0.184-0.125,0.276-0.193c0.109-0.079,0.217-0.165,0.326-0.253c0.087-0.071,0.175-0.14,0.262-0.217
									c0.13-0.115,0.26-0.242,0.39-0.371c0.065-0.065,0.131-0.122,0.196-0.191l0,0c-0.027-0.297-0.1-0.594-0.238-0.878
									c-0.202-0.414-0.506-0.738-0.863-0.977c0.729-0.141,1.562-0.171,2.51-0.045c0.09,0.012,0.179,0.021,0.271,0.036
									c0.194,0.031,0.376-0.101,0.407-0.294c0.031-0.194-0.101-0.376-0.295-0.407c-2.765-0.444-4.68,0.344-5.971,1.399
									c0.055,0.066,0.111,0.132,0.166,0.198c0,0,0,0,0.002,0.003c0.09,0.108,0.184,0.216,0.275,0.324
									C350.885,125.737,351.516,126.444,352.17,127.134z M352.418,123.544C352.418,123.544,352.417,123.544,352.418,123.544
									C352.417,123.544,352.418,123.544,352.418,123.544L352.418,123.544z"/>
							</g>
							<path style="fill:#0E0108;" d="M361.651,129.947c1.139,0.164,2.297-0.104,3.298-0.654c1.859-1.022,3.065-3.073,3.223-5.167
								c0.081-1.074-0.071-2.327-0.72-3.22c-0.665-0.914-1.898-1.222-2.455-0.041c-0.542,1.15-0.432,2.484-0.984,3.637
								c-0.201,0.419-0.479,0.813-0.814,1.15c-0.27,0.181-0.565,0.335-0.893,0.448c-0.887,0.304-3.233,0.455-3.168,1.817
								C359.195,129.122,360.618,129.798,361.651,129.947z"/>
							<path style="fill:#FF8DCC;" d="M364.527,125.789c0.927-1.05,2.299-1.455,3.582-1.21c-0.285,1.932-1.436,3.767-3.16,4.714
								c-0.345,0.189-0.712,0.331-1.087,0.447C363.34,128.442,363.538,126.909,364.527,125.789z"/>
						</g>
					</g>
					<g>
						<path style="fill:#AABBFF;" d="M370.882,130.345l-33.216,25.589c0,0-17.085,4.409-39.738,3.078l-2.485,11.984
							c0,0,25.551,13.538,50.617,2.663c25.066-10.875,38.826-28.631,38.826-28.631L370.882,130.345z"/>
						<path style="fill:#AABBFF;" d="M433.986,160.188c-9.084-14.91-34.705-38.526-40.602-38.526
							c-8.195,0-14.838,6.643-14.838,14.838c0,6.727,37.035,35.63,37.035,35.63s8.715,15.125,10.509,37.747l12.212,0.814
							C438.303,210.691,448.202,183.522,433.986,160.188z"/>
						<path style="fill:#AABBFF;" d="M476.99,146.224c1.22-4.793,1.872-9.813,1.872-14.985c0-11.227-3.067-21.732-8.391-30.746
							c-12.087,0.476-68.555,2.72-78.025,3.479c-10.617,0.851-16.393,12.698-16.393,12.698c2.704,10.25-4.874,13.971-4.874,13.971
							c6.583,14.87,54.595,30.132,54.595,30.132L476.99,146.224z"/>
						
							<line style="fill:none;stroke:#FFFFFF;stroke-width:0.5;stroke-linecap:round;stroke-linejoin:round;stroke-miterlimit:10;" x1="371.179" y1="130.642" x2="385.184" y2="145.326"/>
						
							<path style="fill:none;stroke:#FFFFFF;stroke-width:0.5;stroke-linecap:round;stroke-linejoin:round;stroke-miterlimit:10;" d="
							M433.132,158.684c0,0-28.606-37.641-38.468-38.047c-9.862-0.406-16.434,7.757-15.369,18.515"/>
						<path style="fill:#050528;" d="M436.617,164.786c-0.695-1.443-1.468-2.879-2.334-4.3c-2.957-4.854-7.67-10.628-12.881-16.212
							c-3.044,2.337-5.015,6.002-5.015,10.136c0,7.06,5.723,12.783,12.783,12.783C431.952,167.193,434.519,166.295,436.617,164.786z
							"/>
						<path style="fill:#050528;" d="M355.378,169.051c-2.124-4.115-6.408-6.934-11.358-6.934c-7.06,0-12.783,5.723-12.783,12.784
							c0,0.895,0.094,1.768,0.269,2.61c4.742-0.544,9.657-1.727,14.556-3.853C349.367,172.225,352.47,170.669,355.378,169.051z"/>
					</g>
				</g>
				<path style="fill:#050528;" d="M353.766,100.77c0,0,7.79,8.46,13.235,7.288c0,0-0.09-2.506,1.599-4.128
					c-1.091-1.651-2.226-3.025-3.272-3.634c-0.006-0.003-0.013-0.004-0.019-0.007c-5.341-4.331-13.192-4.086-18.243,0.827
					c-4.296,4.178-5.265,10.474-2.891,15.623c-0.001,0.001-0.01,0.01-0.01,0.01c0.01,0.019,0.032,0.058,0.064,0.111
					c0.626,1.325,1.466,2.574,2.54,3.685C346.768,120.545,357.996,114.256,353.766,100.77z"/>
			</g>
			<g>
				<path style="fill:#0048FD;" d="M399.112,235.31c48.533,30.688,63.6,94.76,33.541,143.919
					c-30.059,49.158-93.957,64.946-143.391,35.731L399.112,235.31z"/>
				<g>
					<g>
						<path style="fill:#0E0108;" d="M389.35,321.834h-52.19c0.504-0.347,1.023-0.681,1.562-0.993
							c-1.604-0.369-3.053-1.204-4.332-2.069c-1.796-1.215-3.638-2.604-4.629-4.359c-0.959-1.697-0.892-3.562,0.308-5.171
							c1.24-1.662,3.297-2.886,5.33-3.853c1.776-0.844,3.69-1.483,5.672-1.925c-2.378-1.377-3.598-4.092-3.505-6.414
							c0.062-1.557,0.679-3.08,1.926-4.277c1.272-1.221,3.15-1.936,5.061-2.219c1.74-0.257,3.504-0.233,5.257-0.104
							c-0.632-1.49,0.306-3.317,1.718-4.419c1.888-1.473,4.545-2.214,7.144-2.164c2.649,0.051,5.207,0.909,7.036,2.48
							c0.951,0.817,1.683,1.767,2.225,2.788c2.33,1.499,3.816,3.825,3.936,6.234c3.182-0.978,7.322,0.684,9.269,2.758
							c2.655,2.828,0.902,6.121-1.272,8.759c3.47,0.178,6.564,2.337,7.615,5.057c1.166,3.018-0.239,6.256-2.665,8.636
							C386.396,320.688,387.995,321.135,389.35,321.834z"/>
						<g>
							<g>
								<g>
									<path style="fill:#D8948F;" d="M362.752,335.815L362.752,335.815c3.689-0.175,6.563-3.337,6.388-7.025l-0.645-13.563
										c-0.175-3.689-3.337-6.563-7.025-6.388l0,0c-3.689,0.175-6.563,3.337-6.388,7.025l0.645,13.563
										C355.902,333.115,359.064,335.99,362.752,335.815z"/>
									<path style="fill:#C67775;" d="M360.899,308.866l1.142-0.054c3.374-0.16,6.267,2.47,6.427,5.844l0.228,4.809
										c-4.08,3.818-9.927,6.202-13.156,6.056l-0.486-10.227C354.895,311.919,357.525,309.026,360.899,308.866z"/>
								</g>
								<path style="fill:#D8948F;" d="M343.798,301.864c-0.07-1.567,0.132-3.081,0.546-4.509c0.011-0.062,0.021-0.107,0.026-0.128
									c0,0,0.012-0.001,0.014-0.001c1.656-5.51,6.623-9.644,12.697-9.933c7.141-0.339,13.274,4.751,14.423,11.632
									c0.002,0.006,0.008,0.012,0.01,0.018c0.968,2.921-0.847,9.856-1.985,13.643c-0.516,1.719-1.496,3.254-2.838,4.445
									c-4.551,4.04-15.648,10.751-19.964,5.217C342.841,317.268,343.23,308.196,343.798,301.864z"/>
								
									<path style="fill:none;stroke:#0E0108;stroke-width:0.5;stroke-linecap:round;stroke-linejoin:round;stroke-miterlimit:10;" d="
									M348.583,312.545c0,0,1.616,1.415,3.89-0.185"/>
								<g>
									<path style="fill:#0E0108;" d="M362.784,305.26c0.073-0.004,0.145-0.029,0.206-0.077c0.156-0.123,0.183-0.35,0.06-0.506
										c-2.169-2.752-5.932-0.884-5.969-0.864c-0.178,0.09-0.248,0.307-0.158,0.484c0.09,0.177,0.306,0.249,0.484,0.158
										c0.133-0.067,3.275-1.618,5.077,0.668C362.558,305.218,362.671,305.266,362.784,305.26z"/>
								</g>
								<path style="fill:#0E0108;" d="M343.582,304.681c0.015-0.245,0.031-0.486,0.048-0.726c1.502-0.164,2.862,0.351,2.885,0.359
									c0.185,0.073,0.276,0.283,0.203,0.467c-0.073,0.185-0.281,0.276-0.467,0.203C346.23,304.978,344.94,304.485,343.582,304.681
									z"/>
								<g>
									<g>
										<path style="fill:#0E0108;" d="M353.841,310.33c0.106-0.005,0.209-0.056,0.276-0.149c0.132-0.184,3.306-4.464,8.638-1.626
											c0.176,0.093,0.394,0.027,0.487-0.149c0.093-0.176,0.026-0.394-0.149-0.487c-5.895-3.137-9.527,1.792-9.562,1.842
											c-0.116,0.162-0.079,0.387,0.083,0.503C353.683,310.313,353.763,310.334,353.841,310.33z"/>
									</g>
								</g>
								<path style="fill:#0E0108;" d="M343.46,307.503c1.536-0.055,3.337,0.403,5.206,1.991c0.152,0.129,0.17,0.356,0.041,0.508
									c-0.129,0.152-0.356,0.17-0.508,0.042c-1.724-1.465-3.365-1.889-4.752-1.84C343.449,307.968,343.455,307.736,343.46,307.503
									z"/>
								<g>
									<path style="fill:#D8948F;" d="M376.209,309.078c-0.142-2.978-2.671-5.278-5.649-5.137
										c-2.978,0.142-5.278,2.671-5.137,5.649c0.142,2.978,2.671,5.278,5.649,5.137
										C374.05,314.586,376.35,312.056,376.209,309.078z"/>
									
										<path style="fill:none;stroke:#0E0108;stroke-width:0.5;stroke-linecap:round;stroke-linejoin:round;stroke-miterlimit:10;" d="
										M368.38,309.968c0,0,1.519-4.477,6.215-3.722"/>
								</g>
								
									<path style="fill:none;stroke:#0E0108;stroke-width:0.5;stroke-linecap:round;stroke-linejoin:round;stroke-miterlimit:10;" d="
									M349.874,317.604c0,0,5.228,1.573,7.488-3.367"/>
							</g>
						</g>
						<path style="fill:#0E0108;" d="M343.798,301.864c-0.07-1.567,0.132-3.081,0.546-4.509c0.011-0.062,0.021-0.107,0.026-0.128
							c0,0,0.012-0.001,0.014-0.001c1.656-5.51,6.623-9.644,12.697-9.933c7.141-0.339,13.274,4.751,14.423,11.633
							c0.002,0.006,0.008,0.012,0.01,0.018c0.435,1.313,1.066,5.472,0.997,5.289c-1.467,0.753-3.561,2.673-4.016,4.168
							c-0.087,0.286-0.475,0.421-0.693,0.183c-1.999-2.177-2.432-5.475-1.145-8.093c-1.617,0.217-3.281-1.029-4.163-2.336
							c-0.711-1.055-1.115-2.277-1.34-3.535c-0.122,0.234-0.264,0.463-0.444,0.684c-0.674,0.827-1.645,1.406-2.712,1.523
							c-1.241,0.136-2.423-0.471-3.183-1.409c-0.059,0.486-0.175,0.962-0.385,1.416c-0.439,0.945-1.273,1.754-2.334,1.908
							c-1.048,0.152-2.092-0.384-2.726-1.204c-0.034-0.044-0.06-0.091-0.091-0.136c-0.144,1.322-0.553,2.558-1.695,3.273
							c-0.768,0.481-1.751,0.526-2.469-0.069c-0.085-0.07-0.163-0.146-0.234-0.227c-0.236,0.829-0.593,1.623-1.142,2.189
							C343.758,302.332,343.778,302.093,343.798,301.864z"/>
						<path style="fill:#FFFFFF;" d="M375.387,314.046c0-1.723-1.397-3.12-3.12-3.12c-1.723,0-3.12,1.397-3.12,3.12
							c0,1.723,1.397,3.12,3.12,3.12C373.991,317.166,375.387,315.769,375.387,314.046z"/>
					</g>
					<g>
						<g>
							<path style="fill:#D8948F;" d="M271.814,388.093c0.283-1.48,1.542-2.62,3.009-2.707c3.875-0.23,10.888-1.125,10.888-1.125
								s-4.716-2.371-4.546-3.576c0.135-0.96,9.471,2.422,13.259,3.836c4.763,0.382,37.218,2.101,49.512-20.678l21.393,17.066
								c0,0-8.438,34.692-71.904,11.896c-3.737,0.06-8.981,0.12-11.348,0.037c-3.883-0.136-10.998-0.906-10.998-0.906
								L271.814,388.093z"/>
							
								<line style="fill:none;stroke:#050528;stroke-width:0.5;stroke-linecap:round;stroke-linejoin:round;stroke-miterlimit:10;" x1="271.922" y1="387.726" x2="280.868" y2="387.358"/>
							
								<line style="fill:none;stroke:#050528;stroke-width:0.5;stroke-linecap:round;stroke-linejoin:round;stroke-miterlimit:10;" x1="271.485" y1="390.181" x2="280.431" y2="389.813"/>
						</g>
						<path style="fill:#FFB127;" d="M336.961,370.15l18.501-42.808c0,0,8.511,1.232,13.639-4.829
							c29.273,5.171,44.066,51.412,49.712,74.691c-18.174,18.98-42.508,30.092-67.841,32.08l0-29.701L336.961,370.15z"/>
						
							<path style="fill:none;stroke:#FFFFFF;stroke-width:0.5;stroke-linecap:round;stroke-linejoin:round;stroke-miterlimit:10;" d="
							M350.973,399.583c0,0,24.6-13.349,20.647-44.341"/>
					</g>
				</g>
			</g>
			<g>
				<polygon style="fill:#AABBFF;" points="191.528,387.726 153.949,322.936 21.138,339.321 21.138,402.479 				"/>
				<g>
					<g>
						<path style="fill:#0E0108;" d="M130.824,206.897c-0.264,1.633-0.528,3.267-0.793,4.901c-0.27,1.673,0.904,3.135-0.992,4.998
							H65.495c0.348-1.335,0.786-2.645,1.316-3.92c1.169-2.81,2.927-5.57,6.077-6.328c1.68-0.404,3.374-0.234,5.077-0.151
							c1.6,0.078,3.063-0.105,3.854-1.658c0.718-1.41,0.979-3.075,1.336-4.601c0.341-1.459,0.727-2.925,1.424-4.261
							c2.794-5.357,9.405-4.979,14.122-7.497c0.391-0.209,0.759-0.445,1.116-0.695c0.665-0.751,1.252-1.585,1.819-2.377
							c1.368-1.909,2.634-3.887,4.076-5.743c2.322-2.989,5.303-5.758,9.01-6.768c0.746-0.306,1.54-0.521,2.369-0.633
							c2.628-0.356,5.257,0.42,7.509,1.765c2.409,1.439,4.518,3.52,5.911,5.961c1.4,2.453,2.094,5.21,2.347,8.007
							c0.286,3.173-0.057,6.36-0.513,9.499C131.883,200.569,131.336,203.731,130.824,206.897z"/>
						<g>
							<g>
								<g>
									<path style="fill:#D8948F;" d="M112.963,222.308L112.963,222.308c-3.805-0.181-6.771-3.442-6.59-7.248l0.665-13.991
										c0.181-3.805,3.442-6.771,7.248-6.59h0c3.805,0.181,6.771,3.442,6.59,7.247l-0.665,13.992
										C120.029,219.524,116.768,222.489,112.963,222.308z"/>
									<path style="fill:#C67775;" d="M114.874,194.507l-1.178-0.056c-3.481-0.165-6.465,2.548-6.63,6.029l-0.236,4.961
										c4.209,3.939,10.241,6.398,13.572,6.247l0.501-10.55C121.069,197.657,118.356,194.673,114.874,194.507z"/>
								</g>
								<path style="fill:#D8948F;" d="M132.516,187.284c0.073-1.617-0.136-3.178-0.563-4.651c-0.012-0.064-0.021-0.11-0.027-0.132
									c0,0-0.012-0.001-0.014-0.001c-1.708-5.684-6.833-9.949-13.099-10.247c-7.367-0.35-13.694,4.901-14.879,12
									c-0.002,0.006-0.008,0.012-0.01,0.019c-0.998,3.013,0.874,10.167,2.048,14.074c0.533,1.773,1.543,3.357,2.928,4.586
									c4.695,4.168,16.143,11.091,20.595,5.383C133.503,203.175,133.102,193.816,132.516,187.284z"/>
								
									<path style="fill:none;stroke:#0E0108;stroke-width:0.5;stroke-linecap:round;stroke-linejoin:round;stroke-miterlimit:10;" d="
									M127.58,198.303c0,0-1.667,1.46-4.013-0.191"/>
								<g>
									<path style="fill:#0E0108;" d="M112.93,190.788c-0.075-0.004-0.149-0.03-0.212-0.08c-0.161-0.127-0.189-0.361-0.062-0.522
										c2.238-2.839,6.12-0.912,6.158-0.891c0.183,0.093,0.256,0.316,0.163,0.5c-0.093,0.183-0.316,0.257-0.5,0.163
										c-0.137-0.069-3.379-1.669-5.238,0.689C113.163,190.744,113.047,190.793,112.93,190.788z"/>
								</g>
								<path style="fill:#0E0108;" d="M132.739,190.19c-0.016-0.252-0.032-0.501-0.05-0.748c-1.55-0.169-2.952,0.362-2.976,0.371
									c-0.191,0.075-0.285,0.292-0.21,0.482c0.075,0.191,0.29,0.284,0.482,0.21C130.007,190.496,131.339,189.988,132.739,190.19z"
									/>
								<g>
									<g>
										<path style="fill:#0E0108;" d="M122.155,196.018c-0.109-0.005-0.215-0.058-0.285-0.154
											c-0.136-0.19-3.411-4.605-8.911-1.678c-0.181,0.096-0.406,0.028-0.503-0.154c-0.096-0.181-0.027-0.406,0.154-0.503
											c6.082-3.236,9.828,1.848,9.865,1.9c0.119,0.167,0.082,0.399-0.085,0.518C122.319,196,122.236,196.022,122.155,196.018z"
											/>
									</g>
								</g>
								<path style="fill:#0E0108;" d="M132.865,193.101c-1.584-0.057-3.443,0.416-5.37,2.053c-0.157,0.133-0.176,0.368-0.043,0.524
									c0.133,0.157,0.368,0.176,0.524,0.043c1.778-1.511,3.471-1.949,4.902-1.898C132.876,193.581,132.87,193.341,132.865,193.101
									z"/>
								<g>
									<path style="fill:#D8948F;" d="M99.081,194.726c0.146-3.073,2.755-5.445,5.828-5.299c3.073,0.146,5.445,2.755,5.299,5.828
										c-0.146,3.073-2.755,5.445-5.828,5.299C101.307,200.408,98.935,197.799,99.081,194.726z"/>
									
										<path style="fill:none;stroke:#0E0108;stroke-width:0.5;stroke-linecap:round;stroke-linejoin:round;stroke-miterlimit:10;" d="
										M107.157,195.644c0,0-1.567-4.619-6.411-3.84"/>
								</g>
								
									<path style="fill:none;stroke:#0E0108;stroke-width:0.5;stroke-linecap:round;stroke-linejoin:round;stroke-miterlimit:10;" d="
									M126.248,203.521c0,0-5.393,1.623-7.725-3.474"/>
							</g>
						</g>
						<path style="fill:#0E0108;" d="M103.924,184.272c0.002-0.007,0.008-0.012,0.01-0.019c1.185-7.099,7.513-12.351,14.879-12
							c6.266,0.298,11.391,4.563,13.099,10.247c0.002,0,0.014,0.001,0.014,0.001c0.006,0.022,0.015,0.068,0.027,0.131
							c0.427,1.473,0.65,1.764,0.577,3.381c0,0-3.053-1.542-9.581-7.664c-0.422-0.395-2.066-5.179-2.066-5.179l1.771,5.016
							c0,0-0.764,12.757-19.012,11.234l0.168-0.528C103.58,187.039,103.558,185.377,103.924,184.272z"/>
						
							<path style="fill:none;stroke:#FFB127;stroke-width:0.5;stroke-linecap:round;stroke-linejoin:round;stroke-miterlimit:10;" d="
							M105.235,199.796c0-2.484-2.014-4.498-4.498-4.498c-2.484,0-4.498,2.014-4.498,4.498c0,2.484,2.014,4.498,4.498,4.498
							C103.221,204.293,105.235,202.28,105.235,199.796z"/>
					</g>
					<g>
						<path style="fill:#D8948F;" d="M84.17,321.137c0,0-9.317-4.12-13.578,3.465c0,0-30.948,6.976-31.463,9.364
							c-0.515,2.388,1.124,3.465,1.124,3.465h43.261L84.17,321.137z"/>
						<path style="fill:#050528;" d="M59.374,286.239l105.312,4.826c0,0,16.464,2.413,16.464,23.844s-30.373,24.412-30.373,24.412
							l-71.533-1.135l1.135-29.522C80.38,308.664,56.677,310.225,59.374,286.239z"/>
						
							<line style="fill:none;stroke:#FFFFFF;stroke-width:0.5;stroke-linecap:round;stroke-linejoin:round;stroke-miterlimit:10;" x1="80.38" y1="308.664" x2="159.081" y2="312.78"/>
					</g>
					<g>
						<g>
							<path style="fill:#D8948F;" d="M179.866,269.462c0,0,14.664-5.635,14.834-4.431c0.17,1.205-4.546,3.576-4.546,3.576
								s7.012,0.895,10.888,1.125c1.467,0.087,2.726,1.227,3.009,2.707l0.736,3.844c0,0-7.115,0.77-10.998,0.906
								c-3.883,0.136-15.519-0.114-15.519-0.114L179.866,269.462z"/>
							
								<line style="fill:none;stroke:#050528;stroke-width:0.5;stroke-linecap:round;stroke-linejoin:round;stroke-miterlimit:10;" x1="203.942" y1="272.072" x2="194.997" y2="271.704"/>
							
								<line style="fill:none;stroke:#050528;stroke-width:0.5;stroke-linecap:round;stroke-linejoin:round;stroke-miterlimit:10;" x1="204.379" y1="274.527" x2="195.434" y2="274.159"/>
						</g>
						<path style="fill:#0048FD;" d="M59.374,286.239c0,0,8.079-72.436,47.389-79.379l-0.398-3.448l15.076,7.068l-1.039,1.209
							l13.69,36.516c1.562,6.647,6.914,11.737,13.631,12.962l33.427,6.099v13.887c0,0-46.217,7.157-56.258,2.777l0.631,5.34
							L59.374,286.239z"/>
						
							<path style="fill:none;stroke:#FFFFFF;stroke-width:0.5;stroke-linecap:round;stroke-linejoin:round;stroke-miterlimit:10;" d="
							M124.892,283.93c0,0-24.6-13.349-20.647-44.341"/>
						<polygon style="fill:#FFFFFF;" points="181.15,267.266 175.256,266.19 175.614,281.951 181.15,281.152 						"/>
					</g>
				</g>
			</g>
			<path style="fill:#0048FD;" d="M204.225,152.165c-7.313-1.254-14.258,3.658-15.512,10.971
				c-1.254,7.313,3.658,14.258,10.971,15.512l-4.4,25.663l25.663,4.4c1.254-7.313,8.199-12.225,15.512-10.971
				c7.313,1.254,12.225,8.199,10.971,15.512l25.664,4.4l13.341-77.81l-77.81-13.341L204.225,152.165z"/>
		</g>
		<g>
			<path style="fill:#AABBFF;" d="M401.407,209.094c-0.375,1.178-0.621,1.968-0.878,2.755c-2.108,6.452-4.215,12.904-6.329,19.354
				c-0.618,1.886-0.923,2.052-2.754,1.456c-6.978-2.273-13.946-4.579-20.935-6.817c-1.401-0.449-1.845-1.118-1.365-2.562
				c2.35-7.069,4.654-14.153,6.942-21.242c0.404-1.252,1.066-1.675,2.356-1.25c7.18,2.367,14.376,4.683,21.546,7.081
				C400.583,208.066,401.016,208.744,401.407,209.094z M371.766,223.549c6.754,2.204,13.38,4.366,20.109,6.562
				c2.218-6.795,4.369-13.385,6.564-20.11c-6.767-2.207-13.358-4.356-20.107-6.557C376.125,210.204,373.973,216.792,371.766,223.549
				z"/>
			<path style="fill:#AABBFF;" d="M154.014,127.053c1.105,0.555,1.847,0.921,2.584,1.298c6.042,3.092,12.085,6.183,18.124,9.281
				c1.766,0.906,1.882,1.233,1.006,2.948c-3.337,6.536-6.706,13.057-10.011,19.609c-0.662,1.313-1.393,1.647-2.744,0.947
				c-6.614-3.427-13.25-6.813-19.893-10.183c-1.173-0.595-1.488-1.315-0.866-2.522c3.462-6.72,6.876-13.466,10.367-20.171
				C152.87,127.705,153.607,127.384,154.014,127.053z M163.65,158.591c3.234-6.325,6.407-12.532,9.63-18.834
				c-6.364-3.255-12.536-6.411-18.834-9.632c-3.239,6.338-6.394,12.511-9.624,18.833
				C151.152,152.197,157.321,155.353,163.65,158.591z"/>
			<path style="fill:#0048FD;" d="M313.428,287.788c-0.246,4.683-0.483,9.367-0.74,14.049c-0.098,1.791-0.819,2.198-2.304,1.242
				c-7.887-5.073-15.764-10.163-23.629-15.269c-1.39-0.902-1.336-1.788,0.135-2.547c8.331-4.295,16.668-8.581,25.014-12.846
				c1.573-0.804,2.258-0.322,2.178,1.483C313.878,278.531,313.648,283.159,313.428,287.788z M289.203,286.648
				c7.208,4.651,14.103,9.099,21.288,13.735c0.421-8.514,0.827-16.718,1.251-25.28C304.071,279.032,296.782,282.766,289.203,286.648
				z"/>
			<path style="fill:#0048FD;" d="M80.612,149.545c4.489,1.359,8.98,2.709,13.465,4.078c1.715,0.524,1.938,1.32,0.655,2.534
				c-6.812,6.445-13.638,12.876-20.477,19.292c-1.209,1.134-2.056,0.87-2.44-0.74c-2.178-9.117-4.345-18.236-6.49-27.361
				c-0.404-1.72,0.228-2.27,1.961-1.761C71.731,146.894,76.17,148.224,80.612,149.545z M73.711,172.794
				c6.24-5.887,12.208-11.518,18.428-17.386c-8.166-2.445-16.035-4.801-24.247-7.26C69.872,156.536,71.754,164.507,73.711,172.794z"
				/>
			<path style="fill:#0E0108;" d="M269.346,109.261c0.515,0.897,1.449,2.588,2.446,4.241c1.618,2.684,3.985,2.734,5.717,0.097
				c0.938-1.428,1.685-2.983,2.642-4.397c3.487-5.152,10.009-4.985,13.229,0.32c0.773,1.274,1.428,2.619,2.199,3.894
				c1.78,2.941,4.181,2.971,6.028,0.068c0.918-1.443,1.673-2.992,2.634-4.403c1.404-2.062,3.324-3.36,5.907-3.485
				c0.947-0.046,1.821,0.265,1.69,1.285c-0.066,0.516-0.911,1.266-1.467,1.326c-1.959,0.214-3.264,1.232-4.24,2.82
				c-0.953,1.551-1.785,3.187-2.849,4.656c-2.557,3.529-6.694,3.557-9.287,0.047c-1.043-1.412-1.805-3.032-2.704-4.551
				c-2.389-4.037-6.601-4.126-9.139-0.175c-0.954,1.485-1.727,3.093-2.755,4.521c-2.668,3.708-7.116,3.587-9.587-0.228
				c-0.989-1.527-1.829-3.15-2.792-4.695c-0.923-1.482-2.202-2.45-4.034-2.537c-0.952-0.045-1.76-0.529-1.451-1.517
				c0.158-0.506,1.103-1.084,1.69-1.082C265.59,105.476,267.422,106.651,269.346,109.261z"/>
			<path style="fill:#FFB127;" d="M133.451,415.122c0.516,0.897,1.449,2.588,2.446,4.241c1.618,2.684,3.985,2.734,5.717,0.097
				c0.938-1.428,1.685-2.983,2.642-4.397c3.487-5.152,10.009-4.985,13.229,0.32c0.773,1.274,1.428,2.619,2.199,3.894
				c1.78,2.941,4.181,2.971,6.028,0.068c0.918-1.443,1.673-2.992,2.634-4.404c1.404-2.062,3.324-3.36,5.907-3.485
				c0.948-0.046,1.821,0.265,1.69,1.285c-0.066,0.516-0.911,1.266-1.467,1.327c-1.959,0.213-3.264,1.232-4.24,2.82
				c-0.953,1.551-1.784,3.187-2.848,4.656c-2.557,3.529-6.694,3.557-9.287,0.047c-1.043-1.412-1.805-3.031-2.704-4.551
				c-2.389-4.037-6.602-4.126-9.139-0.175c-0.954,1.485-1.727,3.093-2.755,4.521c-2.668,3.708-7.116,3.587-9.587-0.228
				c-0.989-1.527-1.829-3.15-2.791-4.695c-0.923-1.482-2.202-2.45-4.034-2.537c-0.952-0.045-1.76-0.529-1.451-1.517
				c0.158-0.506,1.103-1.085,1.69-1.082C129.695,411.336,131.527,412.511,133.451,415.122z"/>
			<path style="fill:#AABBFF;" d="M180.158,214.582c5.798,3.512,11.112,6.732,16.721,10.13c-5.719,3.144-11.189,6.15-16.721,9.191
				C180.158,227.507,180.158,221.302,180.158,214.582z"/>
			<circle style="fill:#FFB127;" cx="302.461" cy="235.31" r="2.542"/>
			<path style="fill:#FFB127;" d="M123.706,129.74c0-1.404,1.138-2.542,2.542-2.542s2.542,1.138,2.542,2.542
				c0,1.404-1.138,2.542-2.542,2.542S123.706,131.144,123.706,129.74z"/>
			<path style="fill:#FFB127;" d="M178.608,345.185c0-1.404,1.138-2.542,2.542-2.542c1.404,0,2.542,1.138,2.542,2.542
				c0,1.404-1.138,2.542-2.542,2.542C179.746,347.728,178.608,346.589,178.608,345.185z"/>
			<path style="fill:#FFB127;" d="M168.195,100.493c0-1.404,1.138-2.542,2.542-2.542c1.404,0,2.542,1.138,2.542,2.542
				c0,1.404-1.138,2.542-2.542,2.542C169.333,103.035,168.195,101.897,168.195,100.493z"/>
			<circle style="fill:#FFB127;" cx="297.654" cy="355.243" r="1.973"/>
			<circle style="fill:#FFB127;" cx="336.961" cy="266.19" r="2.542"/>
			<path style="fill:#FFB127;" d="M36.487,305.813c0-1.404,1.138-2.542,2.542-2.542s2.542,1.138,2.542,2.542
				c0,1.404-1.138,2.542-2.542,2.542S36.487,307.217,36.487,305.813z"/>
			<path style="fill:#FFB127;" d="M448.131,256.992c0-1.404,1.138-2.542,2.542-2.542c1.404,0,2.542,1.138,2.542,2.542
				s-1.138,2.542-2.542,2.542C449.27,259.534,448.131,258.396,448.131,256.992z"/>
			<circle style="fill:#FFB127;" cx="47.396" cy="235.31" r="1.271"/>
			<circle style="fill:#FFB127;" cx="459.655" cy="287.812" r="1.271"/>
			<circle style="fill:#FFB127;" cx="286.702" cy="254.45" r="2.542"/>
			<path style="fill:#FFB127;" d="M85.441,411.3c0-0.702,0.569-1.271,1.271-1.271c0.702,0,1.271,0.569,1.271,1.271
				c0,0.702-0.569,1.271-1.271,1.271C86.01,412.571,85.441,412.002,85.441,411.3z"/>
			<path style="fill:#FFB127;" d="M156.539,237.852c0-1.404,1.138-2.542,2.542-2.542c1.404,0,2.542,1.138,2.542,2.542
				c0,1.404-1.138,2.542-2.542,2.542C157.677,240.394,156.539,239.256,156.539,237.852z"/>
			<circle style="fill:#FFB127;" cx="107.157" cy="92.611" r="1.271"/>
			<circle style="fill:#FFB127;" cx="232.931" cy="112.418" r="2.542"/>
			<circle style="fill:#FFB127;" cx="261.469" cy="123.969" r="1.271"/>
			<path style="fill:#FFB127;" d="M310.294,133.776c0-2.096,1.699-3.795,3.795-3.795c2.096,0,3.795,1.699,3.795,3.795
				c0,2.096-1.699,3.795-3.795,3.795C311.993,137.571,310.294,135.872,310.294,133.776z"/>
			<circle style="fill:#FFB127;" cx="331.236" cy="224.242" r="3.795"/>
			<path style="fill:#FFB127;" d="M293.859,307.319c0-2.096,1.699-3.795,3.795-3.795c2.096,0,3.795,1.699,3.795,3.795
				s-1.699,3.795-3.795,3.795C295.558,311.113,293.859,309.414,293.859,307.319z"/>
		</g>
	</g>
</g>
</svg>
