<?xml version="1.0" encoding="utf-8"?>
<!-- Generator: Adobe Illustrator 27.5.0, SVG Export Plug-In . SVG Version: 6.00 Build 0)  -->
<svg version="1.1" xmlns="http://www.w3.org/2000/svg" xmlns:xlink="http://www.w3.org/1999/xlink" x="0px" y="0px"
	 viewBox="0 0 500 500" style="enable-background:new 0 0 500 500;" xml:space="preserve">
<g id="BACKGROUND">
	<rect style="fill:transparent;" width="500" height="500"/>
</g>
<g id="OBJECTS">
	<g>
		<g>
			
				<ellipse transform="matrix(0.6076 -0.7943 0.7943 0.6076 -51.7638 283.601)" style="fill:#F0DEFF;" cx="261.109" cy="194.183" rx="118.519" ry="108.284"/>
			<ellipse style="fill:#F0DEFF;" cx="267.664" cy="438.046" rx="209.109" ry="5.647"/>
		</g>
		<g>
			<polygon style="fill:#FFCD01;" points="48.594,288.756 42.932,298.563 54.256,298.563 			"/>
			<polygon style="fill:#FF692D;" points="432.734,273.16 427.072,282.967 438.396,282.967 			"/>
			<polygon style="fill:#546CFF;" points="395.307,115.434 400.969,105.627 389.645,105.627 			"/>
			<path style="fill:#FF692D;" d="M313.348,69.427l-3.092-2.538c0.949-1.157,1.337-2.862,1.035-4.561
				c-0.301-1.699-1.251-3.167-2.54-3.927l2.031-3.446c2.316,1.365,3.938,3.798,4.447,6.675
				C315.74,64.507,315.054,67.349,313.348,69.427z"/>
			<path style="fill:#546CFF;" d="M252.952,123.153c-0.765-2.578-0.293-5.463,1.295-7.916c1.587-2.453,4.026-4.064,6.69-4.422
				l0.533,3.964c-1.483,0.2-2.928,1.184-3.866,2.632c-0.938,1.449-1.243,3.171-0.818,4.605L252.952,123.153z"/>
			<path style="fill:#FF692D;" d="M158.528,67.851c-0.749,0-1.492-0.093-2.215-0.283l1.014-3.869
				c1.448,0.379,3.158,0.019,4.576-0.966c1.418-0.984,2.355-2.46,2.506-3.949l3.98,0.405c-0.272,2.675-1.805,5.165-4.205,6.83
				C162.45,67.222,160.473,67.851,158.528,67.851z"/>
			<path style="fill:#546CFF;" d="M72.747,242.422c-1.643,0-3.323-0.435-4.874-1.29c-2.559-1.411-4.338-3.73-4.884-6.363
				l3.917-0.812c0.303,1.466,1.387,2.838,2.898,3.671c1.511,0.834,3.251,1.017,4.651,0.491l1.405,3.745
				C74.869,242.238,73.816,242.422,72.747,242.422z"/>
			<path style="fill:#FFCD01;" d="M433.427,229.853l-2.791-2.865c1.072-1.044,1.646-2.696,1.535-4.418
				c-0.11-1.722-0.892-3.286-2.088-4.185l2.4-3.199c2.151,1.614,3.492,4.212,3.68,7.128S435.353,227.977,433.427,229.853z"/>
			<path style="fill:#FFCD01;" d="M336.166,112.102c-0.504-2.642,0.252-5.465,2.076-7.748c1.823-2.283,4.41-3.645,7.097-3.736
				l0.137,3.998c-1.496,0.051-3.031,0.886-4.108,2.234c-1.077,1.349-1.553,3.031-1.271,4.501L336.166,112.102z"/>
		</g>
	</g>
	<g>
		<g>
			<g>
				<g>
					<path style="fill:#D7A4FE;" d="M183.143,206.352v12.44c0,2.598,2.106,4.703,4.703,4.703h110.125v-21.847H187.846
						C185.249,201.648,183.143,203.754,183.143,206.352z"/>
					<path style="fill:#F0DEFF;" d="M241.734,206.352v12.44c0,2.598,2.106,4.703,4.703,4.703h51.534v-21.847h-51.534
						C243.839,201.648,241.734,203.754,241.734,206.352z"/>
				</g>
				
					<rect x="193.789" y="209.521" style="fill:none;stroke:#1D1141;stroke-linecap:round;stroke-linejoin:round;stroke-miterlimit:10;" width="37.322" height="5.742"/>
			</g>
			<g>
				<path style="fill:#546CFF;" d="M300.365,194.042v2.903c0,2.598-2.106,4.703-4.703,4.703H185.537v-12.31h110.125
					C298.259,189.339,300.365,191.445,300.365,194.042z"/>
				<path style="fill:#FFFFFF;" d="M241.775,194.042v2.903c0,2.598-2.106,4.703-4.703,4.703h-51.534v-12.31h51.534
					C239.669,189.339,241.775,191.445,241.775,194.042z"/>
			</g>
			<g>
				<g>
					<path style="fill:#FF692D;" d="M202.197,262.116v36.24c0,2.598,2.106,4.703,4.703,4.703h119.118v-45.647H206.9
						C204.303,257.413,202.197,259.519,202.197,262.116z"/>
					<path style="fill:#F0DEFF;" d="M265.377,262.116v36.24c0,2.598,2.106,4.703,4.703,4.703h55.939v-45.647H270.08
						C267.483,257.413,265.377,259.519,265.377,262.116z"/>
				</g>
				
					<line style="fill:none;stroke:#1D1141;stroke-linecap:round;stroke-linejoin:round;stroke-miterlimit:10;" x1="256.981" y1="264.217" x2="256.981" y2="286.367"/>
				
					<line style="fill:none;stroke:#1D1141;stroke-linecap:round;stroke-linejoin:round;stroke-miterlimit:10;" x1="250.415" y1="264.217" x2="250.415" y2="287.789"/>
			</g>
			<g>
				<g>
					<path style="fill:#FFCD01;" d="M309.967,237.605v15.104c0,2.598-2.106,4.703-4.703,4.703h-116.35v-24.511h116.35
						C307.862,232.902,309.967,235.008,309.967,237.605z"/>
					<path style="fill:#F0DEFF;" d="M248.2,237.605v15.104c0,2.598-2.106,4.703-4.703,4.703h-54.583v-24.511h54.583
						C246.094,232.902,248.2,235.008,248.2,237.605z"/>
				</g>
				<g>
					
						<line style="fill:none;stroke:#FFFFFF;stroke-linecap:round;stroke-linejoin:round;stroke-miterlimit:10;" x1="194.163" y1="238.178" x2="242.951" y2="238.178"/>
					
						<line style="fill:none;stroke:#FFFFFF;stroke-linecap:round;stroke-linejoin:round;stroke-miterlimit:10;" x1="194.163" y1="242.222" x2="242.951" y2="242.222"/>
					
						<line style="fill:none;stroke:#FFFFFF;stroke-linecap:round;stroke-linejoin:round;stroke-miterlimit:10;" x1="194.163" y1="246.266" x2="242.951" y2="246.266"/>
				</g>
			</g>
			<g>
				<path style="fill:#FF692D;" d="M192.34,228.199L192.34,228.199c0,2.598,2.106,4.704,4.703,4.704h116.35v-9.407h-116.35
					C194.446,223.495,192.34,225.601,192.34,228.199z"/>
				<path style="fill:#FFFFFF;" d="M254.107,228.199L254.107,228.199c0,2.598,2.106,4.704,4.703,4.704h54.583v-9.407h-54.583
					C256.213,223.495,254.107,225.601,254.107,228.199z"/>
			</g>
			<g>
				<path style="fill:#1D1141;" d="M195.632,307.764v7.045c0,2.598,2.106,4.703,4.703,4.703h119.118V303.06H200.336
					C197.738,303.06,195.632,305.166,195.632,307.764z"/>
				<path style="fill:#FFC9B1;" d="M258.812,307.764v7.045c0,2.598,2.106,4.703,4.703,4.703h55.939V303.06h-55.939
					C260.918,303.06,258.812,305.166,258.812,307.764z"/>
			</g>
			<g>
				<path style="fill:#D7A4FE;" d="M187.727,324.215v14.044c0,2.598,2.106,4.703,4.703,4.703h122.96v-23.451H192.43
					C189.833,319.512,187.727,321.618,187.727,324.215z"/>
				<path style="fill:#FFC9B1;" d="M252.867,324.215v14.044c0,2.598,2.106,4.703,4.703,4.703h57.82v-23.451h-57.82
					C254.973,319.512,252.867,321.618,252.867,324.215z"/>
			</g>
			<g>
				<path style="fill:#FFCD01;" d="M193.711,347.667v1.75c0,2.598,2.106,4.703,4.703,4.703h122.961v-11.157H198.415
					C195.817,342.963,193.711,345.069,193.711,347.667z"/>
				<path style="fill:#FFC9B1;" d="M258.852,347.667v1.75c0,2.598,2.106,4.703,4.703,4.703h57.82v-11.157h-57.82
					C260.957,342.963,258.852,345.069,258.852,347.667z"/>
			</g>
			<g>
				<path style="fill:#546CFF;" d="M193.711,358.824v9.001c0,2.598,2.106,4.703,4.703,4.703h122.961V354.12H198.415
					C195.817,354.12,193.711,356.226,193.711,358.824z"/>
				<path style="fill:#F0DEFF;" d="M258.852,358.824v9.001c0,2.598,2.106,4.703,4.703,4.703h57.82V354.12h-57.82
					C260.957,354.12,258.852,356.226,258.852,358.824z"/>
			</g>
		</g>
		<g>
			<g>
				<g>
					<path style="fill:#FFCD01;" d="M361.065,347.718v10.823c0,2.663-2.159,4.822-4.822,4.822H242.33v-20.467h113.913
						C358.905,342.896,361.065,345.055,361.065,347.718z"/>
					<path style="fill:#FFFFFF;" d="M300.48,347.718v10.823c0,2.663-2.159,4.822-4.822,4.822H242.33v-20.467h53.328
						C298.322,342.896,300.48,345.055,300.48,347.718z"/>
				</g>
				<g>
					
						<line style="fill:none;stroke:#F0DEFF;stroke-linecap:round;stroke-linejoin:round;stroke-miterlimit:10;" x1="247.011" y1="347.514" x2="295.799" y2="347.514"/>
					
						<line style="fill:none;stroke:#F0DEFF;stroke-linecap:round;stroke-linejoin:round;stroke-miterlimit:10;" x1="247.011" y1="351.559" x2="295.799" y2="351.559"/>
				</g>
			</g>
			<g>
				<g>
					<path style="fill:#FFCD01;" d="M226.224,286.171v14.197c0,2.663,2.159,4.822,4.822,4.822h109.218v-23.841H231.046
						C228.383,281.348,226.224,283.507,226.224,286.171z"/>
					<path style="fill:#F0DEFF;" d="M284.413,286.171v14.197c0,2.663,2.159,4.822,4.822,4.822h51.029v-23.841h-51.029
						C286.572,281.348,284.413,283.507,284.413,286.171z"/>
				</g>
				<g>
					
						<line style="fill:none;stroke:#FFFFFF;stroke-linecap:round;stroke-linejoin:round;stroke-miterlimit:10;" x1="290.127" y1="286.825" x2="334.551" y2="286.825"/>
					
						<line style="fill:none;stroke:#FFFFFF;stroke-linecap:round;stroke-linejoin:round;stroke-miterlimit:10;" x1="290.127" y1="290.869" x2="334.551" y2="290.869"/>
					
						<line style="fill:none;stroke:#FFFFFF;stroke-linecap:round;stroke-linejoin:round;stroke-miterlimit:10;" x1="290.127" y1="294.914" x2="334.551" y2="294.914"/>
				</g>
				
					<line style="fill:none;stroke:#1D1141;stroke-linecap:round;stroke-linejoin:round;stroke-miterlimit:10;" x1="277.182" y1="286.367" x2="277.182" y2="300.746"/>
				
					<line style="fill:none;stroke:#1D1141;stroke-linecap:round;stroke-linejoin:round;stroke-miterlimit:10;" x1="271.405" y1="286.367" x2="271.405" y2="300.746"/>
			</g>
			<g>
				<path style="fill:#546CFF;" d="M357.891,338.074L357.891,338.074c0,2.663-2.159,4.822-4.822,4.822H232.72v-9.644h120.349
					C355.732,333.252,357.891,335.411,357.891,338.074z"/>
				<path style="fill:#F0DEFF;" d="M294.023,338.074L294.023,338.074c0,2.663-2.159,4.822-4.822,4.822H232.72v-9.644h56.481
					C291.864,333.252,294.023,335.411,294.023,338.074z"/>
			</g>
			<g>
				<g>
					<path style="fill:#D7A4FE;" d="M362.212,310.012v18.418c0,2.663-2.159,4.822-4.822,4.822H237.04v-28.062H357.39
						C360.053,305.189,362.212,307.348,362.212,310.012z"/>
					<path style="fill:#FFFFFF;" d="M298.343,310.012v18.418c0,2.663-2.159,4.822-4.822,4.822H237.04v-28.062h56.481
						C296.185,305.189,298.343,307.348,298.343,310.012z"/>
				</g>
				<g>
					
						<line style="fill:none;stroke:#F0DEFF;stroke-linecap:round;stroke-linejoin:round;stroke-miterlimit:10;" x1="242.33" y1="310.761" x2="291.118" y2="310.761"/>
					
						<line style="fill:none;stroke:#F0DEFF;stroke-linecap:round;stroke-linejoin:round;stroke-miterlimit:10;" x1="242.33" y1="314.805" x2="291.118" y2="314.805"/>
					
						<line style="fill:none;stroke:#F0DEFF;stroke-linecap:round;stroke-linejoin:round;stroke-miterlimit:10;" x1="242.33" y1="318.849" x2="291.118" y2="318.849"/>
				</g>
			</g>
		</g>
		<g>
			<g>
				<path style="fill:#FF692D;" d="M281.093,377.284v2.983c0,2.576-2.088,4.663-4.664,4.663H166.265v-12.309H276.43
					C279.005,372.621,281.093,374.709,281.093,377.284z"/>
				<path style="fill:#F0DEFF;" d="M222.502,377.284v2.983c0,2.576-2.088,4.663-4.663,4.663h-51.574v-12.309h51.574
					C220.415,372.621,222.502,374.709,222.502,377.284z"/>
			</g>
			<g>
				<g>
					<path style="fill:#FF692D;" d="M287.852,389.594v12.52c0,2.576-2.088,4.663-4.664,4.663H162.084V384.93h121.105
						C285.764,384.93,287.852,387.018,287.852,389.594z"/>
					<path style="fill:#F0DEFF;" d="M223.679,389.594v12.52c0,2.576-2.088,4.663-4.663,4.663h-56.932V384.93h56.932
						C221.591,384.93,223.679,387.018,223.679,389.594z"/>
				</g>
				<g>
					
						<line style="fill:none;stroke:#FFFFFF;stroke-linecap:round;stroke-linejoin:round;stroke-miterlimit:10;" x1="166.537" y1="389.729" x2="215.325" y2="389.729"/>
					
						<line style="fill:none;stroke:#FFFFFF;stroke-linecap:round;stroke-linejoin:round;stroke-miterlimit:10;" x1="166.537" y1="393.774" x2="215.325" y2="393.774"/>
					
						<line style="fill:none;stroke:#FFFFFF;stroke-linecap:round;stroke-linejoin:round;stroke-miterlimit:10;" x1="166.537" y1="397.818" x2="215.325" y2="397.818"/>
				</g>
				
					<line style="fill:none;stroke:#1D1141;stroke-linecap:round;stroke-linejoin:round;stroke-miterlimit:10;" x1="233.938" y1="389.729" x2="233.938" y2="401.941"/>
				
					<line style="fill:none;stroke:#1D1141;stroke-linecap:round;stroke-linejoin:round;stroke-miterlimit:10;" x1="239.546" y1="389.729" x2="239.546" y2="401.941"/>
			</g>
			<g>
				<path style="fill:#FFCD01;" d="M278.385,411.441v0.08c0,2.576-2.088,4.663-4.663,4.663h-116.39v-9.407h116.39
					C276.297,406.777,278.385,408.865,278.385,411.441z"/>
				<path style="fill:#FFFFFF;" d="M216.617,411.441v0.08c0,2.576-2.088,4.663-4.663,4.663h-54.623v-9.407h54.623
					C214.53,406.777,216.617,408.865,216.617,411.441z"/>
			</g>
			<g>
				<g>
					<path style="fill:#FFCD01;" d="M288.8,420.848v12.033c0,2.576-2.088,4.663-4.663,4.663H161.136v-21.36h123.001
						C286.712,416.184,288.8,418.272,288.8,420.848z"/>
					<path style="fill:#F0DEFF;" d="M223.66,420.848v12.033c0,2.576-2.088,4.663-4.663,4.663h-57.86v-21.36h57.86
						C221.572,416.184,223.66,418.272,223.66,420.848z"/>
				</g>
				
					<line style="fill:none;stroke:#1D1141;stroke-linecap:round;stroke-linejoin:round;stroke-miterlimit:10;" x1="255.025" y1="420.4" x2="255.025" y2="433.459"/>
				
					<line style="fill:none;stroke:#1D1141;stroke-linecap:round;stroke-linejoin:round;stroke-miterlimit:10;" x1="250.319" y1="420.4" x2="250.319" y2="433.459"/>
				
					<line style="fill:none;stroke:#1D1141;stroke-linecap:round;stroke-linejoin:round;stroke-miterlimit:10;" x1="245.624" y1="420.4" x2="245.624" y2="433.459"/>
			</g>
		</g>
		<g>
			<g>
				<g>
					<g>
						<path style="fill:#D7A4FE;" d="M390.66,368.026v7.125c0,2.576-2.088,4.663-4.663,4.663H266.838v-16.452h119.158
							C388.572,363.363,390.66,365.451,390.66,368.026z"/>
						<path style="fill:#FFFFFF;" d="M327.48,368.026v7.125c0,2.576-2.088,4.663-4.663,4.663h-55.979v-16.452h55.979
							C325.392,363.363,327.48,365.451,327.48,368.026z"/>
					</g>
					<g>
						
							<line style="fill:none;stroke:#F0DEFF;stroke-linecap:round;stroke-linejoin:round;stroke-miterlimit:10;" x1="273.949" y1="367.545" x2="322.738" y2="367.545"/>
						
							<line style="fill:none;stroke:#F0DEFF;stroke-linecap:round;stroke-linejoin:round;stroke-miterlimit:10;" x1="273.949" y1="371.589" x2="322.738" y2="371.589"/>
					</g>
				</g>
				<g>
					<path style="fill:#D7A4FE;" d="M252.401,407.779v1.981c0,2.576,2.088,4.663,4.663,4.663h123.001v-11.307H257.064
						C254.489,403.116,252.401,405.204,252.401,407.779z"/>
					<path style="fill:#F0DEFF;" d="M317.541,407.779v1.981c0,2.576,2.088,4.663,4.663,4.663h57.86v-11.307h-57.86
						C319.629,403.116,317.541,405.204,317.541,407.779z"/>
				</g>
				<g>
					<g>
						<path style="fill:#1D1141;" d="M272.133,384.478v13.974c0,2.576,2.088,4.663,4.663,4.663h123.001v-23.301H276.797
							C274.221,379.815,272.133,381.902,272.133,384.478z"/>
						<path style="fill:#FFFFFF;" d="M337.273,384.478v13.974c0,2.576,2.088,4.663,4.663,4.663h57.86v-23.301h-57.86
							C339.361,379.815,337.273,381.902,337.273,384.478z"/>
					</g>
					<g>
						
							<line style="fill:none;stroke:#F0DEFF;stroke-linecap:round;stroke-linejoin:round;stroke-miterlimit:10;" x1="344.141" y1="385.819" x2="392.93" y2="385.819"/>
						
							<line style="fill:none;stroke:#F0DEFF;stroke-linecap:round;stroke-linejoin:round;stroke-miterlimit:10;" x1="344.141" y1="389.863" x2="392.93" y2="389.863"/>
						
							<line style="fill:none;stroke:#F0DEFF;stroke-linecap:round;stroke-linejoin:round;stroke-miterlimit:10;" x1="344.141" y1="393.907" x2="392.93" y2="393.907"/>
					</g>
					
						<rect x="282.073" y="387.656" style="fill:none;stroke:#FFFFFF;stroke-linecap:round;stroke-linejoin:round;stroke-miterlimit:10;" width="39.302" height="7.118"/>
				</g>
				<g>
					<g>
						<path style="fill:#546CFF;" d="M260.729,419.051v13.866c0,2.555,2.072,4.627,4.627,4.627h122.047v-23.121H265.356
							C262.801,414.423,260.729,416.495,260.729,419.051z"/>
						<path style="fill:#F0DEFF;" d="M325.365,419.051v13.866c0,2.555,2.072,4.627,4.627,4.627h57.412v-23.121h-57.412
							C327.436,414.423,325.365,416.495,325.365,419.051z"/>
					</g>
					
						<rect x="270.084" y="422.692" style="fill:none;stroke:#1D1141;stroke-linecap:round;stroke-linejoin:round;stroke-miterlimit:10;" width="44.073" height="5.785"/>
				</g>
			</g>
			<g>
				<g>
					<path style="fill:#1D1141;" d="M339.187,424.074v8.807c0,2.576,2.088,4.663,4.663,4.663h110.165V419.41H343.851
						C341.275,419.41,339.187,421.498,339.187,424.074z"/>
					<path style="fill:#FFFFFF;" d="M397.778,424.074v8.807c0,2.576,2.088,4.663,4.663,4.663h51.574V419.41h-51.574
						C399.866,419.41,397.778,421.498,397.778,424.074z"/>
				</g>
				<g>
					
						<line style="fill:none;stroke:#F0DEFF;stroke-linecap:round;stroke-linejoin:round;stroke-miterlimit:10;" x1="404.045" y1="424.433" x2="449.378" y2="424.433"/>
					
						<line style="fill:none;stroke:#F0DEFF;stroke-linecap:round;stroke-linejoin:round;stroke-miterlimit:10;" x1="404.045" y1="428.477" x2="449.378" y2="428.477"/>
				</g>
				
					<line style="fill:none;stroke:#1D1141;stroke-linecap:round;stroke-linejoin:round;stroke-miterlimit:10;" x1="387.921" y1="424.433" x2="387.921" y2="433.459"/>
				
					<line style="fill:none;stroke:#1D1141;stroke-linecap:round;stroke-linejoin:round;stroke-miterlimit:10;" x1="383.314" y1="424.433" x2="383.314" y2="433.459"/>
			</g>
		</g>
	</g>
	<g>
		<g>
			<g>
				<path style="fill:#FFC9B1;" d="M232.241,420.063h-42.94c-5.85-17.16-10.48-36.07-13.87-52.12c-4.55-21.6-6.86-38.03-6.86-38.03
					l-14.25-63.38l42.05-38.62c0,0,11.61,59.68,17.02,93.68c2.19,13.7,4.74,27.96,7.24,41.22
					C226.561,394.203,232.241,420.063,232.241,420.063z"/>
				<path style="fill:none;stroke:#1D1141;stroke-linecap:round;stroke-linejoin:round;stroke-miterlimit:10;" d="M196.786,315.033
					c2.813,3.509,8.196,4.644,12.186,2.569"/>
			</g>
			<g>
				<path style="fill:#FFFFFF;" d="M232.241,420.063h-42.94c-5.85-17.16-10.48-36.07-13.87-52.12l45.2-5.13
					C226.561,394.203,232.241,420.063,232.241,420.063z"/>
				<path style="fill:none;stroke:#1D1141;stroke-linecap:round;stroke-linejoin:round;stroke-miterlimit:10;" d="M181.168,381.777
					c13.8-1.147,27.6-2.294,41.4-3.441"/>
			</g>
			<g>
				<path style="fill:#FF692D;" d="M186.79,415.446l6.491,22.098h44.993c1.54,0,2.415-1.762,1.484-2.989l-0.736-0.97
					c-2.826-3.725-4.784-8.033-5.734-12.611l-1.864-8.985c-0.895-4.313-6.44-5.584-9.125-2.092l-4.892,6.365L186.79,415.446z"/>
				<path style="fill:none;stroke:#1D1141;stroke-linecap:round;stroke-linejoin:round;stroke-miterlimit:10;" d="M193.378,434.184
					c12.864,0.359,26.23,1.418,39.093,1.777c1.215-2.493,4.902-3.33,7.075-1.607"/>
				<path style="fill:none;stroke:#1D1141;stroke-linecap:round;stroke-linejoin:round;stroke-miterlimit:10;" d="M232.404,419.008
					c-3.265,0.92-6.53,1.841-9.796,2.761c3.447,0.383,6.894,0.765,10.341,1.148c-2.79,1.153-5.581,2.307-8.371,3.46
					c3.326-0.011,6.651-0.022,9.976-0.033"/>
			</g>
		</g>
		<g>
			<g>
				<path style="fill:#FFC9B1;" d="M151.091,422.093h-41.26c0,0-1.47-26.66-3.09-54.14c-0.79-13.51-1.62-27.21-2.34-38.04
					c-2.17-32.86-1.86-72.04,1.64-100.83l42.33,48.98l-0.79,51.85c0,0,2.04,16.6,3.23,39.16
					C151.661,385.013,152.091,403.933,151.091,422.093z"/>
				<path style="fill:none;stroke:#1D1141;stroke-linecap:round;stroke-linejoin:round;stroke-miterlimit:10;" d="M103.045,320.722
					c3.029,1.235,6.923-0.618,7.875-3.747"/>
			</g>
			<g>
				<path style="fill:#FFFFFF;" d="M150.811,369.073c0.85,15.94,1.28,34.86,0.28,53.02h-41.26c0,0-1.47-26.66-3.09-54.14
					L150.811,369.073z"/>
				<path style="fill:none;stroke:#1D1141;stroke-linecap:round;stroke-linejoin:round;stroke-miterlimit:10;" d="M108.667,381.728
					c13.174,0.275,26.348,0.549,39.522,0.824"/>
			</g>
			<g>
				<path style="fill:#FF692D;" d="M115.968,410.359l3.271,6.084l33.14-2.048v22.785h-52.306c-1.673,0-2.489-2.043-1.276-3.195
					l1.168-1.11c4.819-4.578,7.922-10.67,8.79-17.26l0.531-4.033C109.739,408.148,114.327,407.308,115.968,410.359z"/>
				<path style="fill:none;stroke:#1D1141;stroke-linecap:round;stroke-linejoin:round;stroke-miterlimit:10;" d="M101.18,432.263
					c0.787,0.782,1.573,1.564,2.36,2.346c16.156-0.443,32.035-0.732,48.19-1.175"/>
				<path style="fill:none;stroke:#1D1141;stroke-linecap:round;stroke-linejoin:round;stroke-miterlimit:10;" d="M107.764,420.4
					c2.258,0.549,4.517,1.099,6.775,1.648c-2.635,0.514-5.27,1.028-7.905,1.542c1.629,0.737,3.258,1.474,4.888,2.211
					c-2.436,0.387-4.873,0.773-7.309,1.16"/>
			</g>
		</g>
		<g>
			<path style="fill:#546CFF;" d="M220.12,287.961l-29.335-90.941l-77.689-3.592c0,0-16.855,36.975-14.64,103.571l56.98,0.831
				l1.866,6.823L220.12,287.961z"/>
			
				<line style="fill:none;stroke:#1D1141;stroke-linecap:round;stroke-linejoin:round;stroke-miterlimit:10;" x1="155.437" y1="297.83" x2="145.611" y2="243.485"/>
			
				<line style="fill:none;stroke:#1D1141;stroke-linecap:round;stroke-linejoin:round;stroke-miterlimit:10;" x1="98.457" y1="286.478" x2="152.966" y2="287.789"/>
			
				<line style="fill:none;stroke:#1D1141;stroke-linecap:round;stroke-linejoin:round;stroke-miterlimit:10;" x1="154.683" y1="293.659" x2="216.23" y2="279.074"/>
			<path style="fill:none;stroke:#1D1141;stroke-linecap:round;stroke-linejoin:round;stroke-miterlimit:10;" d="M145.7,286.899
				c0.858-7.62,2.116-15.194,3.767-22.682"/>
			<path style="fill:none;stroke:#1D1141;stroke-linecap:round;stroke-linejoin:round;stroke-miterlimit:10;" d="M190.979,212.077
				c5.778,22.83,11.556,45.66,17.333,68.49"/>
			<path style="fill:none;stroke:#1D1141;stroke-linecap:round;stroke-linejoin:round;stroke-miterlimit:10;" d="M111.26,201.482
				c22.977,0.537,45.954,1.074,68.931,1.611"/>
			<path style="fill:none;stroke:#1D1141;stroke-linecap:round;stroke-linejoin:round;stroke-miterlimit:10;" d="M174.575,203.044
				c3.291,10.429,10.626,19.525,20.12,24.952"/>
			<path style="fill:none;stroke:#1D1141;stroke-linecap:round;stroke-linejoin:round;stroke-miterlimit:10;" d="M118.245,201.888
				c-4.239,5.252-8.479,10.503-12.718,15.755"/>
		</g>
		<g>
			<path style="fill:#FFC9B1;" d="M58.592,178.509c2.992,6.586,11.937,15.158,17.679,18.511
				c10.702,6.248,27.422,16.597,36.096-1.266l12.304-30.412L58.592,178.509z"/>
			<path style="fill:none;stroke:#1D1141;stroke-linecap:round;stroke-linejoin:round;stroke-miterlimit:10;" d="M90.689,181.469
				c1.393,2.783,1.616,6.13,0.604,9.074c-1.011,2.944-3.244,5.446-6.053,6.786"/>
			<path style="fill:none;stroke:#1D1141;stroke-linecap:round;stroke-linejoin:round;stroke-miterlimit:10;" d="M105.857,179.908
				c1.933,0.103,3.821,0.915,5.226,2.247c1.405,1.332,2.316,3.174,2.522,5.1"/>
		</g>
		<g>
			<path style="fill:#1D1141;" d="M157.537,124.432c0,0,13.215,2.32,25.734,5.065c12.519,2.745,32.721,11.696,32.721,11.696
				l-19.405,26.901l-6.327-5.558l0.525,34.484l-78.418-1.266l7.489-23.887l-9.472-27.519c9.112-12.989,17.112-13.908,24.406-15.919
				C142.084,126.418,157.537,124.432,157.537,124.432z"/>
			<path style="fill:none;stroke:#FFFFFF;stroke-linecap:round;stroke-linejoin:round;stroke-miterlimit:10;" d="M190.983,163.515
				c-1.493-1.684-2.986-3.368-4.479-5.052c-3.304-3.727-5.592-8.715-5.415-13.693c0.177-4.977,2.546-9.838,6.357-13.044"/>
			<path style="fill:none;stroke:#FFFFFF;stroke-linecap:round;stroke-linejoin:round;stroke-miterlimit:10;" d="M119.634,171.012
				c3.242-13.288,6.484-26.575,9.726-39.863"/>
			<path style="fill:none;stroke:#FFFFFF;stroke-linecap:round;stroke-linejoin:round;stroke-miterlimit:10;" d="M141.086,128.663
				c-0.161,4.056,1.443,8.152,4.317,11.019c4.451,4.441,11.686,5.563,17.517,3.21c5.831-2.353,10.14-7.836,11.658-13.938"/>
		</g>
		<g>
			<path style="fill:#FFCD01;" d="M165.008,99.165c-3.123-3.369-7.753-4.629-12.342-4.416c-4.783,0.222-9.566,0.444-14.349,0.666
				c0.576,1.591,1.145,3.156,1.712,4.715c1.821-0.348,3.642-0.696,5.463-1.044c-1.517,1.184-3.033,2.368-4.55,3.552
				c1.635,4.488,3.256,8.928,4.925,13.537l11.593,3.439c4.594-0.01,8.915-3.305,10.416-7.647
				C169.379,107.627,168.132,102.534,165.008,99.165z"/>
			<g>
				<path style="fill:#FFC9B1;" d="M169.153,128.618c-2.042-0.577-4.186-1.154-6.229-1.731c-0.282-2.509-0.69-5.249-0.971-7.758
					c2.138-0.163,4.142-1.665,4.803-3.704c0.662-2.04-0.125-4.489-1.907-5.682c-1.782-1.193-4.416-0.951-5.884,0.613
					c-1.445-2.591-2.891-5.504-4.337-8.096c-1.176-0.041-2.427-0.173-3.603-0.214c-2.323-0.082-4.6,1.42-5.52,3.554
					c-1.19,2.761-1.713,5.646-2.497,8.548c-0.548,2.029,0.385,4.345,1.962,5.734c1.577,1.389,3.679,2.003,5.732,2.451
					c0.102,1.57,0.025,3.11,0.128,4.68c-2.003,0.498-3.923,1.138-5.925,1.637c0.574,3.868,2.652,7.35,6.126,9.147
					c3.473,1.796,7.81,1.815,11.299,0.049C165.82,136.078,168.545,132.481,169.153,128.618z"/>
				<circle style="fill:#1D1141;" cx="153.222" cy="112.256" r="0.8"/>
				<circle style="fill:#1D1141;" cx="145.397" cy="110.714" r="0.8"/>
				<path style="fill:none;stroke:#1D1141;stroke-linecap:round;stroke-linejoin:round;stroke-miterlimit:10;" d="M161.648,113.417
					c0.793-0.342,1.585-0.684,2.378-1.025"/>
				<path style="fill:none;stroke:#1D1141;stroke-linecap:round;stroke-linejoin:round;stroke-miterlimit:10;" d="M150.402,122.383
					c1.794,0.245,3.635,0.131,5.385-0.333"/>
				<path style="fill:none;stroke:#1D1141;stroke-linecap:round;stroke-linejoin:round;stroke-miterlimit:10;" d="M161.201,119.138
					c0.411-0.034,0.823-0.068,1.234-0.101"/>
				<path style="fill:none;stroke:#1D1141;stroke-linecap:round;stroke-linejoin:round;stroke-miterlimit:10;" d="M148.754,110.754
					c-0.402,0.969-0.805,1.938-1.207,2.906c0.391,0.028,0.782,0.056,1.173,0.084"/>
				<path style="fill:none;stroke:#1D1141;stroke-linecap:round;stroke-linejoin:round;stroke-miterlimit:10;" d="M144.703,107.202
					c0.75,0.04,1.5,0.08,2.251,0.12"/>
				<path style="fill:none;stroke:#1D1141;stroke-linecap:round;stroke-linejoin:round;stroke-miterlimit:10;" d="M151.848,106.625
					c0.838,0.029,1.676,0.058,2.515,0.087"/>
				<path style="fill:none;stroke:#1D1141;stroke-linecap:round;stroke-linejoin:round;stroke-miterlimit:10;" d="M149.456,115.482
					c0.176,0.387,0.605,0.643,1.029,0.614c0.424-0.029,0.815-0.34,0.937-0.747"/>
			</g>
		</g>
		<g>
			<path style="fill:#FFC9B1;" d="M236.008,159.537c-5.714-7.268-13.492-12.607-21.67-16.92l-16.753,23.833
				c1.507,1.358,3.014,2.717,4.521,4.075c-4.929,3.937-9.886,7.642-14.815,11.579c-5.287,4.222-8.881,10.154-11.031,16.569
				c-0.296,0.882,0.135,2.114,0.754,2.809s1.552,1.097,2.482,1.073c-0.339,1.036-0.074,2.23,0.662,3.035
				c0.736,0.805,1.918,1.173,2.98,0.927c-0.232,1.013,0.196,2.03,0.962,2.733c0.765,0.703,1.916,0.955,2.906,0.638
				c-0.104,0.872,0.285,1.618,0.867,2.276c0.582,0.658,1.451,1.052,2.329,1.056c2.014,0.01,4.225,0.464,6.225,0.697
				c0.549-1.059,1.226-2.204,1.775-3.262c-0.048-0.185-0.095-0.369-0.143-0.554c-0.42-0.13-0.877-0.14-1.302-0.028
				c2.248-2.577,4.432-5.715,6.68-8.293c5.938-6.808,16.289-7.996,24.439-11.892c5.474-2.617,10.042-7.295,11.631-13.15
				C241.095,170.88,239.758,164.306,236.008,159.537z"/>
			<path style="fill:none;stroke:#1D1141;stroke-linecap:round;stroke-linejoin:round;stroke-miterlimit:10;" d="M201.555,170.852
				c3.858-2.818,7.715-5.636,11.573-8.454"/>
			<path style="fill:none;stroke:#1D1141;stroke-linecap:round;stroke-linejoin:round;stroke-miterlimit:10;" d="M194.263,211.911
				c1.005-0.764,2.011-1.528,3.016-2.291"/>
			<path style="fill:none;stroke:#1D1141;stroke-linecap:round;stroke-linejoin:round;stroke-miterlimit:10;" d="M186.907,208.771
				c0,0.745,0,1.49,0,2.235"/>
			<path style="fill:none;stroke:#1D1141;stroke-linecap:round;stroke-linejoin:round;stroke-miterlimit:10;" d="M183.143,205.477
				c-0.039,0.51-0.078,1.02-0.118,1.529"/>
			<path style="fill:none;stroke:#1D1141;stroke-linecap:round;stroke-linejoin:round;stroke-miterlimit:10;" d="M179.378,201.712
				c-0.078,0.392-0.157,0.784-0.235,1.176"/>
		</g>
		<g>
			<g>
				<path style="fill:#FF692D;" d="M89.015,155.342l-18.957,25.385l-9.803-57.918c-0.328-1.937,0.152-3.923,1.327-5.496
					l17.117-22.921L89.015,155.342z"/>
				<g>
					<polygon style="fill:#FF692D;" points="121.623,178.64 70.913,185.774 60.597,124.824 111.308,117.69 					"/>
					
						<line style="fill:none;stroke:#1D1141;stroke-linecap:round;stroke-linejoin:round;stroke-miterlimit:10;" x1="66.672" y1="126.889" x2="75.147" y2="179.867"/>
					
						<line style="fill:none;stroke:#1D1141;stroke-linecap:round;stroke-linejoin:round;stroke-miterlimit:10;" x1="82.005" y1="139.887" x2="102.285" y2="136.889"/>
					
						<line style="fill:none;stroke:#1D1141;stroke-linecap:round;stroke-linejoin:round;stroke-miterlimit:10;" x1="83.378" y1="144.771" x2="102.285" y2="142.026"/>
				</g>
				<g>
					<path style="fill:#F0DEFF;" d="M111.308,117.69l-0.561-4.342l-25.369,1.659l-3.373-21l-3.306,0.385L61.569,117.46
						c-2.297,3.093,0.287,7.421,4.1,6.866L111.308,117.69z"/>
					<path style="fill:none;stroke:#1D1141;stroke-linecap:round;stroke-linejoin:round;stroke-miterlimit:10;" d="M82.005,94.007
						l-17.407,26.058c0,0,4.309-3.41,20.78-5.058"/>
				</g>
			</g>
			<g>
				<path style="fill:#FFC9B1;" d="M76.546,172.168c-0.079-0.524-0.162-1.059-0.41-1.528c-0.247-0.469-0.866-0.799-1.395-0.842
					c-0.848,4.403-1.696,8.805-2.544,13.208c-1.639-6.512-3.52-12.785-5.159-19.297c-0.222-0.883-0.875-1.757-1.782-1.841
					c-0.044,0.941-0.324,1.608-0.367,2.549c0.109-0.466-0.562-1.087-1.037-1.03c-1.671,4.986-3.589,10.136-5.26,15.122
					c3.623,7.319,10.085,12.892,17.82,15.513l2.276-7.724C77.974,181.588,77.26,176.878,76.546,172.168z"/>
				<path style="fill:none;stroke:#1D1141;stroke-linecap:round;stroke-linejoin:round;stroke-miterlimit:10;" d="M64.863,164.184
					c-0.042,5.529-0.084,11.059-0.126,16.588"/>
				<path style="fill:none;stroke:#1D1141;stroke-linecap:round;stroke-linejoin:round;stroke-miterlimit:10;" d="M60.72,178.165
					c0.953-3.762,1.906-7.523,2.858-11.285"/>
				<path style="fill:none;stroke:#1D1141;stroke-linecap:round;stroke-linejoin:round;stroke-miterlimit:10;" d="M72.201,181.83
					c-0.157,0.706-0.314,1.412-0.471,2.118"/>
			</g>
		</g>
	</g>
	<g>
		<g>
			<path style="fill:#1D1141;" d="M350.403,361.363l-0.16-0.251c-3.918-6.129-5.031-13.64-3.059-20.642l2.665-9.464l-40.354-10
				c0,0-8.032,24.225-7.723,23.805c0.309-0.421,24.373,19.366,24.373,19.366h22.717
				C350.307,364.178,351.181,362.581,350.403,361.363z"/>
			<path style="fill:none;stroke:#FFFFFF;stroke-linecap:round;stroke-linejoin:round;stroke-miterlimit:10;" d="M309.53,349.874
				c1.296-1.447,2.592-2.893,3.888-4.34c-0.092,2.804-0.184,5.608-0.276,8.412c-0.005-0.234-0.01-0.469-0.014-0.703"/>
			<path style="fill:none;stroke:#FFFFFF;stroke-linecap:round;stroke-linejoin:round;stroke-miterlimit:10;" d="M332.693,340.489
				c3.357,0.327,6.715,0.654,10.072,0.982"/>
			<path style="fill:none;stroke:#FFFFFF;stroke-linecap:round;stroke-linejoin:round;stroke-miterlimit:10;" d="M331.966,344.977
				c3.439,0.322,6.877,0.643,10.315,0.965"/>
			<path style="fill:none;stroke:#FFFFFF;stroke-linecap:round;stroke-linejoin:round;stroke-miterlimit:10;" d="M332.214,349.378
				c3.683,0.286,7.367,0.573,11.05,0.86"/>
		</g>
		<g>
			<path style="fill:#1D1141;" d="M381.26,382.477l6.661,24.223l47.17,14.48c1.689,0.518,3.049-1.435,1.977-2.839l0,0
				c-6.408-8.39-11.114-17.953-13.852-28.149l-4.014-14.95L381.26,382.477z"/>
			<path style="fill:none;stroke:#FFFFFF;stroke-linecap:round;stroke-linejoin:round;stroke-miterlimit:10;" d="M397.378,409.006
				c0.501-1.095,1.001-2.19,1.502-3.285c1.273,1.899,2.546,3.799,3.819,5.698"/>
			<path style="fill:none;stroke:#FFFFFF;stroke-linecap:round;stroke-linejoin:round;stroke-miterlimit:10;" d="M417.621,397.522
				c2.113-0.341,4.226-0.682,6.34-1.024"/>
			<path style="fill:none;stroke:#FFFFFF;stroke-linecap:round;stroke-linejoin:round;stroke-miterlimit:10;" d="M419.269,402.004
				c2.194-0.327,4.388-0.653,6.582-0.979"/>
			<path style="fill:none;stroke:#FFFFFF;stroke-linecap:round;stroke-linejoin:round;stroke-miterlimit:10;" d="M420.693,406.982
				c2.582-0.576,5.164-1.152,7.746-1.729"/>
		</g>
		<g>
			<path style="fill:#FF692D;" d="M277.379,248.413c1.352,31.005,12.473,35.586,46.266,35.586c0,0-7.604,13.671-16.553,40.016
				l42.341,14.874l14.262-30.342l1.92,4.16c0,0,1.383,31.557,14.162,74.487l45.158-1.992c0,0-12.82-57.959-17.217-78.959
				c-4.397-21-11.509-33.879-24.453-49.852c-12.944-15.972-36.402-40.063-36.402-40.063L277.379,248.413z"/>
			<path style="fill:none;stroke:#1D1141;stroke-linecap:round;stroke-linejoin:round;stroke-miterlimit:10;" d="M323.389,284.541
				c2.736-6.151,6.102-12.022,10.028-17.49"/>
			<path style="fill:none;stroke:#1D1141;stroke-linecap:round;stroke-linejoin:round;stroke-miterlimit:10;" d="M364.317,248.366
				c6.266,1.929,11.595,6.699,14.206,12.712c2.611,6.014,2.455,13.164-0.414,19.059c-4.893,10.053-9.721,20.14-14.71,30.145"/>
			<path style="fill:none;stroke:#1D1141;stroke-linecap:round;stroke-linejoin:round;stroke-miterlimit:10;" d="M283.964,244.818
				c-1.509,7.612,0.906,15.895,6.269,21.503c5.363,5.608,13.529,8.391,21.201,7.224c8.693-1.322,16.353-6.505,22.007-13.24
				c-0.559,1.662,0.565,3.683,2.271,4.086c1.707,0.403,3.616-0.902,3.859-2.639c-9.276,21.14-18.551,42.281-27.827,63.421"/>
			<path style="fill:none;stroke:#1D1141;stroke-linecap:round;stroke-linejoin:round;stroke-miterlimit:10;" d="M368.477,299.422
				c4.264,29.498,10.702,58.681,19.246,87.234"/>
			<path style="fill:none;stroke:#1D1141;stroke-linecap:round;stroke-linejoin:round;stroke-miterlimit:10;" d="M393.862,295.808
				c3.253,2.026,7.738,1.842,10.815-0.442"/>
		</g>
		<path style="fill:#1D1141;" d="M316.558,149.028c-3.694-3.479-9.121-4.997-14.173-4.532c-5.052,0.465-9.886,2.984-13.161,6.86
			c-2.844,3.365-5.352,7.193-6.605,11.417c-0.261,0.879-0.696,1.802-0.27,2.613c0.427,0.811,1.385,1.308,2.294,1.19
			c-0.313,0.642-0.269,1.465,0.219,1.986c0.488,0.522,1.307,0.701,1.969,0.432c-0.004,0.794,0.476,1.608,1.207,1.917
			c0.731,0.309,1.641,0.136,2.207-0.42c0.784,1.772,2.784,2.947,4.716,2.806l18.108-18.051c0.913,0.542,2.227,0.248,2.821-0.633
			c0.594-0.88,0.377-2.209-0.468-2.853c0.652,0.094,1.186-0.322,1.472-0.916C317.181,150.251,317.038,149.48,316.558,149.028z"/>
		<g>
			<path style="fill:#FFFFFF;" d="M296.914,169.242c0,0-13.42,6.588-21.654,10.471c-8.235,3.882-11.184,9.799-14.313,17.898
				c-3.13,8.1-8.745,22.2-10.392,40.151c-1.647,17.951,11.528,24.771,24.705,19.832l8.118-16.116l59.294-12.423l22.706-36.156
				c0,0-11.778-7.817-18.801-13.228s-12.448-6.615-21.059-7.4c-8.611-0.786-26.375-2.206-26.375-2.206L296.914,169.242z"/>
			<path style="fill:none;stroke:#1D1141;stroke-linecap:round;stroke-linejoin:round;stroke-miterlimit:10;" d="M268.594,184.231
				c2.338-0.745,4.976-0.496,7.134,0.673c2.158,1.169,3.806,3.244,4.458,5.61c3.248,11.786,2.167,24.444-0.762,36.313
				c-5.524-2.374-11.961-2.522-17.67-0.637"/>
			<path style="fill:none;stroke:#1D1141;stroke-linecap:round;stroke-linejoin:round;stroke-miterlimit:10;" d="M332.538,174.067
				c0.562,4.643,1.124,9.286,1.685,13.929"/>
			<path style="fill:none;stroke:#1D1141;stroke-linecap:round;stroke-linejoin:round;stroke-miterlimit:10;" d="M285.256,177.613
				c0.999,6.88,5.729,13.101,12.091,15.904c6.362,2.803,14.145,2.094,19.896-1.812c5.751-3.906,9.279-10.88,9.018-17.827"/>
		</g>
		<g>
			<path style="fill:#A77456;" d="M307.822,172.126c0.053-0.658,0.104-1.305,0.156-1.953c2.241-0.201,4.373-1.437,5.635-3.302
				c1.313-1.939,1.524-4.369,1.049-6.662c-0.442-2.132-0.833-4.123-1.275-6.255c-0.882,0.436-2.069,0.303-2.699-0.452
				c-0.201,0.901-0.966,1.65-1.871,1.831c-0.905,0.181-1.754-0.067-2.286-0.821c-0.169,0.609-0.702,1.102-1.323,1.222
				c-0.621,0.121-1.387-0.093-1.771-0.594c0.188,1.044-0.235,2.175-1.061,2.84c-0.826,0.665-2.086,0.879-3.066,0.473
				c-0.046,0.795-0.678,1.594-1.463,1.731c-0.252-0.353-0.436-0.917-0.688-1.27c-1.764-0.624-3.919-0.114-5.151,1.22
				c-1.233,1.334-1.459,3.399-0.54,4.937c0.786,1.317,2.364,2.164,3.969,2.209c-0.19,1.512-0.38,3.023-0.57,4.535
				c-1.912,0.999-3.98,2.065-5.893,3.064c-0.137,5.887,3.289,11.281,8.377,14.247c5.088,2.965,11.786,2.928,16.841-0.093
				c5.055-3.021,8.139-9.602,7.938-15.488C317.401,173.037,312.554,172.634,307.822,172.126z"/>
			<circle style="fill:#1D1141;" cx="304.231" cy="161.271" r="0.8"/>
			<circle style="fill:#1D1141;" cx="312.38" cy="160.011" r="0.8"/>
			<path style="fill:none;stroke:#1D1141;stroke-linecap:round;stroke-linejoin:round;stroke-miterlimit:10;" d="M295.229,167.376
				c0.618,0.013,1.236,0.025,1.854,0.038"/>
			<path style="fill:none;stroke:#1D1141;stroke-linecap:round;stroke-linejoin:round;stroke-miterlimit:10;" d="M302.533,169.424
				c1.854,1.117,4.19,1.397,6.256,0.751"/>
			<path style="fill:none;stroke:#1D1141;stroke-linecap:round;stroke-linejoin:round;stroke-miterlimit:10;" d="M307.852,171.86
				c-0.035,0.559-0.07,1.117-0.105,1.676"/>
			<path style="fill:none;stroke:#1D1141;stroke-linecap:round;stroke-linejoin:round;stroke-miterlimit:10;" d="M308.642,160.301
				c0.324,0.824,0.647,1.647,0.971,2.471c-0.353,0.027-0.792,0.163-1.145,0.19"/>
			<path style="fill:none;stroke:#1D1141;stroke-linecap:round;stroke-linejoin:round;stroke-miterlimit:10;" d="M305.648,164.005
				c0.269,0.642,1.142,0.942,1.749,0.6"/>
			<path style="fill:none;stroke:#1D1141;stroke-linecap:round;stroke-linejoin:round;stroke-miterlimit:10;" d="M302.891,158.009
				c0.021-0.619,0.464-1.201,1.054-1.387c0.59-0.186,1.287,0.037,1.659,0.531"/>
			<path style="fill:none;stroke:#1D1141;stroke-linecap:round;stroke-linejoin:round;stroke-miterlimit:10;" d="M311.467,156.512
				c0.618-0.089,1.235-0.178,1.853-0.266"/>
			<path style="fill:none;stroke:#1D1141;stroke-linecap:round;stroke-linejoin:round;stroke-miterlimit:10;" d="M294.09,161.599
				c0.735,0.178,1.47,0.356,2.205,0.535"/>
		</g>
		<g>
			<path style="fill:#A77456;" d="M404.738,228.204c3.699-3.786,6.339-20.308,1.784-26.664c-4.555-6.357-16.935-7.357-16.935-7.357
				l2.791,31.159L404.738,228.204z"/>
			<path style="fill:#A77456;" d="M313.379,215.019c-5.638-0.06-11.77,3.564-14.352,8.577l26.572,6.821
				c0.492-4.978,0.906-10.017,1.398-14.995C322.496,214.746,317.913,214.61,313.379,215.019z"/>
			<g>
				<path style="fill:#F0DEFF;" d="M327.03,186.738l0.569-4.177l29.941,2.959c3.788,0.374,7.489,1.367,10.956,2.939l3.406,1.544l0,0
					c2.503-5.368,6.333-10.008,11.129-13.483l11.828-8.571l5.33,1.847c0,0-14.169,30.511-13.784,29.685
					S327.03,186.738,327.03,186.738z"/>
				<g>
					<path style="fill:#546CFF;" d="M392.919,227.586l-23.034,18.965c-2.471,2.034-5.66,2.98-8.84,2.622l-41.284-4.644l7.269-57.791
						l41.313,4.648c3.183,0.358,6.375-0.59,8.846-2.628l22.998-18.963L392.919,227.586z"/>
					
						<line style="fill:none;stroke:#1D1141;stroke-linecap:round;stroke-linejoin:round;stroke-miterlimit:10;" x1="368.542" y1="192.23" x2="361.273" y2="250.021"/>
					
						<line style="fill:none;stroke:#1D1141;stroke-linecap:round;stroke-linejoin:round;stroke-miterlimit:10;" x1="376.548" y1="189.771" x2="369.28" y2="247.562"/>
					
						<line style="fill:none;stroke:#1D1141;stroke-linecap:round;stroke-linejoin:round;stroke-miterlimit:10;" x1="334.729" y1="203.286" x2="358.316" y2="205.94"/>
					
						<line style="fill:none;stroke:#1D1141;stroke-linecap:round;stroke-linejoin:round;stroke-miterlimit:10;" x1="334.31" y1="207.007" x2="357.898" y2="209.661"/>
					
						<line style="fill:none;stroke:#1D1141;stroke-linecap:round;stroke-linejoin:round;stroke-miterlimit:10;" x1="333.927" y1="210.42" x2="357.514" y2="213.074"/>
					<polygon style="fill:none;stroke:#1D1141;stroke-linecap:round;stroke-linejoin:round;stroke-miterlimit:10;" points="
						391.234,193.652 383.343,200.158 380.856,221.301 388.567,214.854 					"/>
				</g>
			</g>
			<g>
				<path style="fill:#A77456;" d="M403.346,206.189c-5.097,2.062-10.194,4.125-15.29,6.187c-0.539,0.218-1.09,0.444-1.521,0.834
					c-0.431,0.39-0.724,0.985-0.598,1.553c1.04-0.023,2.168-0.041,3.207-0.065c-0.755,0.184-1.632,0.48-2.387,0.665
					c-0.414,0.101-0.842,0.208-1.181,0.466c-0.472,0.359-0.708,1.002-0.579,1.58c2.946,0.418,5.969,0.853,8.915,1.271
					c-2.1,0.07-4.263,0.221-6.363,0.291c-0.479,0.016-0.978,0.037-1.402,0.261s-0.746,0.718-0.614,1.179
					c3.307,1.312,6.65,2.651,9.957,3.963c-1.652-0.051-3.358-0.173-5.009-0.224c-0.443-0.014-0.906-0.023-1.306,0.17
					c-0.399,0.193-0.704,0.658-0.564,1.078c2.981,1.096,5.748,2.104,8.729,3.2c2.304,0.847,5.075,0.397,7.399-0.394L403.346,206.189
					z"/>
				<path style="fill:none;stroke:#1D1141;stroke-linecap:round;stroke-linejoin:round;stroke-miterlimit:10;" d="M395.301,209.39
					c2.208-1.058,4.415-2.115,6.623-3.173"/>
				<path style="fill:none;stroke:#1D1141;stroke-linecap:round;stroke-linejoin:round;stroke-miterlimit:10;" d="M387.781,214.66
					c4.591-0.245,9.182-0.49,13.772-0.735"/>
				<path style="fill:none;stroke:#1D1141;stroke-linecap:round;stroke-linejoin:round;stroke-miterlimit:10;" d="M391.152,218.305
					c3.117,0.531,6.235,1.062,9.352,1.593"/>
				<path style="fill:none;stroke:#1D1141;stroke-linecap:round;stroke-linejoin:round;stroke-miterlimit:10;" d="M393.273,223.612
					c2.052,0.612,4.104,1.224,6.155,1.836"/>
			</g>
			<g>
				<path style="fill:#A77456;" d="M335.101,235.87c-0.409-0.396-1.01-0.493-1.579-0.525c-4.028-0.226-8.16-0.32-12.188-0.546
					c5.268-1.252,10.64-2.041,15.908-3.293c0.018-0.956-0.677-2.057-1.621-2.207c0.076-0.644-0.132-1.317-0.559-1.806
					c-0.426-0.489-1.123-0.476-1.73-0.707c-5.601-2.132-11.202-4.264-16.803-6.396l-4.211-3.117
					c-5.526-0.374-10.967,1.27-16.261,2.896c-9.582,2.943-19.627,5.681-28.901,9.484c-4.423,1.814-7.749,6.072-8.438,10.802
					c-0.689,4.73,1.284,9.76,5.006,12.76c3.722,3,9.122,3.727,13.652,2.201c8.897-2.998,17.857-6.56,26.19-10.884
					c3.979,1.371,8.092,2.666,12.283,3.066c5.063-2.552,10.385-5.078,15.447-7.63c0.174-0.436-0.1-0.895-0.505-1.133
					c1.646-0.563,3.232-0.852,4.878-1.414C335.726,236.854,335.511,236.266,335.101,235.87z"/>
				<path style="fill:none;stroke:#1D1141;stroke-linecap:round;stroke-linejoin:round;stroke-miterlimit:10;" d="M319.279,241.107
					c4.012-0.823,8.024-1.646,12.037-2.469"/>
				<path style="fill:none;stroke:#1D1141;stroke-linecap:round;stroke-linejoin:round;stroke-miterlimit:10;" d="M318.078,235.092
					c1.943-0.345,3.885-0.691,5.828-1.036"/>
				<path style="fill:none;stroke:#1D1141;stroke-linecap:round;stroke-linejoin:round;stroke-miterlimit:10;" d="M317.203,229.074
					c6.233,0.239,12.466,0.477,18.699,0.716"/>
				<path style="fill:none;stroke:#1D1141;stroke-linecap:round;stroke-linejoin:round;stroke-miterlimit:10;" d="M316.172,219.531
					c2.292,1.063,4.585,2.125,6.877,3.188"/>
			</g>
		</g>
	</g>
</g>
</svg>
