<?xml version="1.0" encoding="utf-8"?>
<!-- Generator: Adobe Illustrator 27.5.0, SVG Export Plug-In . SVG Version: 6.00 Build 0)  -->
<svg version="1.1" id="Capa_1" xmlns="http://www.w3.org/2000/svg" xmlns:xlink="http://www.w3.org/1999/xlink" x="0px" y="0px"
	 viewBox="0 0 2122 2122" style="enable-background:new 0 0 2122 2122;" xml:space="preserve">
<g>
	<path style="fill:#F39A84;" d="M1600.4,1572.677l-105.715-52.652c-17.803-8.868-37.399-9.995-55.087-4.795l-7.652-3.613
		l68.104-19.478c70.125-20.056,118.493-86.236,112.547-158.929c-1.645-20.12-7.263-40.25-17.204-59.264v-0.001
		c-26.088-49.897-75.472-79.72-127.832-83.107l86.975-208.74h-275.93l-22.047-101.206l-0.081,0
		c-8.825-43.271-99.729-78.741-219.603-88.166l7.499-59.397c4.127-1.245,8.146-2.86,12.057-4.786
		c17.49,13.052,38.652,21.284,61.574,22.562c10.26,0.572,20.221-0.29,29.711-2.403v0.002l0.02-0.005
		c0.479-0.108,0.958-0.215,1.436-0.328c6.54-1.27,34.291-4.306,65.74,26.838c1.088,1.161,2.197,2.298,3.33,3.414l0.168,0.176
		c0.664,0.706,1.358,1.361,2.071,1.971c19.134,17.9,44.125,29.45,71.65,30.985c44.2,2.465,82.928-21.557,101.819-58.492l0.005-0.008
		c0.5-0.982,0.992-1.971,1.464-2.972c4.759-8.858,21.416-34.262,54.818-31.603c0.777,0.087,1.557,0.158,2.339,0.227l0.137,0.014
		v-0.002c1.141,0.099,2.286,0.187,3.438,0.251c61.715,3.442,112.77-44.745,114.033-107.627
		c1.268-62.883-47.734-116.648-109.448-120.091c-13.207-0.735-25.918,0.898-37.766,4.529l-0.003-0.003l-0.025,0.01
		c-0.641,0.197-1.276,0.399-1.912,0.607c-5.87,1.451-24.391,2.966-45.795-26.325c-0.949-1.415-1.925-2.806-2.932-4.175l-0.055-0.083
		l-0.006,0.001c-19.954-27.137-51.061-45.539-86.323-47.506c-50.562-2.818-93.965,29.025-108.695,75.211
		c-3.554,9.21-16.072,33.344-48.823,30.145c-1.926-0.208-3.863-0.368-5.813-0.477c-0.501-0.028-0.995-0.024-1.494-0.045
		c0.306-2.565,0.509-5.162,0.509-7.81c0-32.004-22.994-58.595-53.353-64.264c-8.22-26.736-33.103-46.174-62.534-46.174
		c-31.327,0-57.478,22.031-63.888,51.437c-110.791,25.892-122.305,124.415-63.185,190.018c-4.393,3.752-7.465,8.575-8.518,14.185
		c-2.973,15.838,11.053,31.763,31.327,35.569c9.891,1.857,19.427,0.467,26.961-3.263l-12.663,99.21
		c-88.093,6.231-161.266,26.483-198.94,53.665c-6.083,3.849-11.69,8.673-16.534,14.515l-205.166,247.43
		c-24.771,29.874-20.635,74.172,9.239,98.944l0.001-0.001c14.813,12.284,33.172,17.439,50.939,15.893
		c2.355,0.229,4.736,0.352,7.14,0.352H755.52l4.007,16.428c-9.484,10.093-17.795,21.594-24.526,34.468v0.001
		c-9.942,19.014-15.559,39.143-17.204,59.264c-5.945,72.693,42.423,138.873,112.547,158.929l68.104,19.478l-7.653,3.613
		c-17.687-5.2-37.283-4.073-55.087,4.795l-105.714,52.652c-37.442,18.648-52.677,64.118-34.029,101.56
		c18.648,37.442,64.118,52.677,101.56,34.029l105.714-52.652c18.047-8.989,30.869-24.233,37.29-41.782l55.206-26.065l22.108,42.285
		l141.683-40.522c1.614,0.462,3.227,0.923,4.841,1.385c1.933,0.553,3.312-0.675,3.725-2.178l144.457,41.315l22.108-42.285
		l55.206,26.065c6.421,17.549,19.242,32.793,37.289,41.782l105.715,52.652c37.442,18.648,82.911,3.413,101.56-34.029
		C1653.076,1636.795,1637.841,1591.325,1600.4,1572.677z M723.167,1052.997c0.702,0.706,1.664,1.03,2.602,0.817l15.303,69.748
		c-1.152,0.277-1.969,1.209-2.267,2.291l-63.284-15.395L723.167,1052.997z"/>
	<path style="fill:#EB5E3D;" d="M1612.597,1333.211c-1.645-20.12-7.263-40.25-17.204-59.264v-0.001
		c-26.088-49.897-75.472-79.72-127.832-83.107l86.975-208.74h-275.93l-22.047-101.206l-0.081,0
		c-8.826-43.271-99.73-78.741-219.604-88.166l-5.338,42.285l-0.166-0.053l-0.141,0.932c-2.998,8.616-31.362,6.577-63.353-4.556
		c-30.137-10.488-52.722-25.299-52.733-34.184l-0.018-0.006l0.625-4.894c-88.093,6.231-161.267,26.483-198.94,53.665
		c-6.084,3.849-11.691,8.673-16.535,14.515l-205.166,247.43c-24.771,29.874-20.635,74.172,9.239,98.944l0.001-0.001
		c14.813,12.284,33.172,17.439,50.94,15.893c2.354,0.229,4.736,0.352,7.14,0.352H755.52l4.007,16.428
		c-9.484,10.093-17.795,21.594-24.526,34.468v0.001c-9.942,19.014-15.559,39.143-17.204,59.264
		c-5.945,72.693,42.423,138.873,112.547,158.929l68.104,19.478l64.683,18.499c-0.414,1.504,0.138,3.283,2.067,3.835
		c0.941,0.269,1.882,0.538,2.823,0.807l27.715,53.007l22.108,42.285l141.683-40.522c1.614,0.462,3.227,0.923,4.841,1.385
		c1.933,0.553,3.312-0.675,3.725-2.178l144.457,41.315l22.108-42.285l49.826-95.298c1.214,0.373,2.582,0.092,3.374-1.363
		l0.131-0.241l43.957,20.753l68.104-19.478C1570.175,1472.083,1618.543,1405.903,1612.597,1333.211z M723.167,1052.997
		c0.702,0.706,1.664,1.03,2.602,0.817l15.303,69.748c-1.152,0.277-1.969,1.209-2.267,2.291l-63.284-15.395L723.167,1052.997z
		 M813.859,1202.154V1158c1.465,0.001,2.881-0.919,3.053-2.692l42.377,4.442c8.941-9.979,21.887-16.295,36.34-16.295
		c26.537,0,48.081,21.183,48.764,47.555h0.019v0.373l0.045,0.901h-0.046l-0.019,15.787
		C902.24,1186.157,854.663,1185.475,813.859,1202.154z"/>
	<path style="fill:#BCCBE9;" d="M1278.606,982.1h-52.018h-0.398H1117.42L1015.337,1227.1c1.326,0.584,2.421,2.225,1.829,3.654
		c-0.49,1.184-0.981,2.368-1.471,3.552c-1.252,3.024-2.505,6.048-3.757,9.07l49.604,25.935h207.314l116.82-61.078
		c26.161-13.678,54.433-19.169,81.886-17.394l86.975-208.74H1278.606z"/>
	<path style="fill:#BCCBE9;" d="M755.52,1223.049l4.007,16.428c7.207-7.669,15.102-14.502,23.544-20.453l-28.865-1.362
		L755.52,1223.049z"/>
	<path style="fill:#BCCBE9;" d="M1006.43,1240.498c1.481-3.576,2.962-7.152,4.444-10.727l-27.436-1.295L1006.43,1240.498z"/>
	<path style="fill:#1F1A3C;" d="M1612.597,1333.211c-1.645-20.12-7.263-40.25-17.204-59.264v-0.001
		c-26.088-49.897-75.472-79.72-127.832-83.107c-27.453-1.775-55.724,3.715-81.886,17.394l-116.82,61.078l-100.296,52.438
		c-0.596-0.311-1.192-0.623-1.788-0.935c-1.776-0.928-3.453-0.048-4.242,1.297l-100.988-52.8l-49.604-25.935
		c1.253-3.023,2.505-6.047,3.757-9.07c0.49-1.184,0.981-2.368,1.471-3.552c0.591-1.428-0.503-3.07-1.829-3.654l-0.348-0.182
		c-1.793-0.493-3.188,0.616-3.836,2.178l-0.279,0.674c-1.481,3.575-2.963,7.151-4.444,10.727l-22.992-12.022l-38.717-20.242
		l-0.329-0.161c-42.151-21.914-89.728-22.596-130.533-5.918c-10.82,4.423-21.149,10.076-30.787,16.871
		c-8.442,5.951-16.337,12.784-23.544,20.453c-9.484,10.093-17.795,21.594-24.526,34.468v0.001
		c-9.942,19.014-15.559,39.143-17.204,59.264c-5.945,72.693,42.423,138.873,112.547,158.929l68.104,19.478l64.683,18.499
		c-0.414,1.504,0.138,3.283,2.067,3.835c0.941,0.269,1.882,0.538,2.823,0.807l27.715,53.007l22.108,42.285l141.683-40.522
		c1.614,0.462,3.227,0.923,4.841,1.385c1.933,0.553,3.312-0.675,3.725-2.178l144.457,41.315l22.108-42.285l49.826-95.298
		c1.214,0.373,2.582,0.092,3.374-1.363l0.131-0.241l43.957,20.753l68.104-19.478
		C1570.175,1472.083,1618.543,1405.903,1612.597,1333.211z"/>
	<path style="fill:#1F1A3C;" d="M1182.35,995.288c-16.361,0.226-32.723,0.453-49.083,0.68c-2.38-2.626-4.761-5.253-7.141-7.88
		l-1.147-1.266c-1.098-1.212-3.309-1.199-4.41,0c-1.189,1.296-1.171,3.118,0,4.41c2.587,2.855,5.174,5.709,7.76,8.564
		c-10.448,27.79-20.896,55.581-31.343,83.371c-16.959,45.11-33.917,90.22-50.876,135.329c-3.896,10.363-7.792,20.727-11.688,31.09
		c-1.414,3.76,4.612,5.385,6.014,1.657c10.638-28.297,21.276-56.594,31.914-84.891c16.959-45.109,33.917-90.219,50.876-135.328
		c3.613-9.611,7.226-19.221,10.839-28.831c45.337-0.629,90.675-1.257,136.012-1.886c73.387-1.018,146.773-2.036,220.16-3.053
		c16.814-0.234,33.629-0.466,50.443-0.7c4.01-0.055,4.021-6.292,0-6.236c-46.056,0.639-92.113,1.278-138.169,1.917
		C1329.123,993.252,1255.736,994.27,1182.35,995.288z"/>
	<path style="fill:#1F1A3C;" d="M1317.976,1096.719c-5.096-14.137-17.651-31.62-35.034-26.015
		c-21.065,6.791-26.742,36.082-26.924,55.002c0.176,18.188,4.867,42.388,21.847,52.679c15.189,9.206,30.034-2.544,36.898-16.163
		C1324.632,1142.638,1325.369,1117.227,1317.976,1096.719z M1312.946,1150.095c-3.616,11.6-13.784,30.044-28.841,24.436
		c-17.574-6.546-21.697-32.887-21.851-48.826c0.152-15.719,3.69-37.073,17.832-46.702c13.135-8.943,25.01,3.789,30.221,15.284
		C1318.016,1111.291,1318.461,1132.404,1312.946,1150.095z"/>
	<path style="fill:#EB5E3D;" d="M821.914,1608.792c-13.015-27.566-1.219-60.465,26.348-73.481l42.534-20.081
		c-17.688-5.2-37.284-4.073-55.087,4.795l-105.714,52.652c-37.442,18.648-52.677,64.118-34.029,101.56
		c18.648,37.442,64.118,52.677,101.56,34.029l105.714-52.652c18.047-8.989,30.869-24.233,37.29-41.782l-45.135,21.31
		C867.828,1648.156,834.93,1636.359,821.914,1608.792z"/>
	<path style="fill:#EB5E3D;" d="M1600.4,1572.677l-105.715-52.652c-17.803-8.868-37.399-9.995-55.087-4.795l42.533,20.081
		c27.567,13.016,39.364,45.914,26.349,73.481c-13.015,27.567-45.914,39.363-73.48,26.349l-45.135-21.31
		c6.421,17.549,19.242,32.793,37.289,41.782l105.715,52.652c37.442,18.648,82.911,3.413,101.56-34.029
		C1653.076,1636.795,1637.841,1591.325,1600.4,1572.677z"/>
	<path style="fill:#1F1A3C;" d="M1029.118,602.898c-1.011-3.88-7.028-2.235-6.013,1.658c4.581,17.583,9.163,35.166,13.744,52.749
		c0.656,2.515,1.311,5.029,1.966,7.544c1.011,3.881,7.028,2.235,6.014-1.658c-4.582-17.583-9.163-35.167-13.745-52.75
		C1030.428,607.928,1029.773,605.413,1029.118,602.898z"/>
	<path style="fill:#1F1A3C;" d="M1064.438,600.524c-2.794-1.424-6.213-0.313-7.637,2.481c-1.424,2.794-0.313,6.214,2.482,7.637
		c2.794,1.424,6.213,0.314,7.637-2.481C1068.343,605.367,1067.232,601.948,1064.438,600.524z"/>
	<path style="fill:#1F1A3C;" d="M983.916,616.322c2.794,1.424,6.213,0.313,7.637-2.482c1.424-2.793,0.313-6.212-2.482-7.636
		c-2.794-1.424-6.213-0.313-7.637,2.481C980.011,611.479,981.121,614.898,983.916,616.322z"/>
	<path style="fill:#1F1A3C;" d="M1008.782,682.571c-15.476-0.107-28.123-12.753-28.229-28.228c-0.028-4.012-6.264-4.021-6.236,0
		c0.062,9.098,3.646,17.922,10.094,24.37c6.449,6.448,15.272,10.031,24.371,10.094
		C1012.796,688.835,1012.8,682.599,1008.782,682.571z"/>
	<path style="fill:#FDD552;" d="M912.219,638.947c3.718,0.698,7.221,1.81,10.452,3.249c0.418-19.167-3.437-42.015-20.207-57.973
		c0,0,87.489,1.947,142.389-60.03c13.632,10.791,26.018,24.56,36.07,40.946c36.635,59.716,28.528,131.319-18.107,159.929
		c-2.084,1.278-4.223,2.412-6.387,3.477c17.491,13.052,38.652,21.284,61.574,22.562c10.26,0.572,20.221-0.29,29.711-2.403v0.002
		l0.02-0.005c0.479-0.108,0.958-0.215,1.436-0.328c6.54-1.27,34.291-4.306,65.74,26.838c1.088,1.161,2.197,2.298,3.33,3.414
		l0.168,0.176c0.664,0.706,1.358,1.361,2.071,1.971c19.134,17.9,44.125,29.45,71.65,30.985c44.2,2.465,82.928-21.557,101.819-58.492
		l0.005-0.008c0.5-0.982,0.992-1.971,1.464-2.972c4.759-8.858,21.416-34.262,54.818-31.603c0.777,0.087,1.557,0.158,2.339,0.227
		l0.137,0.014v-0.002c1.141,0.099,2.286,0.187,3.438,0.251c61.715,3.442,112.77-44.745,114.033-107.627
		c1.268-62.883-47.734-116.648-109.448-120.091c-13.207-0.735-25.918,0.898-37.766,4.529l-0.003-0.003l-0.025,0.01
		c-0.641,0.197-1.276,0.399-1.912,0.607c-5.87,1.451-24.391,2.966-45.795-26.325c-0.949-1.415-1.925-2.806-2.932-4.175l-0.055-0.083
		l-0.006,0.001c-19.954-27.137-51.061-45.539-86.323-47.506c-50.562-2.818-93.965,29.025-108.695,75.211
		c-3.554,9.21-16.072,33.344-48.823,30.145c-1.926-0.208-3.863-0.368-5.813-0.477c-0.501-0.028-0.995-0.024-1.494-0.045
		c0.306-2.565,0.509-5.162,0.509-7.81c0-32.004-22.994-58.595-53.353-64.264c-8.22-26.736-33.103-46.174-62.534-46.174
		c-31.327,0-57.478,22.031-63.888,51.437c-110.791,25.892-122.305,124.415-63.185,190.018
		C886.655,639.71,899.125,636.49,912.219,638.947z"/>
	<path style="fill:#1F1A3C;" d="M816.912,1155.308l0.065-0.32c0-3.626,0-7.252,0-10.878c0-1.335-0.965-2.685-2.289-3.007
		c-21.079-5.128-42.158-10.256-63.237-15.384c-2.963-0.721-5.926-1.442-8.889-2.163c-0.548-0.133-1.037-0.104-1.488,0.004
		c-1.152,0.277-1.969,1.209-2.267,2.291c-0.415,1.503,0.145,3.244,2.097,3.719c21.079,5.128,42.158,10.255,63.237,15.384
		c2.2,0.535,4.4,1.071,6.6,1.606c0,2.809,0,5.618,0,8.427c0,2.006,1.559,3.011,3.118,3.012
		C815.323,1158.001,816.74,1157.081,816.912,1155.308z"/>
	<path style="fill:#1F1A3C;" d="M1226.588,982.1c1.484-0.082,2.866-1.051,2.773-2.973c-1.114-23.009-2.227-46.019-3.34-69.029
		c-0.161-3.313-0.321-6.625-0.481-9.938c-0.194-3.994-6.431-4.018-6.236,0c1.114,23.01,2.227,46.02,3.341,69.03
		c0.16,3.313,0.32,6.624,0.48,9.937c0.093,1.912,1.572,2.888,3.065,2.973H1226.588z"/>
	<path style="fill:#BCCBE9;" d="M1408.358,1447.124c-27.22-14.231-54.439-28.462-81.658-42.694
		c-43.372-22.677-86.744-45.352-130.116-68.029c-9.341-4.884-18.683-9.768-28.024-14.652c-0.596-0.311-1.192-0.623-1.788-0.935
		c-1.776-0.928-3.453-0.048-4.242,1.297c-0.788,1.346-0.687,3.157,1.094,4.088c27.22,14.232,54.439,28.462,81.659,42.694
		c43.372,22.677,86.744,45.352,130.115,68.029c9.045,4.73,18.089,9.458,27.134,14.186c-6.686,12.282-13.372,24.567-20.058,36.849
		c-1.128,2.073,0.279,3.978,2.012,4.51c1.214,0.373,2.582,0.092,3.374-1.363l0.131-0.241c7.162-13.158,14.324-26.316,21.487-39.474
		C1410.253,1449.964,1409.889,1447.925,1408.358,1447.124z"/>
	<path style="fill:#BCCBE9;" d="M1166.026,1584.901c-58.164-16.634-116.328-33.27-174.492-49.905
		c-8.226-2.353-16.452-4.705-24.678-7.058c-1.933-0.553-3.312,0.675-3.725,2.178c-0.414,1.504,0.138,3.283,2.067,3.835
		c0.941,0.269,1.882,0.538,2.823,0.807c57.223,16.366,114.446,32.732,171.669,49.098c6.612,1.891,13.224,3.782,19.836,5.673
		c1.614,0.462,3.227,0.923,4.841,1.385c1.933,0.553,3.312-0.675,3.725-2.178C1168.507,1587.233,1167.955,1585.453,1166.026,1584.901
		z"/>
	<path style="fill:#1F1A3C;" d="M725.77,1053.814c0.531-0.119,1.056-0.365,1.519-0.923c19.73-23.794,39.46-47.589,59.19-71.383
		c2.804-3.381,5.608-6.763,8.411-10.144c2.544-3.068-1.844-7.503-4.409-4.41c-19.73,23.794-39.46,47.589-59.19,71.383
		c-2.804,3.381-5.608,6.763-8.412,10.144c-1.272,1.534-0.811,3.41,0.289,4.516C723.87,1053.704,724.831,1054.027,725.77,1053.814z"
		/>
</g>
</svg>
