<?xml version="1.0" encoding="utf-8"?>
<!-- Generator: Adobe Illustrator 27.5.0, SVG Export Plug-In . SVG Version: 6.00 Build 0)  -->
<svg version="1.1" xmlns="http://www.w3.org/2000/svg" xmlns:xlink="http://www.w3.org/1999/xlink" x="0px" y="0px"
	 viewBox="0 0 500 500" style="enable-background:new 0 0 500 500;" xml:space="preserve">
<g id="BACKGROUND">
	<rect style="fill-rule:evenodd;clip-rule:evenodd;fill:transparent;" width="500" height="500"/>
</g>
<g id="OBJECTS">
	<g>
		<g>
			<path style="fill-rule:evenodd;clip-rule:evenodd;fill:#E3E3FF;" d="M134.081,420.81c3.648,4.748,10.162,10.072,12.787,16.766
				c2.159,5.504-0.026,10.22-6.656,10.703c-5.182,0.38-11.069-2.025-16.377-3.956c-24.807-9.016-47.238-24.802-66.659-41.956
				c-3.713-3.279-7.667-7.001-11.355-11.27c-3.708-4.292-7.427-9.327-8.925-14.809c-1.941-7.105,1.303-12.214,7.37-13.511
				c5.108-1.094,10.071,0.431,14.305,1.664c4.486,1.308,8.422,3.002,12.199,4.733c-2.925-3.935-9.073-9.182-11.497-15.36
				c-2.002-5.104-0.511-9.808,4.32-11.094c2.366-0.63,5.306-0.227,7.657,0.225c6.822,1.314,12.744,4.136,18.523,6.644
				c-3.89-4.176-4.991-12.129,0.944-13.759c3.487-0.957,8.626,1.078,12.228,2.668c3.854,1.705,7.201,3.621,10.246,5.302
				c13.112,7.239,25.519,17.114,36.686,27.971c2.583,2.509,5.486,5.253,8.179,8.566c3.029,3.729,8.109,10.496,5.778,15.599
				c-3.386,7.416-17.371,0.994-21.704-0.497c-0.168-0.008-0.235-0.163-0.435-0.125c2.515,2.68,5.589,5.613,8.214,8.766
				c2.634,3.162,5.563,6.668,6.919,10.652c1.508,4.432,0.142,8.704-4.144,9.827c-3.157,0.825-6.827-0.257-9.869-1.05
				C139.566,422.664,136.518,421.861,134.081,420.81z"/>
			<path style="fill-rule:evenodd;clip-rule:evenodd;fill:#E3E3FF;" d="M67.007,270.951c-8.122,5.36-15.891,10.668-25.505,15.567
				c-3.912,1.995-11.809,5.819-14.065,0c-1.225-3.158,0.118-7.059,1.313-10.128c1.269-3.261,2.645-5.858,3.938-8.064
				c3.139-5.352,6.518-10.017,9.94-14.252c14.249-17.638,31.459-33.031,50.448-46.322c6.73-4.711,14.197-9.932,24.005-12.377
				c5.039-1.256,10.729-1.585,12.378,2.625c0.739,1.889,0.224,4.773-0.375,6.564c-2.072,6.193-6.907,12.113-10.877,16.878
				c-4.287,5.144-8.832,9.944-12.753,14.816c-0.159-0.034-0.177,0.073-0.188,0.188c-0.035,0.152-0.188,0.187-0.187,0.375
				c11.756-7.655,25.22-16.279,40.321-21.942c4.819-1.807,11.201-3.98,16.691-3.564c6.234,0.474,9.111,5.437,6.939,12.191
				c-1.918,5.963-6.186,11.788-10.127,17.066c-3.937,5.272-8.326,10.215-12.377,14.628c-12.532,13.654-27.169,26.749-42.009,39.384
				c-9.787,8.333-19.428,15.747-31.131,22.881c-2.719,1.656-5.213,3.148-8.814,4.688c-4.891,2.09-11.048,4.292-15.191,0.749
				c-2.869-2.452-3.787-6.666-3.376-12.002c0.319-4.136,1.978-8.112,3.564-11.816C53.92,288.912,61.114,278.588,67.007,270.951z"/>
			<path style="fill-rule:evenodd;clip-rule:evenodd;fill:#E3E3FF;" d="M334.438,124.474c4.646,5.216,9.218,10.187,13.691,16.511
				c1.821,2.573,5.352,7.79,1.452,9.992c-2.117,1.196-5.027,0.644-7.33,0.113c-2.449-0.565-4.434-1.275-6.135-1.966
				c-4.127-1.678-7.789-3.596-11.15-5.59c-14.001-8.302-26.711-18.94-38.112-31.057c-4.041-4.294-8.521-9.061-11.269-15.776
				c-1.413-3.449-2.234-7.457,0.587-9.063c1.266-0.72,3.368-0.651,4.702-0.411c4.613,0.833,9.318,3.656,13.112,5.985
				c4.096,2.515,7.975,5.247,11.841,7.531c-0.009,0.117,0.069,0.118,0.152,0.114c0.112,0.009,0.152,0.114,0.286,0.094
				c-6.651-7.561-14.166-16.236-19.748-26.378c-1.78-3.238-3.983-7.547-4.254-11.49c-0.306-4.478,2.923-7.032,7.944-6.187
				c4.434,0.747,9.012,3.178,13.169,5.432c4.151,2.253,8.115,4.861,11.668,7.283c10.993,7.494,21.805,16.54,32.313,25.778
				c6.929,6.092,13.191,12.176,19.467,19.754c1.457,1.76,2.775,3.378,4.24,5.777c1.989,3.259,4.189,7.406,2.1,10.714
				c-1.447,2.292-4.346,3.378-8.177,3.636c-2.971,0.201-5.967-0.567-8.762-1.311C348.548,131.915,340.472,127.871,334.438,124.474z"
				/>
			<path style="fill-rule:evenodd;clip-rule:evenodd;fill:#E3E3FF;" d="M292.652,156.793c-4.421-5.747-6.002-13.915,1.899-15.657
				c2.565-0.566,5.948,0.301,8.12,1.346c3.78,1.82,8.272,5.969,12.564,10.406c4.505,4.66,8.663,9.224,10.887,14.614
				c2.151,5.212,1.454,11.123-5.262,11.661c3.221,5.998,9.666,15.543,3.998,19.114c-3.619,2.281-8.526-0.626-12.072-2.929
				c-3.872-2.515-7.036-5.285-10.196-8.087c-3.789-3.361-6.997-6.345-9.727-9.374c-3.172-3.518-6.148-7.042-8.709-11.778
				c-1.821-3.367-1.834-7.696,2.331-9.223C288.491,156.153,290.665,156.885,292.652,156.793z"/>
			<path style="fill-rule:evenodd;clip-rule:evenodd;fill:#E3E3FF;" d="M169.486,89.409c-8.785,0.255-17.589-4.326-15.126-13.118
				c2.05-7.315,10.37-12.801,15.135-15.999c11.124-7.464,24.418-13.297,37.492-17.947c2.984-1.061,6.308-2.234,10.108-3.054
				c4.798-1.037,11.984-1.855,14.359,2.656c2.649,5.03-2.642,11.066-6.512,14.857c-3.255,3.194-6.42,5.659-8.946,7.559
				c-0.089,0.146-0.261,0.132-0.323,0.329c7.206-1.645,15.445-4.541,24.156-4.844c4.54-0.159,10.64-0.024,12.74,4.31
				c0.426,0.878,0.861,3.838,0.262,5.951c-1.377,4.86-6.416,9.231-9.488,11.947c-11.182,9.886-22.171,15.174-35.289,21.912
				c-12.583,6.465-24.647,11.89-39.095,14.824c-4.64,0.942-11.127,1.786-15.575-0.222c-3.949-1.784-5.216-5.848-3.387-10.432
				c1.847-4.622,5.736-7.858,9.109-10.765C162.572,94.386,166.044,91.767,169.486,89.409z"/>
			<path style="fill-rule:evenodd;clip-rule:evenodd;fill:#E3E3FF;" d="M434.947,298.667c-2.229,0.634-5.491-0.133-6.183-2.64
				c-0.725-2.624,1.055-6.177,1.806-8.348c1.799-5.185,3.397-9.986,6.121-14.736c1.239-2.159,3.22-4.917,5.988-5.083
				c2.098-0.124,3.563,1.261,4.321,2.869c2.408-2.314,5.366-7.198,9.669-8.937c4.435-1.793,8.98,0.23,9.084,6.251
				c0.079,4.582-2.398,9.403-4.048,13.158c-3.256,7.407-7.96,16.359-12.487,22.889c-2.279,3.288-5.729,8.406-8.461,9.546
				c-3.481,1.452-6.236-0.467-6.856-3.502C433.13,306.355,434.836,302.038,434.947,298.667z"/>
			<path style="fill-rule:evenodd;clip-rule:evenodd;fill:#E3E3FF;" d="M388.709,361.848c8.438-4.147,17.202-8.08,26.507-11.788
				c9.24-3.684,19.077-7.369,30.781-8.01c11.394-0.627,20.54,2.798,23.77,9.37c1.062,2.162,1.474,4.13,1.197,7.558
				c-0.521,6.418-4.654,13.122-8.55,18.288c-3.99,5.288-8.585,9.981-12.997,14.207c-9.696,9.285-19.255,16.938-29.926,25.089
				c-10.709,8.179-20.911,15.44-32.149,23.125c-5.35,3.658-11.217,7.285-17.272,10.58c-2.672,1.453-5.958,3.194-9.405,4.534
				c-3.532,1.371-7.895,2.737-11.457,2.72c-7.532-0.034-11.549-4.893-10.945-11.94c0.359-4.181,2.284-7.616,4.104-10.732
				c1.822-3.116,3.852-6.049,6.157-8.766c-14.454,8.47-28.389,18.996-46.173,25.543c-2.867,1.056-6.162,1.961-9.576,2.721
				c-3.505,0.779-7.187,1.475-11.115,1.209c-7.657-0.522-12.43-5.335-12.484-12.393c-0.055-7.179,3.381-13.586,6.327-18.892
				c9.02-16.243,23.235-29.064,36.254-41.413c-5.862,1.135-14.03,3.674-21.376,3.174c-5.284-0.359-9.814-3.593-7.867-9.22
				c1.49-4.301,5.88-8.068,9.406-11.185c3.728-3.293,7.019-5.767,11.629-9.069c4.417-3.162,8.293-5.921,12.483-8.464
				c1.89-1.146,4.267-2.613,6.669-3.778c2.42-1.174,5.448-2.449,7.867-2.721c5.529-0.62,8.341,2.294,8.722,5.895
				c6.847-4.037,13.918-8.518,21.718-12.394c7.694-3.825,16.823-7.727,27.19-8.313c9.913-0.561,17.518,4.108,15.391,13.15
				C401.622,348.287,393.382,355.822,388.709,361.848z"/>
			<path style="fill-rule:evenodd;clip-rule:evenodd;fill:#E3E3FF;" d="M401.694,175.524c-1.803-4.231-5.626-9.44-6.296-14.924
				c-0.55-4.508,1.979-7.596,7.006-6.684c3.926,0.711,7.843,3.63,11.421,6.085c16.722,11.464,30.377,27.51,41.531,43.995
				c2.132,3.151,4.36,6.678,6.283,10.56c1.937,3.904,3.736,8.363,3.799,12.728c0.08,5.657-3.313,8.834-8.074,8.634
				c-4.009-0.165-7.41-2.252-10.322-3.981c-3.087-1.833-5.689-3.848-8.166-5.861c1.422,3.488,4.988,8.57,5.605,13.631
				c0.51,4.179-1.501,7.392-5.342,7.421c-1.881,0.014-3.99-0.848-5.652-1.635c-4.823-2.286-8.686-5.52-12.503-8.496
				c2.093,3.854,1.387,9.98-3.341,10.054c-2.777,0.043-6.21-2.456-8.583-4.331c-2.54-2.007-4.662-4.074-6.603-5.908
				c-8.365-7.899-15.697-17.625-21.92-27.842c-1.44-2.362-3.073-4.959-4.44-7.941c-1.538-3.354-4.018-9.361-1.306-12.711
				c3.942-4.865,13.111,2.594,16.048,4.534c0.124,0.038,0.144,0.166,0.298,0.177c-1.355-2.476-3.078-5.247-4.427-8.095
				c-1.353-2.858-2.858-6.028-3.101-9.251c-0.271-3.586,1.564-6.502,4.966-6.514c2.507-0.008,5.029,1.5,7.139,2.675
				C397.97,173.093,400.083,174.276,401.694,175.524z"/>
		</g>
		<g>
			<g>
				<g>
					<path style="fill-rule:evenodd;clip-rule:evenodd;fill:#B24B06;" d="M142.098,305.33c-0.098-0.768-10.197-4.186-21.663-2.192
						c-11.466,1.995-21.343,10.98-21.284,11.756c0.146,1.904,10.083,2.398,21.548,0.405
						C132.167,313.305,142.388,307.595,142.098,305.33z"/>
					<g>
						<path style="fill-rule:evenodd;clip-rule:evenodd;fill:#F7D0DA;" d="M136.097,303.829c1.554,4.163,3.416,7.652,7.689,10.69
							c1.492,1.061,3.654,2.15,5.813,3.376c1.981,1.123,4.646,2.567,4.688,4.501c0.107,4.904-9.933,4.127-13.69,2.625
							c0.797,5.736,2.284,12.654,2.626,19.317c0.18,3.515,0.478,9.523-2.438,9.94c-1.494,0.212-2.826-1.164-3.563-2.064
							c-2.312-2.82-3.537-7.568-4.876-11.253c-1.361,2.424-2.009,5.726-3.564,9.189c-1.077,2.399-3.234,6.584-6.001,6.564
							c-3.902-0.026-3.906-6.259-3.188-10.689c-2.272,1.433-8.76,8.037-14.065,7.126c-1.81-0.31-3.389-2.225-2.25-4.688
							c-2.67,1.171-6.548,0.909-6.939-1.874c-0.319-2.269,1.487-4.025,3.188-5.252c1.667-1.203,4.167-1.546,5.439-2.813
							c0.91-0.908,1.798-3.228,2.438-4.501c0.834-1.66,1.416-3.098,2.438-4.501c-2.083-5.621-4.977-11.385-4.314-19.129
							c3.738-1.915,8.273-3.211,12.94-4.313c4.666-1.103,9.616-2.132,14.628-2.439C134.046,303.584,135.144,303.221,136.097,303.829
							z"/>
						<g>
							<path style="fill-rule:evenodd;clip-rule:evenodd;fill:#DD97A3;" d="M136.136,303.932c-8.088,3.925-19.1,6.911-30.548,6.856
								C113.61,306.682,125.58,302.649,136.136,303.932z"/>
							<path style="fill-rule:evenodd;clip-rule:evenodd;fill:#DD97A3;" d="M105.475,314.143c1.277,5.787,3.887,10.482,6.804,14.629
								c-2.404,2.594-4.634,6.993-6.376,11.065c-4.136,1.366-8.243,3.303-9.065,7.983c-0.75-0.313-0.786-2.341-0.312-3.294
								c1.107-2.227,2.867-3.848,8.439-6.001c0,0,1.013-2.861,2.195-4.825c0.902-1.499,1.726-2.791,2.681-4.177
								C107.956,325.158,105.543,320.328,105.475,314.143z"/>
							<path style="fill-rule:evenodd;clip-rule:evenodd;fill:#DD97A3;" d="M131.971,321.767c-1.899,0.6-3.398,1.602-4.313,3.188
								c-3.037-0.349-4.413,0.963-6.002,2.062c-1.302-1.143-3.999-0.724-5.438,0c0.822-1.314,2.639-2.97,4.502-1.876
								c0.127,0.076,0.785,0.749,0.75,0.751c0,0,1.361-1.804,3-2.251c1.403-0.382,2.625,0,2.625,0
								C127.598,322.868,129.223,320.442,131.971,321.767z"/>
							<path style="fill-rule:evenodd;clip-rule:evenodd;fill:#DD97A3;" d="M132.159,328.705c2.545,5.941,1.922,13.974,4.313,19.505
								c1.025,2.369,2.615,5.653,5.922,4.882c-2.962,4.183-6.134-1.557-7.503-4.599c-0.521-1.158-2.545-7.531-2.545-7.531
								C132.921,337.967,132.715,331.514,132.159,328.705z"/>
							<path style="fill-rule:evenodd;clip-rule:evenodd;fill:#DD97A3;" d="M117.344,332.336c0.019,2.97-1.506,7.11-3.485,9.71
								c-2.615,3.436-9.481,6.048-9.268,9.044c0.05,0.699,0.249,1.236,0.938,2.062c-2.105,0.127-4.254-2.657-2.438-4.688
								c1.214-1.239,2.865-1.879,4.314-2.813C114.054,341.362,115.739,338.199,117.344,332.336z"/>
							<path style="fill-rule:evenodd;clip-rule:evenodd;fill:#DD97A3;" d="M154.288,322.328c0.269,5.212-9.231,4.589-13.635,3.081
								c-0.74-2.634-1.631-5.443-2.681-7.769C137.972,317.64,149.426,327.241,154.288,322.328z"/>
							<path style="fill-rule:evenodd;clip-rule:evenodd;fill:#DD97A3;" d="M124.972,355.857c-2.176,2.427-5.644,0.678-5.753-4.018
								c-0.047-2.021,0.017-4.973,0.467-6.212c0.333-0.916,1.653-2.33,2.533-3.54c2.237-3.075,4.589-7.555,4.313-12.751
								c0.87,11.733-4.339,13.394-5.626,20.066C119.555,356.408,124.833,356.279,124.972,355.857z"/>
						</g>
					</g>
				</g>
				<g>
					<path style="fill-rule:evenodd;clip-rule:evenodd;fill:#B24B06;" d="M367.895,141.795c0.001-0.775-9.518-4.091-21.007-3.589
						c-11.488,0.503-20.587,4.123-20.627,4.901c-0.097,1.908,9.5,3.865,20.988,3.363
						C358.738,145.968,367.892,144.079,367.895,141.795z"/>
					<g>
						<path style="fill-rule:evenodd;clip-rule:evenodd;fill:#F7D0DA;" d="M341.264,111.414c1.873-2.395,3.267-6.096,5.626-8.064
							c4.591-3.831,10.161,0.894,12.941,4.688c1.151,1.571,2.513,3.412,1.5,5.813c2.234,1.268,4.665,2.223,5.626,4.501
							c1.987,4.714-1.781,10.112-4.501,12.19c0.123,4.955-0.353,10.249-0.938,13.878c-8.413,1.778-20.449,3.331-29.443,1.126
							c-0.026-8.225-5.01-12.7-10.69-16.316c-1.826-1.163-3.529-2.291-3.188-4.314c0.755-4.489,11.019-1.783,13.315-0.187
							c0.145-6.489-1.009-13.795-1.876-19.879c-0.503-3.531-1.458-7.779,0.562-9.939c3.586-1.322,6.128,2.951,7.69,6.376
							C339.453,104.716,340.804,108.574,341.264,111.414z"/>
						<g>
							<path style="fill-rule:evenodd;clip-rule:evenodd;fill:#DD97A3;" d="M361.6,143.898c-0.758,0.914-19.383,5.18-29.531,1.23
								C339.57,142.048,352.428,142.144,361.6,143.898z"/>
							<path style="fill-rule:evenodd;clip-rule:evenodd;fill:#DD97A3;" d="M331.513,124.729c0.045-7.019-1.042-14.759-2.063-21.567
								c-0.512-3.419-2.073-7.602,1.325-8.418c-1.877,2.149-0.498,6.431,0.175,9.918c1.217,6.303,3.047,13.572,4.126,20.067
								c5.779-0.403,9.52,1.232,12.565,3.563c-0.816-0.377-3.707-1.455-6.376-1.688c-1.943-0.17-4.289,0.058-5.813,0.188
								C335.451,126.792,334.029,125.859,331.513,124.729z"/>
							<path style="fill-rule:evenodd;clip-rule:evenodd;fill:#DD97A3;" d="M358.331,131.105c-6.455,4.103-5.81-6.803-4.876-11.44
								c-4.194-0.192-8.677,0.11-13.315,0c0.706-0.415,1.645-0.73,2.625-0.938c-0.434-2.379-0.809-5.191-1.5-7.313
								c1.426-2.422,2.742-4.841,4.501-6.94c1.188-1.418,2.635-2.467,4.641-2.54c-4.824,3.053-6.438,9.37-7.267,16.418
								c2.869,0.052,10.245,0.12,10.245,0.12l0.82-3.871c-1.49-1.636-3.046-3.206-4.314-5.064c2.063,1.448,7.474,6.82,11.786,2.899
								c0.054,0.391,0.071,0.769-0.159,1.414c3.193,2.542,2.686,7.246,0.938,11.44c-0.796,1.911-1.966,4.042-3.376,4.501
								c2.006-3.679,5.372-10.646,2.251-15.378c-1.021,1.277-3.476,1.956-5.252,0.938c-0.727,1.899-1.931,7.671-1.5,11.44
								c0.277,2.419,1.604,4.978,4.314,3.188c1.011,3.141,5.149-0.921,5.147-0.917c-0.335,0.575-2.391,3.596-4.772,3.168
								C358.943,132.172,358.31,131.814,358.331,131.105z"/>
						</g>
					</g>
				</g>
				<g>
					<path style="fill-rule:evenodd;clip-rule:evenodd;fill:#F7D0DA;" d="M215.426,179.115
						c-10.823,0.262-14.905-20.757-2.813-20.816c-4.471-18.393,8.673-36.066,25.88-36.571c5.498-0.161,12.223,2.34,15.566,4.688
						c2.807,1.973,5.075,5.756,6.563,9.19c0.818,1.886,1.313,3.489,1.688,5.439c0.397,2.061,0.323,4.079,0.563,6.563
						c0.344,3.558,2.026,7.463,3.375,11.44c1.309,3.856,2.233,8.233,2.25,12.565c0.021,5.282-1.139,9.563-3.001,13.316
						c-1.831,3.692-4.437,6.579-7.314,9.377c0.186,2.579,0.268,5.233,0.375,7.875c0.109,2.703,0.188,7.69,0.188,7.69
						c-0.611,1.949-4.489,3.431-6.751,4.313c-11.868,4.624-28.662,0.464-33.757-7.315c-0.088-4.949,0.111-10.876,0-16.503
						c-0.035-1.766,0.097-3.762-0.188-5.252C217.688,183.214,215.905,181.13,215.426,179.115z"/>
					<g>
						<g>
							<g>
								<path style="fill-rule:evenodd;clip-rule:evenodd;fill:#DD97A3;" d="M215.801,168.238c-1.333-2.231-3.002-4.125-6.939-3.751
									c5.29-4.774,9.892,2.914,8.814,9.189c-1.469-3.032-3.094-5.908-7.314-6.189
									C211.813,165.809,214.897,166.761,215.801,168.238z"/>
								<path style="fill-rule:evenodd;clip-rule:evenodd;fill:#DD97A3;" d="M215.426,179.115c1.016,0.064,2.075,0.015,3.376-0.188
									c3.208,6.975,8.554,11.055,8.815,12.003c0.321,1.165,0.562,22.692,0.562,22.692c-1.783-0.379-3.835-1.577-5.626-2.813
									c-0.877-0.606-4.111-2.92-4.501-4.125c-0.394-1.219,0.401-19.922-0.027-21.697
									C217.599,183.228,215.954,181.336,215.426,179.115z"/>
								<path style="fill-rule:evenodd;clip-rule:evenodd;fill:#DD97A3;" d="M258.185,194.307l0.465,9.209
									c-10.725,1.804-19.75-2.617-24.283-8.835C240.58,197.33,253.201,196.973,258.185,194.307z"/>
							</g>
							<g>
								<g>
									<path style="fill-rule:evenodd;clip-rule:evenodd;fill:#3E38FF;" d="M263.621,149.447c0.013,0.758-2.335,1.415-5.242,1.463
										c-2.907,0.051-5.276-0.523-5.291-1.281c-0.011-0.758,2.336-1.412,5.243-1.465
										C261.238,148.113,263.605,148.688,263.621,149.447"/>
									<path style="fill-rule:evenodd;clip-rule:evenodd;fill:#3E38FF;" d="M262.725,157.163c0.221,1.639-0.572,3.096-1.766,3.257
										c-1.197,0.162-2.346-1.033-2.567-2.674c-0.223-1.635,0.57-3.092,1.767-3.253
										C261.356,154.332,262.505,155.527,262.725,157.163"/>
								</g>
								<g>
									<path style="fill-rule:evenodd;clip-rule:evenodd;fill:#3E38FF;" d="M246.303,150.842c0.251,0.832-2.138,2.302-5.342,3.277
										c-3.201,0.978-6.011,1.092-6.264,0.257c-0.255-0.836,2.138-2.305,5.344-3.283
										C243.244,150.118,246.045,150.001,246.303,150.842"/>
									<path style="fill-rule:evenodd;clip-rule:evenodd;fill:#3E38FF;" d="M244.865,160.775c0.221,1.637-0.566,3.098-1.762,3.258
										c-1.197,0.162-2.347-1.036-2.566-2.674c-0.221-1.635,0.569-3.091,1.766-3.254
										C243.497,157.945,244.644,159.14,244.865,160.775"/>
								</g>
								<g>
									<path style="fill:#DD97A3;" d="M253.774,178.586c0.068-0.008,0.132-0.022,0.197-0.045c1.68-0.546,2.791-1.406,3.394-2.633
										c1.215-2.46,0.05-5.743-1.421-9.895c-0.936-2.644-1.999-5.643-2.612-8.908c-0.116-0.6-0.702-1.007-1.293-0.882
										c-0.604,0.111-1,0.692-0.887,1.295c0.647,3.431,1.74,6.512,2.704,9.235c1.248,3.517,2.32,6.558,1.525,8.176
										c-0.33,0.662-1.013,1.153-2.093,1.504c-0.581,0.192-0.902,0.815-0.714,1.4C252.74,178.35,253.253,178.657,253.774,178.586"
										/>
									<path style="fill:#DD97A3;" d="M253.652,184.371c1.087-0.146,2.298-0.472,3.641-1.039c0.563-0.241,0.828-0.891,0.59-1.455
										c-0.24-0.562-0.897-0.827-1.454-0.588c-5.993,2.531-8.493-0.812-8.597-0.954c-0.356-0.492-1.048-0.607-1.54-0.262
										c-0.502,0.353-0.622,1.033-0.276,1.532C246.134,181.776,248.493,185.066,253.652,184.371"/>
								</g>
							</g>
						</g>
						<path style="fill-rule:evenodd;clip-rule:evenodd;fill:#3E38FF;" d="M263.465,125.832c4.003,0.18,9.166-1.477,10.526,1.689
							c2.206,5.121-8.507,11.141-14.76,12.923c-11.296,3.22-24.501,1.266-28.679-4.794c-0.383,1.725-0.946,3.481-1.989,5.307
							c-2.136,3.71-3.474,4.809-5.012,9.658c-1.268,4.005,2.021,17.428-1.609,18.039c-3.117,0.526-3.687-5.581-6.093-8.105
							c-2.688-2.82-5.926-1.824-5.926-1.824c-4.544-9.201-6.442-23.227,0.178-27.852c2.519-1.759,3.384-1.4,4.52-2.28
							c1.764-1.366,2.518-3.171,3.706-4.318c9.747-9.425,24.55-3.804,28.961-4.039c10.528-0.558,18.946-7.188,21.006-2.207
							C269.823,121.714,265.351,124.959,263.465,125.832"/>
					</g>
				</g>
				<g>
					<path style="fill-rule:evenodd;clip-rule:evenodd;fill:#FF6700;" d="M367.895,141.795c1.584,16.262-2.062,29.586-7.127,40.321
						c-10.048,21.299-26.237,38.91-45.947,51.199c-7.234,4.51-15.622,8.374-25.13,11.251c-3.213,0.972-6.734,2.242-7.689,4.315
						c-0.736,1.595-0.745,4.465-0.938,6.752c-0.198,2.352-0.456,4.818-0.562,6.938c-0.259,5.214-0.092,9.81-0.375,14.629
						c-0.143,2.423-0.526,4.748-0.563,7.126c-0.268,17.58,2.444,34.068,2.626,50.636c-8.357,2.43-18.746,1.751-27.381,0.376
						c-8.454-1.346-16.65-3.663-24.005-6.189c-12.102-4.157-22.595-7.852-32.257-15.753l-6.376-0.188c0,0,0-9.983,0-12.002
						c0-10.427,0.188-20.338,0.188-30.757c0-6.051-0.143-12.472-5.626-13.127c-2.537-0.304-7.223,1.279-9.752,2.062
						c-9.131,2.831-16.571,7.114-22.879,12.565c-8.182,7.071-15.455,17.629-12.003,33.382c-4.618-2.286-11.479-1.416-17.441-0.375
						c-9.11,1.592-22.43,7.016-25.505,9.94c-2.666-38.184,12.734-62.824,33.382-79.891c18.678-15.441,46.044-26.138,78.579-28.319
						c2.416-0.163,6.881-0.401,6.881-0.401c0.536,0.449,1.518,1.065,2.496,1.902c5.07,4.34,13.172,8.165,23.067,7.501
						c6.462-0.433,11.712-2.507,15.191-5.813c19.539-2.243,35.819-9.444,47.072-20.255c11.204-10.765,20.198-25.039,20.441-46.51
						C342.152,150.251,361.833,144.26,367.895,141.795z"/>
					<g>
						<path style="fill-rule:evenodd;clip-rule:evenodd;fill:#B24B06;" d="M367.895,141.795c2.085,16.464-1.817,29.465-6.751,40.508
							c-4.943,11.063-11.764,20.396-19.504,29.069c-12.87,14.419-30.19,26.299-51.573,33.569c-3.455,1.175-7.03,1.57-7.877,4.127
							c-0.854,2.575-0.188,7.422-0.188,11.065c0,10.842-0.188,22.565-0.188,33.007c0.001,10.581-0.121,21.698,0.375,32.632
							c0.072,1.59,0.021,9.348,0.021,9.348s-1.203,0.266-2.235,0.405c0,0-2.686-46.395-3.6-68.077
							c-0.145-3.451-0.375-7.402-0.375-11.814c0-3.716-1.121-9.238,0.188-11.253c0.99-1.526,5.69-2.891,8.431-3.811
							c8.873-2.979,17.597-6.349,24.95-10.442c20.102-11.191,36.699-27.568,46.322-48.573c4.959-10.825,8.603-22.171,8.754-38.578
							C365.718,142.613,367.108,142.143,367.895,141.795z"/>
						<path style="fill-rule:evenodd;clip-rule:evenodd;fill:#B24B06;" d="M198.548,313.394c-2.304,0.116-4.228-0.15-6.376-0.188
							c-0.041-11.184,0-26.02,0-38.633c0-2.097-0.09-4.287-0.188-6.376c-0.115-2.474,0.039-4.835-0.562-6.564
							c-0.575-1.656-2.064-3.321-3.563-3.751c-2.478-0.71-6.204,0.307-9.002,1.126c-2.974,0.868-5.526,1.937-7.501,2.813
							c-4.862,2.155-9.722,4.31-13.503,7.126c-7.113,5.297-15.438,13.551-16.316,24.943c-0.308,4.003,0.314,8.544,0.562,11.44
							c-0.305-0.212-1.251-0.525-1.251-0.525c-0.627-2.092-1.149-6.778-1.187-9.603c-0.182-13.505,6.194-23.274,14.628-30.005
							c4.196-3.348,8.852-5.815,14.253-8.064c5.109-2.129,11.422-4.481,17.629-4.501c13.398-0.046,12.007,14.587,12.002,28.88
							L198.548,313.394z"/>
						<path style="fill-rule:evenodd;clip-rule:evenodd;fill:#B24B06;" d="M206.875,207.018c-0.607,0.308-1.902,0.673-2.701,0.791
							c-21.621,3.193-40.546,11.451-55.511,21.942c-20.826,14.598-37.558,34.338-45.384,62.264
							c-1.491,5.319-2.582,12.663-3.29,22.198l-0.836,0.681c0,0-0.117-1.899-0.166-2.823c-0.377-7.193,0.011-14.827,1.103-21.744
							c3.578-22.663,14.525-39.458,28.318-52.138c9.387-8.628,20.498-15.476,33.006-20.628
							C174.715,212.081,190.061,208.392,206.875,207.018z"/>
						<path style="fill-rule:evenodd;clip-rule:evenodd;fill:#B24B06;" d="M326.927,143.399c1.78,22.27-7.488,37.463-18.294,48.502
							c-9.942,10.157-22.311,16.303-39.348,19.788c-4.298,0.879-7.076,0.542-8.099,1.216c-6.894,4.547-15.734,7.442-24.38,6.003
							c-4.565-0.76-8.253-2.23-11.44-4.314c-3.061-2.001-6.339-4.437-7.913-8.281l0.528-0.188c0.768,0.644,1.476,1.355,1.843,1.694
							c5.065,4.675,13.483,8.225,23.92,7.526c4.871-0.327,8.676-1.741,12.003-3.751c1.038-0.627,2.994-2.15,2.994-2.15
							c1.241,0,2.883-0.11,4.133-0.287c17.873-2.531,32.077-9.417,42.946-19.693c11.282-10.665,19.742-24.746,20.441-46.355
							L326.927,143.399z"/>
					</g>
				</g>
			</g>
			<g>
				<path style="fill-rule:evenodd;clip-rule:evenodd;fill:#3E38FF;" d="M96.53,385.009c1.818-0.218,5.229,0.105,7.15-2.083
					c0.951-1.085,1.31-2.786,0.32-4.374c-2.741-4.398-10.121-0.832-10.048,3.65c-5.828-1.031-12.849-3.54-18.701-8.275
					c-9.052-7.326-15.991-21.882-2.987-27.111c1.687,1.987,3.828,4.028,6.157,5.067c1.491,0.663,4.108,1.426,5.797-0.061
					c1.544-1.36,0.646-3.826-1.206-5.458c-2.664-2.348-6.563-2.192-9.551-2.229c-2.836-4.345-3.26-8.517-3.042-12.471
					c0.043-0.792-0.009-2.159-0.959-2.249c-1.544-0.146-1.374,2.26-1.393,3.279c-0.07,3.792,0.671,7.995,2.929,12.091
					c-8.018,3.19-9.337,10.842-7.12,17.277c2.812,8.162,10.081,14.232,16.151,17.589c4.652,2.573,9.484,4.095,14.018,5.097
					c1.295,4.987,6.81,8.178,10.457,9.894c8.156,3.836,16.219,5.047,24.715,8.522c2.273,0.93,3.372-1.275,0.871-2.195
					c-1.143-0.605-2.825-1.193-3.996-1.611c-7.175-2.561-14.738-3.723-21.929-7.398C101.362,390.53,98.178,388.567,96.53,385.009z
					 M75.119,346.508c1.561-0.55,7.326,0.939,7.592,3.602C79.99,351.221,77.263,348.887,75.119,346.508z M96.159,382.501
					c-0.101-2.689,4.565-5.366,5.983-2.65C103.599,382.641,97.117,383,96.159,382.501z"/>
				<g>
					<g>
						<g>
							<path style="fill:#3E38FF;" d="M322.975,104.813V94.395c0-6.215,2.076-13.978,11.966-15.664l0.32-0.057
								c49.18-9.616,78.247-26.712,88.461-33.615l0.623-0.424c3.569-2.434,8.013-5.465,13.69-3.17
								c2.979,1.203,4.981,4.306,4.981,7.721V59.56l-1.924,1.308c-9.914,6.7-47.632,29.652-116.712,43.66L322.975,104.813z
								 M433.991,42.999c-3.086,0-5.738,1.809-8.325,3.573l-0.631,0.429c-10.333,6.984-39.721,24.275-89.324,33.974
								c-0.102,0.02-0.227,0.042-0.375,0.066c-2.478,0.423-10.017,1.708-10.017,13.353v7.549
								c67.761-13.945,104.704-36.424,114.46-43.018l0.892-0.606v-9.133c0-2.469-1.413-4.699-3.514-5.548
								C436.047,43.191,434.996,42.999,433.991,42.999z"/>
							<path style="fill:#3E38FF;" d="M331.453,160.596c-2.11,0-4.133-0.78-5.697-2.197v0c-1.767-1.603-2.781-3.892-2.781-6.28
								v-49.697l0.939-0.19c68.654-13.922,106.041-36.666,115.865-43.305l3.236-2.2v55.005c0,2.128-0.792,4.163-2.231,5.733
								c-22.035,24.013-57.528,38.109-108.507,43.092C332.005,160.583,331.728,160.596,331.453,160.596z M327.331,156.662
								c1.277,1.157,2.973,1.734,4.717,1.561c50.38-4.926,85.382-18.777,107.009-42.344c1.041-1.135,1.614-2.609,1.614-4.149v-50.58
								c-10.478,7.009-47.803,29.353-115.352,43.186v47.782C325.319,153.846,326.052,155.502,327.331,156.662L327.331,156.662z"/>
						</g>
						<g>
							<g>
								<path style="fill-rule:evenodd;clip-rule:evenodd;fill:#CCCCF2;" d="M396.821,129.618c0.005,1.381-1.107,2.912-2.481,3.419
									l-9.479,3.497c-1.373,0.507-2.49-0.188-2.495-1.552l0,0c-0.004-1.364,1.106-2.885,2.48-3.398l9.479-3.538
									C395.699,127.533,396.817,128.237,396.821,129.618L396.821,129.618z"/>
								<path style="fill:#FFD300;" d="M390.181,102.744l0.045,15.055c0.73-0.005,1.256,0.514,1.258,1.364
									c0.004,1.088-0.845,2.294-1.894,2.693c-1.049,0.399-1.902-0.157-1.905-1.242c-0.003-0.87,0.546-1.81,1.303-2.359
									l-0.045-15.12l-8.847,18.824l3.805,9.977l5.713-2.132l5.714-2.133l3.735-12.981L390.181,102.744z"/>
							</g>
							<g>
								<path style="fill:#3E38FF;" d="M354.704,145.711c-0.698-19.583,14.416-42.509,33.694-51.105
									c9.558-4.263,18.705-4.186,25.759,0.215c6.965,4.347,11,12.377,11.363,22.613l-2.132,0.076
									c-0.337-9.504-4.016-16.919-10.361-20.878c-6.433-4.015-14.872-4.041-23.76-0.077c-18.553,8.273-33.102,30.29-32.432,49.08
									L354.704,145.711z"/>
								<g>
									<polygon style="fill-rule:evenodd;clip-rule:evenodd;fill:#3E38FF;" points="391.271,97.025 386.527,99.129 
										386.352,94.165 391.094,92.038 									"/>
									
										<rect x="368.876" y="94.054" transform="matrix(0.913 -0.4079 0.4079 0.913 -4.9878 166.8451)" style="fill:#3E38FF;" width="39.838" height="2.133"/>
									<path style="fill:#3E38FF;" d="M409.058,86.074c0.044,1.225-0.849,2.632-1.995,3.141c-1.147,0.509-2.11-0.068-2.154-1.289
										c-0.043-1.221,0.849-2.627,1.995-3.141C408.051,84.271,409.014,84.848,409.058,86.074z"/>
									<path style="fill:#3E38FF;" d="M372.68,102.315c0.041,1.184-0.853,2.556-1.998,3.065c-1.147,0.509-2.108-0.035-2.151-1.213
										c-0.042-1.178,0.852-2.549,1.998-3.064C371.675,100.589,372.638,101.132,372.68,102.315z"/>
								</g>
								<g>
									<polygon style="fill-rule:evenodd;clip-rule:evenodd;fill:#3E38FF;" points="426.984,120.89 422.235,122.821 
										422.052,117.689 426.8,115.735 									"/>
									
										<rect x="422.963" y="92.894" transform="matrix(0.9994 -0.0354 0.0354 0.9994 -3.471 15.0872)" style="fill:#3E38FF;" width="2.133" height="25.204"/>
									<path style="fill:#3E38FF;" d="M423.662,95.151c-1.146,0.495-2.111-0.107-2.155-1.347c-0.044-1.24,0.85-2.651,1.995-3.151
										c1.146-0.499,2.112,0.103,2.156,1.348C425.702,93.246,424.809,94.656,423.662,95.151z"/>
								</g>
								<g>
									<polygon style="fill-rule:evenodd;clip-rule:evenodd;fill:#3E38FF;" points="358.333,148.793 353.583,150.722 
										353.412,145.921 358.161,143.97 									"/>
									
										<rect x="354.303" y="122.679" transform="matrix(0.9994 -0.0356 0.0356 0.9994 -4.5652 12.7463)" style="fill:#3E38FF;" width="2.133" height="23.58"/>
									<path style="fill:#3E38FF;" d="M355.025,124.79c-1.145,0.494-2.109-0.044-2.15-1.204c-0.04-1.16,0.855-2.505,2-3.004
										c1.146-0.5,2.109,0.039,2.151,1.204C357.068,122.95,356.171,124.296,355.025,124.79z"/>
								</g>
							</g>
						</g>
						<g>
							<path style="fill:#3E38FF;" d="M331.37,99.597c-0.453,0-0.888-0.14-1.252-0.41c-0.597-0.443-0.939-1.183-0.939-2.03V86.833
								c0-1.452,1.006-2.789,2.29-3.042l9.652-2.535c0.752-0.15,1.438,0.018,1.955,0.443c0.546,0.45,0.86,1.146,0.86,1.911v10.693
								c0,1.343-0.937,2.639-2.179,3.013c-0.027,0.008-0.054,0.015-0.082,0.021l-9.688,2.174
								C331.78,99.569,331.573,99.597,331.37,99.597z M341.588,83.556l-9.595,2.519c-0.189,0.04-0.47,0.353-0.47,0.758v10.324
								c0,0.02,0.001,0.039,0.002,0.056l9.58-2.15c0.221-0.087,0.486-0.447,0.486-0.76V83.61
								C341.591,83.589,341.589,83.571,341.588,83.556z M341.417,96.193h0.008H341.417z"/>
							<path style="fill:#3E38FF;" d="M336.379,95.572c-0.423,0-0.815-0.228-1.023-0.601l-2.609-4.67
								c-0.316-0.565-0.114-1.279,0.452-1.595c0.566-0.314,1.279-0.114,1.595,0.452l1.42,2.542l2.551-6.256
								c0.244-0.599,0.927-0.888,1.528-0.643c0.599,0.245,0.887,0.929,0.642,1.528l-3.471,8.512c-0.17,0.417-0.564,0.7-1.013,0.727
								C336.427,95.571,336.403,95.572,336.379,95.572z"/>
						</g>
					</g>
					<g>
						<path style="fill-rule:evenodd;clip-rule:evenodd;fill:#FFD300;" d="M402.211,34.537c2.14-0.405,4.022,1.078,4.079,3.119
							c0.133,4.742-6.839,4.349-6.839,0.12C399.451,35.971,400.474,34.866,402.211,34.537z"/>
						<path style="fill-rule:evenodd;clip-rule:evenodd;fill:#FFD300;" d="M407.62,63.367c0.114,2.986-2.836,5.137-5.842,4.919
							c-7.192-0.521-13.218-7.565-13.052-14.324c0.087-3.495,1.904-6.858,4.35-7.856c2.269-0.925,4.838,0.459,5.426,2.276
							c0.439,1.356-0.14,3.297,0.08,4.835c0.108,0.754,0.379,1.527,0.735,2.131C401.173,58.507,407.431,58.417,407.62,63.367z"/>
						<path style="fill-rule:evenodd;clip-rule:evenodd;fill:#FFD300;" d="M409.414,45.079c0.75-1.413,0.474-3.534,1.313-4.871
							c0.931-1.485,3.077-2.414,4.68-2.433c2.563-0.032,5.214,1.91,6.897,3.75c2.519,2.752,3.974,7.042,7.958,7.581
							c4.054,0.549,7.263-2.842,11.473-3.297c3.625-0.392,7.198,1.208,8.292,4.716c0.833,2.675-0.366,4.812-1.989,5.848
							c-1.542,0.983-3.762,0.778-5.303,1.692c-0.812,0.481-1.394,1.356-1.525,2.349c-0.401,3.034,2.776,5.679,3.675,8.844
							c1.3,4.584-0.048,8.552-2.872,10.396c-2.011,1.314-5.491,1.293-7.329,0.596c-2.824-1.069-5.848-4.02-7.109-7.613
							c-0.751-2.139-1.06-4.956-2.088-6.815c-1.273-2.3-3.378-4.276-5.619-5.444c-4.015-2.094-9.121-2.719-12.68-5.385
							c-0.891-0.667-3.146-2.724-3.248-5.142C403.832,47.34,406.234,45.623,409.414,45.079z"/>
					</g>
				</g>
				<g>
					<path style="fill-rule:evenodd;clip-rule:evenodd;fill:#3E38FF;" d="M267.662,86.326c-3.839-2.735-8.174-4.744-12.871-6.076
						c-6.258-1.774-15.362-2.145-22.912-0.097c-0.815-4.66-5.428-5.785-10.081-5.114c-10.32,1.488-17.928,6.833-25.775,11.58
						c-7.31,4.42-14.068,9.277-22.005,12.481c-2.857,1.062-1.818,3.105-0.421,2.534c2.72-1.112,5.365-2.357,7.961-3.732
						c9.932-5.255,18.172-11.737,28.207-16.727c3.364-1.673,7.219-3.401,11.377-3.96c4.455-0.598,7.916-0.224,8.653,3.456
						c-5.925,1.9-11.177,4.328-15.064,8.144c-1.191,1.168-2.715,2.955-2.449,4.914c0.234,1.732,1.921,2.604,3.514,2.677
						c3.731,0.169,7.074-2.062,9.591-4.175c2.58-2.166,4.744-4.85,5.793-7.418c0.384-0.936,0.741-1.799,0.863-2.544
						c6.593-1.659,13.707-1.698,19.435-0.577c2.784,0.544,5.445,1.464,7.865,2.454c2.497,1.019,5.008,2.348,6.901,3.709
						c0.578,0.416,3.184,2.6,3.811,1.946C271.104,88.709,268.207,86.715,267.662,86.326z M229.409,83.298
						c-1.813,4.166-4.989,8.033-9.717,10.087c-1.471,0.641-4.541,1.628-5.171,0.287c-0.576-1.221,1.089-2.852,2.179-3.83
						c3.15-2.832,8.036-5.226,12.575-6.769C229.389,83.067,229.561,82.98,229.409,83.298z"/>
					<path style="fill:#3E38FF;" d="M337.139,48.756l-0.085-0.107l-0.007,0.005c-0.365-0.363-0.953-0.39-1.349-0.048
						c-0.355,0.308-0.436,0.833-0.19,1.248c0,0,0.297,0.504,0.445,0.753c2.652,4.436,2.81,10.095,0.424,15.139
						c-2.887,6.107-8.838,10.138-15.922,10.783c-15.14,1.364-25.733-14.369-27.799-22.699l-0.075-0.31
						c-0.044-0.186-0.089-0.374-0.134-0.562c4.581-4.002,6.285-9.045,6.351-12.157c0.077-3.78-1.36-4.715-2.222-4.935
						c-1.553-0.403-3.29,0.919-4.651,3.531c-2.686,5.146-2.317,9.532-1.679,12.792c-0.49,0.375-1.009,0.73-1.543,1.059
						c-19.534,12.022-52.212,1.461-76.071-6.251l-0.168-0.053c-5.174-1.672-10.06-3.25-14.197-4.381
						c-9.746-2.673-20.285-1.999-28.91,1.85c-8.449,3.773-14.268,10.075-16.385,17.745c-1.647,5.968,0.777,10.734,2.368,13.044
						c2.03,2.938,4.789,5.006,7.201,5.394c0.098,0.016,0.265,0.017,0.332,0.017c0.017,0,0.028,0,0.029,0
						c0.246-0.003,0.467-0.083,0.64-0.231c0.2-0.174,0.321-0.415,0.34-0.68c0.019-0.265-0.066-0.521-0.239-0.72
						c-0.136-0.158-0.323-0.262-0.559-0.311l-0.291-0.055c-1.828-0.328-4.163-2.156-5.811-4.547
						c-1.395-2.02-3.521-6.185-2.087-11.381c1.944-7.053,7.641-13.083,15.629-16.546c8.28-3.612,17.945-4.2,27.217-1.659
						c4.162,1.14,9.076,2.729,14.277,4.413c24.23,7.829,57.415,18.552,77.731,6.05c0.327-0.202,0.654-0.417,0.974-0.641v0
						c2.202,8.895,13.586,25.686,29.912,24.206c7.79-0.708,14.349-5.161,17.545-11.913v-0.001
						C341.027,60.579,340.637,53.908,337.139,48.756z M296.803,40.763c-0.047,2.434-1.337,6.462-4.803,9.898
						c-0.397-2.611-0.515-6.109,1.691-10.341c1.023-1.955,1.958-2.529,2.326-2.529c0.025,0,0.047,0.002,0.067,0.007
						C296.338,37.862,296.848,38.672,296.803,40.763z"/>
				</g>
				<g>
					<g>
						<g>
							<path style="fill:#CCCCF2;" d="M100.221,97.936c0.79,0.082,1.493,0.067,2.174,0.053c1.294-0.026,2.515-0.052,3.699,0.685
								c1.15,0.717,1.537,2.422,1.585,3.317c0.024,0.462-0.005,0.88-0.03,1.248c-0.049,0.723-0.064,1.117,0.176,1.48
								c0.326,0.493,1.152,0.939,2.099,0.839c0.143-0.015,0.285-0.043,0.422-0.082c1.005-0.287,2.455-1.858,3.414-2.898
								c0.147-0.16,0.287-0.311,0.416-0.448c0.277-0.296,0.554-0.618,0.845-0.961c1.068-1.248,2.173-2.54,3.651-2.85
								c0.241-0.051,0.492-0.09,0.765-0.119c0.763-0.081,1.557-0.071,2.476-0.058c0.625,0.008,1.272,0.017,1.989-0.002h0.027
								l14.772,0.12c0.219,0.002,0.44-0.008,0.657-0.032c2.872-0.306,5.056-2.717,5.079-5.611l0.189-23.233
								c0.026-3.136-2.505-5.709-5.642-5.735l-38.09-0.312c-0.22-0.001-0.44,0.009-0.657,0.032
								c-2.872,0.306-5.056,2.718-5.079,5.611l-0.19,23.232c-0.024,2.882,2.114,5.326,4.971,5.687L100.221,97.936z"/>
							<g>
								<path style="fill:#FFFFFF;" d="M109.097,79.151c-1.125,0.119-1.984,1.066-1.994,2.201c-0.006,0.597,0.221,1.161,0.639,1.587
									c0.418,0.426,0.978,0.664,1.574,0.67c0.088,0.001,0.175-0.004,0.263-0.013c1.125-0.12,1.984-1.066,1.995-2.201
									c0.005-0.597-0.221-1.161-0.639-1.587c-0.418-0.426-0.978-0.664-1.574-0.67C109.272,79.138,109.184,79.142,109.097,79.151z"
									/>
								<path style="fill:#FFFFFF;" d="M119.061,79.248c-1.126,0.12-1.985,1.066-1.995,2.2c-0.006,0.598,0.221,1.161,0.639,1.587
									c0.418,0.427,0.978,0.665,1.575,0.671c0.088,0.001,0.176-0.004,0.262-0.013c1.126-0.12,1.984-1.066,1.995-2.201
									c0.005-0.597-0.221-1.161-0.639-1.587c-0.418-0.426-0.977-0.664-1.574-0.67C119.234,79.234,119.147,79.239,119.061,79.248z"
									/>
								<path style="fill:#FFFFFF;" d="M129.024,79.345c-1.126,0.12-1.984,1.066-1.995,2.201c-0.006,0.597,0.221,1.161,0.64,1.587
									c0.418,0.426,0.977,0.664,1.573,0.669c0.089,0.002,0.176-0.003,0.263-0.012c1.127-0.12,1.984-1.066,1.995-2.201
									c0.005-0.597-0.221-1.161-0.64-1.587c-0.418-0.426-0.977-0.664-1.574-0.67C129.198,79.331,129.111,79.336,129.024,79.345z"
									/>
							</g>
						</g>
						<g>
							<path style="fill:#B9B9EA;" d="M92.989,124.06c-0.578,0.06-1.093,0.049-1.592,0.039c-0.948-0.019-1.842-0.039-2.71,0.502
								c-0.842,0.525-1.126,1.775-1.161,2.43c-0.018,0.338,0.003,0.645,0.021,0.914c0.036,0.53,0.047,0.818-0.129,1.085
								c-0.239,0.361-0.843,0.688-1.538,0.614c-0.104-0.011-0.208-0.031-0.309-0.06c-0.736-0.21-1.799-1.361-2.501-2.123
								c-0.108-0.117-0.21-0.227-0.304-0.328c-0.203-0.217-0.405-0.453-0.619-0.704c-0.783-0.915-1.592-1.861-2.675-2.088
								c-0.176-0.037-0.36-0.066-0.56-0.087c-0.559-0.059-1.14-0.052-1.814-0.043c-0.458,0.006-0.932,0.013-1.457-0.001h-0.02
								L64.8,124.297c-0.16,0.001-0.322-0.006-0.481-0.023c-2.104-0.224-3.703-1.991-3.721-4.11l-0.138-17.019
								c-0.019-2.297,1.834-4.183,4.132-4.201l27.903-0.228c0.161-0.001,0.323,0.006,0.482,0.023c2.104,0.224,3.703,1.991,3.72,4.11
								l0.14,17.018c0.017,2.112-1.548,3.902-3.642,4.166L92.989,124.06z"/>
							<g>
								<path style="fill:#FFFFFF;" d="M86.487,110.299c0.824,0.088,1.453,0.781,1.461,1.613c0.005,0.437-0.162,0.85-0.468,1.163
									c-0.307,0.312-0.716,0.486-1.154,0.491c-0.064,0.001-0.128-0.003-0.192-0.01c-0.825-0.088-1.454-0.781-1.461-1.612
									c-0.005-0.437,0.162-0.85,0.468-1.163c0.307-0.312,0.717-0.486,1.154-0.491C86.358,110.289,86.423,110.292,86.487,110.299z"
									/>
								<path style="fill:#FFFFFF;" d="M79.188,110.37c0.826,0.088,1.454,0.78,1.461,1.612c0.005,0.438-0.162,0.851-0.468,1.163
									c-0.307,0.313-0.716,0.487-1.154,0.491c-0.064,0.001-0.128-0.003-0.192-0.009c-0.825-0.088-1.453-0.781-1.46-1.612
									c-0.005-0.437,0.162-0.85,0.468-1.162c0.307-0.313,0.716-0.487,1.154-0.491C79.061,110.36,79.125,110.363,79.188,110.37z"/>
								<path style="fill:#FFFFFF;" d="M71.89,110.441c0.826,0.088,1.454,0.781,1.461,1.612c0.005,0.437-0.162,0.851-0.469,1.163
									c-0.306,0.312-0.715,0.487-1.153,0.49c-0.064,0.001-0.129-0.002-0.192-0.009c-0.825-0.088-1.453-0.781-1.461-1.612
									c-0.003-0.437,0.162-0.85,0.469-1.163c0.306-0.312,0.715-0.487,1.152-0.491C71.762,110.431,71.826,110.434,71.89,110.441z"
									/>
							</g>
						</g>
					</g>
					<g>
						<g>
							<path style="fill:#3E38FF;" d="M79.775,233.302c-1.028,0-2.07-0.197-3.108-0.674l-0.001-0.001
								c-3.145-1.452-5.177-4.627-5.177-8.089v-54.353l0.478-0.351c31.024-22.809,75.92-38.324,123.175-42.569
								c0.723-0.066,1.391-0.068,2.278,0.053l1.014,0.138v54.324c0,4.261-3.078,7.946-7.318,8.763
								c-52.046,10.052-83.73,28.531-98.956,37.412c-2.612,1.523-4.675,2.726-6.211,3.507
								C84.065,232.421,81.951,233.302,79.775,233.302z M77.648,230.498c2.319,1.068,4.85,0.09,7.24-1.125
								c1.476-0.751,3.513-1.939,6.093-3.443c14.14-8.247,47.254-27.56,99.692-37.689c3.139-0.605,5.418-3.322,5.418-6.461v-52.217
								c-0.244,0-0.49,0.015-0.735,0.037c-46.601,4.185-90.85,19.402-121.521,41.773v53.166
								C73.833,227.089,75.331,229.428,77.648,230.498L77.648,230.498z"/>
							<path style="fill:#3E38FF;" d="M71.489,173.095v-15.428c0-8.671,1.919-13.71,6.222-16.336
								c21.342-13.025,57.916-29.552,110.959-34.316c2.518-0.223,4.989,0.588,6.841,2.268c1.857,1.684,2.922,4.088,2.922,6.597
								v13.942l-1.33-0.181c-0.714-0.097-1.202-0.09-1.749-0.041c-46.844,4.207-91.31,19.56-121.999,42.123L71.489,173.095z
								 M189.529,109.318c-0.215,0-0.432,0.012-0.649,0.032c-52.593,4.723-88.819,21.087-109.948,33.982
								c-2.521,1.539-5.099,4.445-5.099,14.335v10.816c30.943-22.069,74.993-37.058,121.309-41.217
								c0.315-0.029,0.633-0.047,0.947-0.047V115.88c0-1.849-0.785-3.62-2.152-4.861
								C192.727,109.922,191.161,109.318,189.529,109.318z"/>
						</g>
						<g>
							<path style="fill:#FF6700;" d="M79.16,161.286c-0.318,0-0.626-0.082-0.904-0.245c-0.607-0.358-0.955-1.042-0.955-1.876
								V148.66c0-1.229,0.755-2.558,1.756-3.089l8.198-4.356c0.649-0.344,1.346-0.347,1.913-0.011c0.6,0.356,0.95,1.029,0.96,1.846
								l0.128,10.248v0c0.015,1.207-0.732,2.537-1.739,3.094l-8.326,4.612C79.854,161.192,79.501,161.286,79.16,161.286z
								 M87.791,143.585l-7.634,4.055c-0.202,0.107-0.512,0.607-0.512,1.02v9.968l7.737-4.286c0.238-0.132,0.535-0.635,0.53-1.014v0
								L87.791,143.585z"/>
							<path style="fill:#FF6700;" d="M85.9,153.958c-0.234,0-0.47-0.07-0.676-0.215l-4.475-3.167
								c-0.528-0.374-0.654-1.106-0.28-1.634c0.374-0.528,1.105-0.653,1.634-0.28l4.475,3.167c0.528,0.374,0.654,1.106,0.28,1.634
								C86.629,153.786,86.267,153.958,85.9,153.958z"/>
							<path style="fill:#FF6700;" d="M81.442,156.399c-0.191,0-0.385-0.047-0.565-0.146c-0.567-0.313-0.773-1.026-0.46-1.593
								l4.408-7.99c0.313-0.567,1.025-0.772,1.593-0.46c0.567,0.313,0.773,1.026,0.46,1.593l-4.408,7.99
								C82.256,156.18,81.856,156.399,81.442,156.399z"/>
						</g>
						<g>
							<g>
								<path style="fill:#FFD300;" d="M162.769,119.686l-1.087-2.481l-1.065,2.491c-21.747,50.89-21.747,50.89-21.747,51.177
									c0,5.752,11.009,10.99,23.097,10.99c12.088,0,23.097-5.238,23.097-10.99C185.065,170.58,185.065,170.58,162.769,119.686z"/>
								<g>
									<path style="fill:#FFFFFF;" d="M155.691,139.267l-9.263,36.915c-1.602-0.813-2.881-1.706-3.77-2.598L155.691,139.267z"/>
									<path style="fill:#FFFFFF;" d="M159.004,135.698l-4.205,43.186c-2.306-0.418-4.391-1.021-6.197-1.73L159.004,135.698z"/>
									<path style="fill:#FFFFFF;" d="M168.075,140.004l12.995,33.782c-0.878,0.826-2.087,1.649-3.574,2.402L168.075,140.004z"/>
									<path style="fill:#FFFFFF;" d="M175.326,177.157c-2.002,0.786-4.347,1.439-6.956,1.858l-4.16-44.555L175.326,177.157z"/>
									<path style="fill:#FFFFFF;" d="M182.658,171.388l-1.358-3.531c0.715,1.636,1.21,2.77,1.41,3.231
										C182.701,171.186,182.682,171.287,182.658,171.388z"/>
									<path style="fill:#FFFFFF;" d="M157.121,179.23l4.55-46.728l4.372,46.814c-1.307,0.13-2.668,0.203-4.075,0.203
										C160.281,179.518,158.662,179.414,157.121,179.23z"/>
								</g>
							</g>
							<g>
								<path style="fill:#3E38FF;" d="M156.138,172.624c0-0.024,0.003-0.047,0.003-0.071h-0.002
									c0.024-0.497,0.038-0.996,0.038-1.499c0-17.074-13.891-30.964-30.965-30.964c-0.001,0-0.002,0-0.004,0
									c-0.001,0-0.001,0-0.003,0c-0.011,0-0.022,0.001-0.034,0.001c-11.459,0.014-21.474,6.291-26.815,15.58
									c-0.492,0.658-0.834,1.29-1.002,1.877c-1.989,4.084-3.107,8.667-3.107,13.506c0,0.639,0.025,1.272,0.064,1.902l-0.007,0
									c0.012,0.315,0.039,0.628,0.078,0.938c0.773,8.45,4.948,15.931,11.148,21.049c0.028,0.024,0.051,0.057,0.079,0.081
									l0.009-0.012c5.342,4.376,12.165,7.007,19.592,7.007c16.111,0,29.382-12.37,30.828-28.111
									c0.055-0.414,0.091-0.83,0.095-1.251C156.137,172.646,156.137,172.635,156.138,172.624z"/>
								<g>
									<path style="fill:#FFFFFF;" d="M104.902,186.068c3.242,1.616,7.079,2.839,11.312,3.551
										c0.261,2.921,0.674,5.918,1.258,8.983c-3.862-1.087-7.398-2.958-10.416-5.442
										C105.863,192.082,105.082,189.514,104.902,186.068z"/>
									<path style="fill:#FFFFFF;" d="M96.945,174.799c0.489-3.282,1.482-6.388,2.9-9.242c1.296,1.757,3.023,3.348,5.1,4.721
										c-0.14,0.421-0.27,0.828-0.384,1.203c-1.098,3.628-1.735,7.28-1.942,10.621C99.667,180.039,97.665,177.544,96.945,174.799z
										"/>
									<path style="fill:#FFFFFF;" d="M125.209,142.434c0.527,0,1.047,0.021,1.561,0.055c-0.54,0.782-1.075,1.61-1.6,2.486
										c-0.58-0.967-1.146-1.791-1.683-2.472c0.552-0.04,1.11-0.067,1.677-0.068C125.179,142.435,125.194,142.434,125.209,142.434
										z"/>
									<path style="fill:#FFFFFF;" d="M149.845,161.282c-2.639-4.082-5.532-7.149-8.487-9.421c0.058-0.245,0.107-0.49,0.137-0.74
										c3.29,1.572,6.313,3.732,8.943,6.427c0.055,0.102,0.106,0.207,0.16,0.31C150.559,159.031,150.302,160.177,149.845,161.282z
										"/>
									<path style="fill:#FFFFFF;" d="M152.215,161.579c0.772,2.195,1.284,4.51,1.498,6.911c-0.778-1.748-1.593-3.38-2.445-4.877
										C151.646,162.951,151.96,162.271,152.215,161.579z"/>
									<path style="fill:#FFFFFF;" d="M121.914,144.252c-1.059-0.406-2.049-0.713-2.964-0.95c0.564-0.163,1.148-0.305,1.75-0.425
										C121.073,143.221,121.483,143.685,121.914,144.252z"/>
									<path style="fill:#FFFFFF;" d="M139.214,150.309c0,0.014-0.004,0.029-0.004,0.043c-0.277-0.178-0.554-0.348-0.831-0.513
										c0.274,0.096,0.547,0.195,0.819,0.299C139.2,150.195,139.214,150.251,139.214,150.309z"/>
									<path style="fill:#FFFFFF;" d="M136.137,155.161c-2.127-2.73-4.29-4.812-6.325-6.404c2.888,0.695,5.858,1.911,8.753,3.875
										C138.039,153.556,137.201,154.41,136.137,155.161z"/>
									<path style="fill:#FFFFFF;" d="M125.127,149.948c0.988,2.235,1.956,4.929,2.793,8.081
										c-0.881,0.102-1.789,0.157-2.714,0.157c-1.143,0-2.253-0.091-3.326-0.244C122.838,155.029,123.94,152.358,125.127,149.948z
										"/>
									<path style="fill:#FFFFFF;" d="M119.579,157.491c-1.457-0.372-2.786-0.881-3.94-1.496c1.909-2.156,4.171-4.196,6.849-5.939
										C121.428,152.334,120.446,154.818,119.579,157.491z"/>
									<path style="fill:#FFFFFF;" d="M127.727,150.114c2.018,1.491,4.202,3.511,6.36,6.232c-1.148,0.538-2.449,0.971-3.848,1.285
										C129.485,154.788,128.627,152.276,127.727,150.114z"/>
									<path style="fill:#FFFFFF;" d="M131.689,145.941c1.245-0.341,2.553-0.617,3.918-0.831c1.016,0.639,1.863,1.362,2.473,2.153
										C136.014,146.618,133.875,146.177,131.689,145.941z"/>
									<path style="fill:#FFFFFF;" d="M128.171,144.605c0.412-0.625,0.828-1.224,1.247-1.79c0.891,0.164,1.746,0.38,2.555,0.637
										C130.647,143.779,129.38,144.164,128.171,144.605z"/>
									<path style="fill:#FFFFFF;" d="M119.268,145.84c-2.418,0.267-4.758,0.775-6.956,1.449c0.655-0.859,1.589-1.639,2.717-2.317
										C116.058,145.076,117.521,145.316,119.268,145.84z"/>
									<path style="fill:#FFFFFF;" d="M111.615,149.997c-0.138,0.077-0.273,0.157-0.41,0.236c0-0.03,0.007-0.059,0.008-0.089
										C111.347,150.095,111.48,150.045,111.615,149.997z"/>
									<path style="fill:#FFFFFF;" d="M119.519,149.247c-2.247,1.661-4.194,3.512-5.872,5.445
										c-0.787-0.645-1.406-1.356-1.827-2.111C114.207,151.143,116.793,150.014,119.519,149.247z"/>
									<path style="fill:#FFFFFF;" d="M112.154,156.519c-3.052,3.967-5.078,8.099-6.378,11.448
										c-1.985-1.386-3.574-2.985-4.655-4.733c2.246-3.697,5.234-6.879,8.738-9.363
										C110.416,154.834,111.191,155.723,112.154,156.519z"/>
									<path style="fill:#FFFFFF;" d="M114.094,157.854c1.392,0.799,3.003,1.452,4.792,1.908
										c-1.116,3.875-1.987,8.101-2.502,12.636c-3.2-0.702-6.11-1.79-8.581-3.167
										C109.041,165.954,111.024,161.809,114.094,157.854z"/>
									<path style="fill:#FFFFFF;" d="M121.18,160.218c1.286,0.197,2.629,0.313,4.025,0.313c1.127,0,2.222-0.069,3.28-0.199
										c0.841,3.672,1.496,7.877,1.825,12.599c-1.757,0.242-3.573,0.373-5.429,0.373c-2.132,0-4.208-0.164-6.195-0.473
										C119.189,168.288,120.06,164.069,121.18,160.218z"/>
									<path style="fill:#FFFFFF;" d="M130.807,159.924c1.734-0.384,3.33-0.936,4.726-1.638c2.086,2.975,4.103,6.663,5.873,11.228
										c-2.557,1.333-5.527,2.373-8.757,3.022C132.311,167.834,131.656,163.626,130.807,159.924z"/>
									<path style="fill:#FFFFFF;" d="M137.543,157.072c1.238-0.885,2.227-1.908,2.914-3.033c2.865,2.309,5.62,5.418,8.11,9.556
										c-1.232,1.756-2.98,3.356-5.115,4.731C141.669,163.8,139.644,160.094,137.543,157.072z"/>
									<path style="fill:#FFFFFF;" d="M141.285,148.447c-0.14-0.495-0.337-0.976-0.584-1.442c1.467,0.949,2.842,2.026,4.11,3.219
										C143.669,149.564,142.494,148.966,141.285,148.447z"/>
									<path style="fill:#FFFFFF;" d="M109.136,148.411c-1.08,0.434-2.11,0.905-3.081,1.401c1.136-1.025,2.358-1.956,3.647-2.791
										C109.465,147.47,109.274,147.933,109.136,148.411z"/>
									<path style="fill:#FFFFFF;" d="M100.323,156.953c1.359-1.702,4.44-4.02,8.591-5.876c0.021,0.182,0.047,0.362,0.082,0.541
										c-3.551,2.424-6.628,5.508-9.038,9.09c-0.232-0.745-0.373-1.507-0.42-2.284
										C99.785,157.924,100.048,157.435,100.323,156.953z"/>
									<path style="fill:#FFFFFF;" d="M98.426,163.216c-0.501,0.905-0.962,1.836-1.38,2.791c0.232-1.296,0.548-2.562,0.949-3.792
										C98.125,162.554,98.268,162.887,98.426,163.216z"/>
									<path style="fill:#FFFFFF;" d="M104.878,183.498c0.101-3.353,0.693-7.263,1.926-11.338
										c0.063-0.208,0.132-0.427,0.203-0.651c2.661,1.432,5.755,2.544,9.146,3.252c-0.333,3.951-0.392,8.117-0.121,12.464
										C111.768,186.471,107.964,185.184,104.878,183.498z"/>
									<path style="fill:#FFFFFF;" d="M118.464,175.174c2.057,0.306,4.204,0.473,6.417,0.473c1.899,0,3.76-0.129,5.564-0.374
										c0.172,3.833,0.129,7.977-0.198,12.43c-1.744,0.183-3.538,0.283-5.365,0.283c-2.235,0-4.402-0.142-6.482-0.404
										C118.102,183.249,118.146,179.102,118.464,175.174z"/>
									<path style="fill:#FFFFFF;" d="M132.789,174.881c3.447-0.677,6.634-1.781,9.413-3.211
										c1.195,3.422,2.248,7.302,3.103,11.688c-3.489,1.878-7.849,3.293-12.68,4.038
										C132.938,182.916,132.971,178.744,132.789,174.881z"/>
									<path style="fill:#FFFFFF;" d="M144.271,170.497c2.212-1.379,4.084-2.982,5.518-4.746c1.36,2.545,2.625,5.434,3.768,8.706
										c-0.688,2.832-2.877,5.451-6.118,7.616C146.559,177.751,145.484,173.906,144.271,170.497z"/>
									<path style="fill:#FFFFFF;" d="M151.834,181.542c-0.877,2.219-2.022,4.302-3.398,6.21
										c-0.163-1.092-0.339-2.154-0.524-3.193C149.398,183.638,150.712,182.626,151.834,181.542z"/>
									<path style="fill:#FFFFFF;" d="M98.697,181.807c1.106,1.065,2.395,2.056,3.851,2.956c0.015,1.485,0.118,2.885,0.325,4.15
										C101.157,186.773,99.745,184.384,98.697,181.807z"/>
									<path style="fill:#FFFFFF;" d="M119.975,199.186c-0.637-3.151-1.093-6.23-1.38-9.224c2.026,0.241,4.128,0.369,6.286,0.369
										c1.758,0,3.481-0.087,5.162-0.247c-0.282,2.99-0.691,6.109-1.245,9.358c-1.175,0.148-2.369,0.233-3.584,0.233
										C123.423,199.675,121.675,199.502,119.975,199.186z"/>
									<path style="fill:#FFFFFF;" d="M131.24,199.031c0.527-3.2,0.918-6.277,1.186-9.227c5.029-0.712,9.581-2.117,13.32-4.027
										c0.245,1.44,0.469,2.932,0.671,4.478C142.467,194.614,137.195,197.749,131.24,199.031z"/>
								</g>
							</g>
						</g>
					</g>
					<g>
						<path style="fill-rule:evenodd;clip-rule:evenodd;fill:#FFD300;" d="M88.003,242.735c-9.165-4.886-3.23-14.074-9.111-20.382
							c-2.055-2.204-4.968-3.331-7.518-5.288c-3.795-2.914-8.911-8.248-9.565-12.32c-0.155-0.965-0.078-3.261,0.279-4.108
							c1.305-3.088,4.17-4.715,6.371-5.432c2.82-0.919,6.264-0.374,9.569,0.564c3.379,0.961,6.955,2.926,10.127,3.429
							c2.871,0.456,5.605-0.533,8.532-0.585c2.848-0.05,6.016,0.105,8.936,2.174c5.81,4.113,5.639,11.259,0.446,16.126
							c-2.87,2.691-6.514,3.767-7.938,7.089c-0.896,2.089,0.75,4.541,1.632,6.977c0.758,2.096,1.879,5.194,0.692,7.702
							C97.95,243.972,92.085,244.908,88.003,242.735z"/>
						<path style="fill-rule:evenodd;clip-rule:evenodd;fill:#FFD300;" d="M55.476,242.635c-2.71-2.9-4.617-6.525-5.155-9.969
							c-0.358-2.306-0.192-4.817,1.416-6.228c2.382-2.092,6.345-1.334,8.25-0.576c2.184,0.867,4.902,3.149,7.023,5.277
							c3.739,3.754,8.646,9.185,7.785,13.154c-1.067,4.917-7.089,4.617-10.684,3.58C60.92,246.951,58.294,245.65,55.476,242.635z"/>
						<path style="fill-rule:evenodd;clip-rule:evenodd;fill:#FFD300;" d="M85.852,256.011c0,2.014-1.632,3.646-3.646,3.646
							c-2.015,0-3.647-1.632-3.647-3.646c0-2.014,1.632-3.647,3.647-3.647C84.22,252.364,85.852,253.997,85.852,256.011z"/>
					</g>
				</g>
				<g>
					<g>
						<g>
							<g>
								<path style="fill:#3E38FF;" d="M397.348,210.726v-11.846c-19.05,0-34.625,15.167-35.282,34.06
									c-0.014,0.412-0.289,3.809,0.32,7.273l11.504-6.031C373.89,221.248,384.413,210.726,397.348,210.726z"/>
								<path style="fill:#FF6700;" d="M397.348,198.881v11.846c12.935,0,23.457,10.522,23.457,23.457h11.845
									C432.65,214.717,416.814,198.881,397.348,198.881z"/>
								<path style="fill:#FFD300;" d="M397.006,257.642v11.845c19.466,0,35.644-15.836,35.644-35.304h-11.845
									C420.805,247.118,409.941,257.642,397.006,257.642z"/>
							</g>
							<g>
								<path style="fill:#FF6700;" d="M413.851,229.969c0,1.714-1.391,3.104-3.106,3.104c-1.716,0-3.107-1.39-3.107-3.104
									c0-1.717,1.916-5.778,3.107-5.778C412.123,224.191,413.851,228.252,413.851,229.969z"/>
								<g>
									<path style="fill:#FFFFFF;" d="M434.154,188.935c1.281,0.979,1.526,2.81,0.548,4.09l-17.749,23.36
										c-0.722,1.041-2.138,0.87-3.219,1.505c-1.226,0.72-1.874,1.738-2.555,1.219l0,0c-0.611-0.467,0.153-1.624,0.436-2.846
										c0.309-1.337-0.058-2.321,0.701-3.42l17.749-23.36C431.042,188.203,432.873,187.957,434.154,188.935L434.154,188.935z"/>
									<path style="fill:#3E38FF;" d="M411.543,220.431c-0.344,0-0.706-0.108-1.075-0.39c-1.105-0.843-0.622-2.188-0.303-3.077
										c0.116-0.322,0.235-0.654,0.307-0.965c0.091-0.393,0.109-0.764,0.128-1.157c0.039-0.796,0.083-1.698,0.751-2.665
										l17.78-23.403c0.664-0.87,1.625-1.428,2.708-1.574c1.08-0.146,2.157,0.141,3.026,0.803
										c0.868,0.664,1.426,1.625,1.571,2.708c0.145,1.083-0.14,2.157-0.803,3.025l-17.747,23.357
										c-0.656,0.948-1.675,1.217-2.494,1.433c-0.401,0.106-0.781,0.206-1.065,0.373c-0.33,0.194-0.621,0.423-0.902,0.644
										C412.968,219.905,412.3,220.431,411.543,220.431z M432.387,189.508c-0.079,0-0.157,0.005-0.236,0.016
										c-0.462,0.062-0.872,0.3-1.155,0.67l-17.747,23.358c-0.245,0.356-0.273,0.709-0.307,1.404
										c-0.023,0.456-0.048,0.973-0.185,1.571c-0.06,0.259-0.136,0.508-0.214,0.744c0.182-0.131,0.381-0.265,0.597-0.392
										c0.561-0.329,1.141-0.483,1.653-0.618c0.64-0.169,1.012-0.278,1.197-0.545l17.779-23.401
										c0.285-0.373,0.407-0.831,0.345-1.294c-0.062-0.462-0.3-0.873-0.671-1.156h-0.001
										C433.135,189.632,432.767,189.508,432.387,189.508z"/>
								</g>
								<g>
									<path style="fill:#3E38FF;" d="M438.146,194.706c-0.924,1.32-2.743,1.642-4.063,0.717l-5.638-3.944
										c-1.321-0.924-1.642-2.744-0.718-4.064l0,0c0.923-1.32,2.742-1.641,4.063-0.717l5.638,3.944
										C438.748,191.567,439.069,193.386,438.146,194.706L438.146,194.706z"/>
									<path style="fill:#3E38FF;" d="M439.71,181.793c1.281,0.979,1.526,2.809,0.548,4.09l-4.176,5.468
										c-0.978,1.281-2.809,1.525-4.089,0.547l0,0c-1.281-0.977-1.526-2.809-0.547-4.089l4.176-5.469
										C436.598,181.06,438.43,180.815,439.71,181.793L439.71,181.793z"/>
								</g>
							</g>
						</g>
						<g>
							<g>
								<g>
									<g>
										<path style="fill:#FFFFFF;" d="M365.036,266.914c-2.453-0.964-5.31,0.966-7.513,2.046
											c-9.912,4.771-25.627,11.156-50.125,16.088c-0.986,0.19-6.425,0.544-6.567,7.298l-0.095,4.544l-0.52,24.617
											c-0.021,1.04,0.451,2.069,1.3,2.838c0.751,0.68,1.733,1.098,2.756,1.181c0.134,0.011,0.269,0.028,0.402,0.017
											c25.395-2.418,49.569-9.897,61.398-18.988c0.802-0.628,1.12-1.703,1.139-2.734l0.568-28.679l0.066-3.457
											C367.845,271.684,368.169,268.157,365.036,266.914z"/>
										<path style="fill:#FF6700;" d="M304.469,326.596c-0.062-0.004-0.117-0.009-0.167-0.014
											c-1.373-0.115-2.629-0.655-3.59-1.525c-1.087-0.984-1.694-2.308-1.668-3.637l0.615-29.102
											c0.069-3.263,1.389-7.346,7.289-8.271c0.086-0.014,0.158-0.025,0.213-0.035c18.849-3.793,35.16-9.032,49.867-16.078
											c0.335-0.164,0.685-0.348,1.047-0.539c2.163-1.141,4.852-2.572,7.425-1.566l0,0c3.684,1.459,3.551,5.355,3.516,5.88
											l-0.633,32.163c-0.03,1.557-0.588,2.84-1.572,3.61c-12.01,9.22-36.324,16.717-61.942,19.113
											C304.72,326.607,304.585,326.604,304.469,326.596z M363.449,267.82c-1.358,0.044-2.913,0.864-4.322,1.603
											c-0.383,0.201-0.754,0.394-1.108,0.566c-14.873,7.087-31.353,12.331-50.382,16.096c-0.078,0.015-0.18,0.031-0.302,0.05
											c-1.427,0.221-5.217,0.8-5.331,6.238l-0.615,29.219c-0.015,0.744,0.325,1.486,0.932,2.036
											c0.535,0.484,1.236,0.784,1.975,0.842c0.12,0.01,0.161,0.016,0.202,0.016c25.228-2.446,49.114-9.844,60.834-18.857
											c0.434-0.34,0.692-1.018,0.708-1.86l0.633-32.078c0.001-0.028,0.002-0.057,0.005-0.085
											c0.008-0.103,0.187-2.697-2.105-3.608l0,0C364.22,267.86,363.843,267.807,363.449,267.82z"/>
									</g>
									<g>
										<g>
											<g>
												<polygon style="fill-rule:evenodd;clip-rule:evenodd;fill:#FFFFFF;" points="342.73,311.336 327.38,316.129 
													327.964,287.021 343.311,281.737 												"/>
												<path style="fill:#FF6700;" d="M327.38,317.226c-0.24-0.011-0.476-0.091-0.678-0.233
													c-0.317-0.224-0.501-0.575-0.494-0.938l0.585-29.051c0.009-0.456,0.32-0.86,0.779-1.014l15.347-5.307
													c0.361-0.13,0.764-0.078,1.078,0.133c0.313,0.213,0.494,0.561,0.487,0.931l-0.581,29.655
													c-0.009,0.462-0.311,0.86-0.762,1.004l-15.35,4.771C327.657,317.216,327.518,317.232,327.38,317.226z M329.121,287.8
													l-0.537,26.79l12.99-4.081l0.533-27.156L329.121,287.8z M342.73,311.336l0.008,0L342.73,311.336z"/>
											</g>
											<g>
												<g>
													<line style="fill:#FFFFFF;" x1="327.964" y1="287.021" x2="342.73" y2="311.336"/>
													<path style="fill:#FF6700;" d="M342.731,312.461c-0.404-0.016-0.796-0.23-1.014-0.598l-14.766-24.288
														c-0.325-0.522-0.136-1.193,0.424-1.5c0.559-0.305,1.275-0.133,1.602,0.392l14.766,24.341
														c0.325,0.549,0.136,1.232-0.424,1.523C343.134,312.427,342.931,312.469,342.731,312.461z"/>
												</g>
												<g>
													<line style="fill:#FFFFFF;" x1="343.311" y1="281.737" x2="327.38" y2="316.129"/>
													<path style="fill:#FF6700;" d="M327.379,317.226c-0.156-0.008-0.315-0.044-0.467-0.114
														c-0.594-0.269-0.865-0.927-0.607-1.469l15.931-34.343c0.258-0.572,0.952-0.841,1.542-0.601
														c0.594,0.241,0.865,0.903,0.607,1.476l-15.931,34.441C328.262,317.021,327.831,317.247,327.379,317.226z"/>
												</g>
											</g>
										</g>
										<g>
											<g>
												<polygon style="fill-rule:evenodd;clip-rule:evenodd;fill:#FFFFFF;" points="362.056,303.138 346.675,309.867 
													347.26,279.822 362.636,272.608 												"/>
												<path style="fill:#FF6700;" d="M346.674,310.998c-0.221-0.008-0.443-0.076-0.635-0.203
													c-0.341-0.224-0.545-0.599-0.537-0.99l0.585-29.988c0.008-0.434,0.274-0.828,0.682-1.016l15.376-7.234
													c0.368-0.178,0.794-0.158,1.132,0.053c0.337,0.21,0.538,0.58,0.53,0.981l-0.58,30.586
													c-0.008,0.439-0.267,0.831-0.668,1.01l-15.382,6.709C347.019,310.974,346.846,311.005,346.674,310.998z M348.418,280.54
													l-0.536,27.555l13.016-5.72l0.531-27.913L348.418,280.54z M362.056,303.138l0.008,0L362.056,303.138z"/>
											</g>
											<g>
												<g>
													<line style="fill:#FFFFFF;" x1="347.26" y1="279.822" x2="362.056" y2="303.138"/>
													<path style="fill:#FF6700;" d="M362.057,304.298c-0.392-0.01-0.774-0.213-0.996-0.57l-14.796-23.293
														c-0.342-0.526-0.174-1.225,0.375-1.564c0.549-0.339,1.272-0.189,1.615,0.339l14.797,23.338
														c0.342,0.553,0.174,1.265-0.375,1.591C362.483,304.251,362.269,304.303,362.057,304.298z"/>
												</g>
												<g>
													<line style="fill:#FFFFFF;" x1="362.636" y1="272.608" x2="346.675" y2="309.867"/>
													<path style="fill:#FF6700;" d="M346.674,310.998c-0.151-0.005-0.304-0.039-0.451-0.104
														c-0.597-0.262-0.879-0.934-0.63-1.5l15.962-37.206c0.249-0.596,0.937-0.895,1.533-0.663
														c0.598,0.232,0.879,0.906,0.63,1.504l-15.962,37.312C347.568,310.769,347.132,311.015,346.674,310.998z"/>
												</g>
											</g>
										</g>
										<g>
											<g>
												<g>
													
														<line style="fill-rule:evenodd;clip-rule:evenodd;fill:#FFFFFF;" x1="323.619" y1="307.327" x2="305.826" y2="311.225"/>
													<path style="fill:#FF6700;" d="M305.825,312.283c-0.514-0.021-0.984-0.346-1.129-0.819
														c-0.173-0.568,0.192-1.136,0.816-1.269l17.793-3.927c0.62-0.143,1.269,0.216,1.443,0.803
														c0.173,0.586-0.192,1.176-0.816,1.317l-17.793,3.869C306.035,312.279,305.929,312.287,305.825,312.283z"/>
												</g>
												<g>
													
														<line style="fill-rule:evenodd;clip-rule:evenodd;fill:#FFFFFF;" x1="323.52" y1="312.228" x2="305.727" y2="315.979"/>
													<path style="fill:#FF6700;" d="M305.726,317.037c-0.513-0.025-0.984-0.354-1.129-0.828
														c-0.173-0.569,0.192-1.134,0.816-1.262l17.793-3.78c0.622-0.137,1.27,0.227,1.443,0.814
														c0.173,0.587-0.192,1.174-0.816,1.31l-17.793,3.722C305.936,317.035,305.83,317.042,305.726,317.037z"/>
												</g>
												<g>
													
														<line style="fill-rule:evenodd;clip-rule:evenodd;fill:#FFFFFF;" x1="323.428" y1="316.723" x2="305.634" y2="320.342"/>
													<path style="fill:#FF6700;" d="M305.634,321.399c-0.514-0.029-0.984-0.361-1.129-0.837
														c-0.173-0.57,0.192-1.132,0.816-1.255l17.794-3.648c0.62-0.134,1.269,0.237,1.443,0.825
														c0.173,0.589-0.191,1.173-0.816,1.304l-17.794,3.59C305.844,321.398,305.737,321.405,305.634,321.399z"/>
												</g>
											</g>
											<g>
												<g>
													<polygon style="fill-rule:evenodd;clip-rule:evenodd;fill:#FFFFFF;" points="323.722,302.28 305.927,306.329 
														306.227,291.927 324.012,287.938 													"/>
													<path style="fill:#FF6700;" d="M305.927,307.386c-0.257-0.008-0.51-0.093-0.718-0.245
														c-0.292-0.214-0.461-0.536-0.454-0.869l0.299-14.372c0.01-0.478,0.375-0.889,0.891-1.001l17.785-4.019
														c0.353-0.082,0.728-0.008,1.013,0.204c0.285,0.211,0.448,0.534,0.441,0.874l-0.29,14.37
														c-0.01,0.482-0.359,0.893-0.858,1.01l-17.795,4.02C306.138,307.381,306.032,307.39,305.927,307.386z M307.382,292.768
														l-0.253,12.196l15.438-3.542l0.245-12.086L307.382,292.768z M323.722,302.28l0.008,0L323.722,302.28z"/>
												</g>
												<g>
													<g>
														<line style="fill:#FFFFFF;" x1="306.227" y1="291.927" x2="323.722" y2="302.28"/>
														<path style="fill:#FF6700;" d="M323.721,303.37c-0.214-0.005-0.43-0.064-0.624-0.183l-17.495-10.369
															c-0.547-0.315-0.712-0.968-0.367-1.46c0.345-0.492,1.068-0.637,1.617-0.323l17.495,10.336
															c0.547,0.334,0.712,1.012,0.367,1.514C324.491,303.209,324.111,303.38,323.721,303.37z"/>
													</g>
													<g>
														<line style="fill:#FFFFFF;" x1="324.012" y1="287.938" x2="305.927" y2="306.329"/>
														<path style="fill:#FF6700;" d="M305.927,307.386c-0.276-0.009-0.554-0.106-0.778-0.291
															c-0.484-0.403-0.528-1.071-0.098-1.494l18.085-18.385c0.43-0.451,1.169-0.493,1.655-0.095
															c0.484,0.4,0.528,1.09,0.098,1.542l-18.085,18.397C306.572,307.287,306.25,307.397,305.927,307.386z"/>
													</g>
												</g>
											</g>
										</g>
									</g>
								</g>
							</g>
							<g>
								<path style="fill:#3E38FF;" d="M287.488,283.869v-9.704c0-5.759,1.925-12.952,11.096-14.512l0.29-0.051
									c45.255-8.849,72-24.579,81.399-30.931l0.57-0.388c3.306-2.255,7.419-5.061,12.693-2.929
									c2.777,1.121,4.643,4.013,4.643,7.195v9.6l-1.809,1.229c-9.134,6.172-43.873,27.308-107.476,40.206L287.488,283.869z
									 M389.78,226.946c-2.817,0-5.247,1.658-7.616,3.274l-0.579,0.394c-9.517,6.432-36.585,22.358-82.263,31.289
									c-0.095,0.019-0.211,0.038-0.346,0.062c-2.262,0.385-9.145,1.555-9.145,12.2v6.834
									c62.282-12.835,96.249-33.499,105.222-39.562l0.78-0.53v-8.358c0-2.236-1.277-4.254-3.177-5.021
									C391.65,227.121,390.694,226.946,389.78,226.946z"/>
								<g>
									<path style="fill:#3E38FF;" d="M295.385,335.201c-1.965,0-3.85-0.727-5.307-2.048v-0.001
										c-1.647-1.494-2.591-3.626-2.591-5.849v-45.825l0.939-0.19c63.177-12.812,97.585-33.741,106.627-39.85l3.124-2.118v50.804
										c0,1.983-0.738,3.88-2.078,5.34c-20.301,22.123-52.992,35.109-99.946,39.7C295.897,335.188,295.64,335.201,295.385,335.201
										z M291.654,331.416c1.158,1.05,2.704,1.564,4.273,1.414c46.351-4.532,78.554-17.273,98.446-38.951
										c0.942-1.026,1.461-2.36,1.461-3.755v-46.386c-9.848,6.561-44.172,26.982-106.002,39.656v43.91
										C289.832,328.866,290.496,330.365,291.654,331.416L291.654,331.416z"/>
								</g>
								<g>
									<path style="fill:#3E38FF;" d="M380.732,247.886c-0.423,0-0.833-0.127-1.18-0.374c-0.585-0.416-0.929-1.122-0.947-1.936
										l-0.19-9.16c-0.03-1.454,0.548-2.523,1.767-3.269l8.987-5.115c0.104-0.059,0.215-0.102,0.331-0.127
										c0.652-0.142,1.319,0.006,1.829,0.408c0.536,0.424,0.852,1.088,0.868,1.824l0.206,9.961
										c0.027,1.245-0.789,2.464-1.915,2.887l-8.886,4.712c-0.061,0.032-0.124,0.059-0.188,0.08
										C381.188,247.85,380.958,247.886,380.732,247.886z M381.053,246.661h0.008H381.053z M389.857,230.337l-8.483,4.827
										c-0.427,0.262-0.63,0.505-0.615,1.201l0.187,9.026l8.521-4.518c0.061-0.032,0.124-0.059,0.189-0.08
										c0.182-0.059,0.411-0.383,0.404-0.646v-0.001L389.857,230.337z"/>
									<path style="fill:#3E38FF;" d="M385.287,241.508c-0.326,0-0.642-0.136-0.865-0.382l-2.209-2.42
										c-0.436-0.478-0.403-1.219,0.075-1.656c0.479-0.436,1.22-0.403,1.656,0.076l0.93,1.018l1.913-4.985
										c0.231-0.604,0.91-0.907,1.514-0.674c0.604,0.232,0.907,0.91,0.675,1.514l-2.593,6.758
										c-0.146,0.379-0.478,0.656-0.877,0.732C385.432,241.501,385.36,241.508,385.287,241.508z"/>
								</g>
							</g>
						</g>
						<g>
							<g>
								<g>
									<polygon style="fill:#B9B9EA;" points="454.479,328.228 425.741,355.785 362.007,339.678 394.994,323.443 									"/>
									<polygon style="fill:#CCCCF2;" points="454.477,320.328 425.738,347.885 362.004,331.777 394.991,315.542 									"/>
								</g>
								<g>
									<polygon style="fill:#FF6700;" points="408.22,321.331 403.357,316.853 407.3,314.784 									"/>
									
										<rect x="390.615" y="265.12" transform="matrix(0.8856 -0.4644 0.4644 0.8856 -90.6748 215.8179)" style="fill:#3E38FF;" width="4.454" height="53.774"/>
									<path style="fill:#FF6700;" d="M380.913,264.47c-0.571-1.091-1.917-1.51-3.005-0.939c-1.09,0.571-1.511,1.916-0.938,3.007
										l1.411,2.693l3.945-2.069L380.913,264.47z"/>
								</g>
							</g>
							<path style="fill-rule:evenodd;clip-rule:evenodd;fill:#3E38FF;" d="M409.038,326.133c-0.907-0.186-1.835,3.161-2.079,3.846
								c-0.805,2.243-2.149,4.815-3.659,7.121c-1.464,2.236-3.169,4.551-5.198,6.623c-4.173,4.262-10.181,8.351-16.693,10.774
								c-0.535-0.555-1.335-1.075-2.201-1.641c-2.372-1.553-5.748-2.559-9.174-2.887c-3.342-0.321-7.449-0.261-10.493,2.043
								c-1.298,0.984-2.213,2.697-1.406,4.289c0.91,1.802,3.23,2.423,4.909,2.716c5.481,0.96,11.309-0.039,17.397-1.873
								c1.512,3.523-1.184,5.844-5.281,7.922c-3.823,1.938-8.07,2.718-11.87,3.258c-11.336,1.614-22.027,0.933-33.432,2.265
								c-2.981,0.347-5.93,0.832-8.863,1.472c-1.506,0.328-1.198,2.65,1.822,1.889c8.536-1.903,17.039-1.73,25.751-2.244
								c9.355-0.552,18.856-0.461,28.404-5.188c4.306-2.131,7.535-5.751,5.522-10.145c7.543-2.65,14.989-8.238,19.228-13.355
								c3.181-3.843,5.666-8.045,7.313-12.572C409.268,329.801,410.551,326.443,409.038,326.133z M378.612,355.422
								c-4.715,1.332-10.214,2.147-14.507,1.59c-1.483-0.192-3.83-0.6-4.054-1.962c-0.245-1.494,2.911-2.441,4.521-2.755
								c5.168-1.009,10.082,0.405,14.022,2.86C378.905,355.334,378.709,355.361,378.612,355.422z"/>
						</g>
					</g>
					<g>
						<path style="fill-rule:evenodd;clip-rule:evenodd;fill:#FFD300;" d="M281.296,307.68c8.146-0.412,11.502,11.259,14.253,15.752
							c1.993,3.257,5.104,6.656,7.876,9.191c2.956,2.701,7.462,5.145,9.565,7.501c1.376,1.542,2.638,3.298,3.188,4.501
							c1.24,2.706,1.92,8,0.563,11.253c-1.596,3.824-6.635,7.669-11.814,8.25c-1.725,0.194-4.593,0.047-6.189-0.186
							c-11.16-1.634-21.221-11.897-25.88-22.13c-2.309-5.072-4.508-11.654-3.376-19.317c0.517-3.498,1.586-6.851,3.376-9.752
							C274.25,310.485,277.505,307.871,281.296,307.68z"/>
						<path style="fill-rule:evenodd;clip-rule:evenodd;fill:#FFD300;" d="M330.25,344.026c2.14-0.405,4.022,1.078,4.079,3.12
							c0.133,4.741-6.839,4.349-6.839,0.12C327.49,345.461,328.513,344.355,330.25,344.026z"/>
						<path style="fill-rule:evenodd;clip-rule:evenodd;fill:#FFD300;" d="M289.693,372.118c-2.485,1.659-2.496,5.31-0.556,7.617
							c4.64,5.52,13.879,6.268,19.257,2.168c2.779-2.121,4.437-5.565,3.812-8.131c-0.582-2.381-3.211-3.649-5.027-3.059
							c-1.354,0.44-2.587,2.048-3.963,2.772c-0.674,0.354-1.458,0.587-2.157,0.655C297.411,374.489,293.813,369.368,289.693,372.118
							z"/>
					</g>
				</g>
				<g>
					<g>
						<g>
							<g>
								<g>
									<path style="fill:#FFFFFF;" d="M158.987,304.385v-6.12v-3.632c0-2.851,1.603-5.568,4.247-6.634
										c5.41-2.187,9.657,1.072,13.218,3.478c11.227,7.588,40.141,24.262,88.893,33.793c1.747,0.342,11.338,1.219,11.338,14.571
										v8.985c-63.719-12.921-101.397-33.417-116.288-43.483C159.935,305.032,159.464,304.71,158.987,304.385z"/>
									<path style="fill:#3E38FF;" d="M277.855,350.259l-1.405-0.285c-69.085-14.008-106.799-36.96-116.712-43.66l-1.924-1.308
										v-10.373c0-3.416,2.001-6.519,4.981-7.721c5.678-2.296,10.12,0.736,13.691,3.171l0.622,0.423
										c10.215,6.904,39.282,23.999,88.462,33.614l0.32,0.056c9.889,1.689,11.965,9.451,11.965,15.664V350.259z M160.159,303.765
										l0.891,0.606c9.756,6.594,46.696,29.072,114.461,43.019v-7.549c0-11.642-7.538-12.93-10.015-13.353
										c-0.148-0.025-0.275-0.047-0.376-0.067c-49.601-9.697-78.991-26.988-89.324-33.971l-0.63-0.429
										c-3.429-2.339-6.976-4.758-11.492-2.934c-2.102,0.849-3.514,3.078-3.514,5.548V303.765z"/>
								</g>
								<g>
									<path style="fill:#FFFFFF;" d="M274.285,402.975c-1.351,1.224-3.101,1.894-4.908,1.894c-0.237,0-0.475-0.011-0.711-0.035
										c-50.68-4.954-85.927-18.928-107.757-42.718c-1.236-1.348-1.922-3.11-1.922-4.94v-52.791
										c0.478,0.325,0.949,0.647,1.408,0.957c14.891,10.065,52.569,30.562,116.288,43.483v48.739
										C276.683,399.625,275.811,401.591,274.285,402.975z"/>
									<path style="fill:#3E38FF;" d="M269.377,406.042c-0.276,0-0.555-0.013-0.832-0.041
										c-50.973-4.983-86.465-19.078-108.5-43.092c-1.439-1.568-2.231-3.603-2.231-5.733V302.17l3.235,2.201
										c9.823,6.64,47.206,29.383,115.865,43.306l0.939,0.19v49.698c0,2.387-1.014,4.676-2.782,6.28h-0.001
										C273.508,405.261,271.486,406.042,269.377,406.042z M160.159,306.596v50.58c0,1.541,0.573,3.014,1.614,4.148
										c21.626,23.568,56.629,37.419,107.007,42.343c1.779,0.187,3.441-0.403,4.719-1.56c1.279-1.161,2.012-2.817,2.012-4.543
										v-47.781C207.956,335.948,170.636,313.605,160.159,306.596z"/>
								</g>
							</g>
							<g>
								<path style="fill:#3E38FF;" d="M176.791,312.101c-0.375,0-0.763-0.109-1.136-0.327l-9.228-5.376
									c-1.058-0.616-1.859-2.05-1.863-3.336l-0.035-11.455c-0.003-0.865,0.357-1.572,0.987-1.938
									c0.609-0.354,1.36-0.324,2.058,0.076l9.347,5.377c1.075,0.618,1.878,2.061,1.868,3.354l-0.083,11.455
									c-0.006,0.867-0.373,1.57-1.006,1.931C177.419,312.022,177.11,312.101,176.791,312.101z M166.875,292.048l0.034,11.006
									c0.002,0.492,0.386,1.136,0.699,1.319l8.756,5.101l0.08-11.016c0.004-0.486-0.378-1.123-0.693-1.305L166.875,292.048z"/>
								<path style="fill:#3E38FF;" d="M171.47,305.773c-0.032,0-0.064-0.002-0.095-0.004c-0.457-0.038-0.85-0.337-1.007-0.768
									l-2.485-6.828c-0.221-0.608,0.092-1.281,0.701-1.502c0.606-0.221,1.281,0.092,1.502,0.701l1.611,4.428l2.091-3.727
									c0.316-0.565,1.031-0.767,1.596-0.448c0.565,0.317,0.765,1.031,0.449,1.595l-3.342,5.954
									C172.283,305.547,171.892,305.773,171.47,305.773z"/>
							</g>
						</g>
						<g>
							<path style="fill:#3E38FF;stroke:#3E38FF;stroke-width:0.5;" d="M168.656,329.139l4.08,2.17l-0.015-5.593l1.224,0.632
								l0.036,12.826l-1.225-0.674l-0.017-6.073l-4.08-2.181l0.017,6.006l-1.225-0.674l-0.035-12.603l1.224,0.632L168.656,329.139z"
								/>
							<path style="fill:#3E38FF;stroke:#3E38FF;stroke-width:0.5;" d="M184.968,333.194l-3.346-1.738l0.032,11.943l-1.224-0.674
								l-0.032-11.905l-3.281-1.704l-0.003-1.131l7.852,4.054L184.968,333.194z"/>
							<path style="fill:#3E38FF;stroke:#3E38FF;stroke-width:0.5;" d="M193.848,336.625l1.208,0.624l0.035,13.546l-1.224-0.673
								l-0.027-10.28l-0.033-0.017l-2.399,5.313l-2.416-7.838l-0.033,0.02l0.027,10.115l-1.225-0.674l-0.035-13.296l1.192,0.615
								l2.482,7.964L193.848,336.625z"/>
							<path style="fill:#3E38FF;stroke:#3E38FF;stroke-width:0.5;" d="M200.624,352.639l5.093,2.787l0.003,1.217l-6.317-3.475
								l-0.035-13.695l1.224,0.632L200.624,352.639z"/>
							<path style="fill:#3E38FF;stroke:#3E38FF;stroke-width:0.5;" d="M172.873,351.485c-0.02-1.075-0.723-2.318-1.719-2.895
								c-2.482-1.44-2.634,2.082-2.629,4.032c0.005,1.844,0.195,5.465,2.545,6.898c1.224,0.746,1.956,0.199,1.969-1.053l1.225,0.739
								c-0.125,2.007-1.281,2.597-3.239,1.397c-3.232-1.98-3.716-6.068-3.723-8.746c-0.008-2.766,0.52-6.305,3.833-4.392
								c1.632,0.942,2.86,2.897,2.963,4.736L172.873,351.485z"/>
							<path style="fill:#3E38FF;stroke:#3E38FF;stroke-width:0.5;" d="M183.664,357.326c-0.72-1.131-1.538-2.37-2.55-2.958
								c-1.045-0.606-1.891-0.303-1.888,0.89c0.002,0.687,0.118,1.367,1.704,3.37l0.932,1.188c2.159,2.759,2.749,3.806,2.753,5.346
								c0.007,2.363-1.393,2.915-3.45,1.655c-1.519-0.93-2.647-2.432-3.564-4.285l0.945-0.255c0.574,1.358,1.49,2.709,2.617,3.396
								c1.224,0.746,2.233,0.34,2.23-1.066c-0.003-1.06-0.069-1.464-2.146-4.086l-1.063-1.339c-1.161-1.448-2.176-2.93-2.18-4.55
								c-0.005-2.035,1.395-2.395,3.158-1.378c1.225,0.707,2.353,2.088,3.236,3.513L183.664,357.326z"/>
							<path style="fill:#3E38FF;stroke:#3E38FF;stroke-width:0.5;" d="M194.015,363.368c-0.72-1.15-1.538-2.41-2.55-2.997
								c-1.045-0.606-1.891-0.281-1.888,0.944c0.002,0.706,0.117,1.403,1.704,3.435l0.932,1.204
								c2.159,2.799,2.749,3.865,2.753,5.445c0.006,2.427-1.393,3.016-3.45,1.756c-1.519-0.93-2.647-2.453-3.564-4.341l0.945-0.277
								c0.574,1.384,1.49,2.758,2.617,3.444c1.224,0.746,2.233,0.313,2.23-1.131c-0.003-1.088-0.07-1.503-2.146-4.163l-1.063-1.357
								c-1.162-1.468-2.176-2.973-2.18-4.638c-0.005-2.09,1.395-2.484,3.158-1.467c1.225,0.706,2.353,2.107,3.237,3.556
								L194.015,363.368z"/>
						</g>
					</g>
					<g>
						<path style="fill:#D6A416;" d="M179.276,388.065c2.895,1.11,5.596,2.364,8.445,3.454c2.23,0.855,3.678,1.454,5.734,2.308
							c1.81,0.753,4.377,1.69,5.316,3.123c0.979,1.496,0.977,3.625,1.823,5.15c1.425,2.562,3.86,2.814,6.495,4.009
							c11.019,5.006,21.884,9.536,33.24,14.373c1.414,0.604,4.511,1.367,5.255,2.993c0.682,1.483-0.306,4.23-0.648,5.937
							c0,0-12.996,44.237-16.036,43.986c-1.132-0.095-3.193-0.622-4.628-1.232c-9.75-4.157-20.807-8.992-30.092-12.95
							c-9.898-4.218-19.925-8.502-30.094-12.948c-2.129-0.933-3.857-1.403-4.691-4.188c-0.439-1.471,0.385-4.467,0.736-6.448
							c2.202-12.429,12.049-29.036,14.248-41.305c0.37-2.069,0.589-4.247,1.302-6.229
							C176.299,386.725,178.198,387.65,179.276,388.065z"/>
						<g>
							<g>
								<g>
									<rect x="214.85" y="339.04" style="fill:#FFFFFF;" width="39.519" height="43.148"/>
									<path style="fill:#FF6700;" d="M254.369,383.36H214.85c-0.647,0-1.172-0.525-1.172-1.172V339.04
										c0-0.647,0.525-1.172,1.172-1.172h39.519c0.647,0,1.172,0.525,1.172,1.172v43.148
										C255.541,382.835,255.016,383.36,254.369,383.36z M216.022,381.016h37.175v-40.804h-37.175V381.016z"/>
								</g>
								<g>
									<rect x="214.85" y="339.04" style="fill:#FF6700;" width="39.519" height="7.049"/>
									<path style="fill:#FF6700;" d="M254.369,347.262H214.85c-0.647,0-1.172-0.525-1.172-1.172v-7.049
										c0-0.647,0.525-1.172,1.172-1.172h39.519c0.647,0,1.172,0.525,1.172,1.172v7.049
										C255.541,346.737,255.016,347.262,254.369,347.262z M216.022,344.918h37.175v-4.705h-37.175V344.918z"/>
								</g>
								<g>
									<path style="fill:#3E38FF;" d="M222.484,351.083c-0.06,0.198-0.098,0.43-0.115,0.692c-0.018,0.263-0.027,0.598-0.027,1.004
										l0.014,0.556c0,0.335-0.008,0.629-0.025,0.879c-0.018,0.25-0.045,0.439-0.079,0.569c-0.155,0.578-0.465,0.866-0.931,0.866
										v0.776c0.362,0,0.634,0.204,0.814,0.607c0.155,0.337,0.233,0.694,0.233,1.074v2.212c0,0.43,0.117,0.816,0.356,1.156
										c0.236,0.34,0.557,0.51,0.963,0.51h0.866v-0.841h-0.569c-0.405,0-0.607-0.465-0.607-1.395l0.014-1.125
										c0-1.483-0.381-2.35-1.138-2.6c0.327-0.104,0.596-0.34,0.808-0.713c0.211-0.369,0.317-0.736,0.317-1.098l0.014-0.737
										v-1.462c0-0.706,0.198-1.06,0.594-1.06h0.569v-0.841h-0.866C223.084,350.113,222.683,350.436,222.484,351.083z"/>
									<path style="fill:#3E38FF;" d="M223.622,369.147c-0.034-0.13-0.061-0.318-0.078-0.568c-0.017-0.25-0.025-0.544-0.025-0.88
										l0.013-0.556c0-0.406-0.01-0.741-0.027-1.003c-0.016-0.263-0.056-0.495-0.117-0.693c-0.197-0.646-0.599-0.969-1.203-0.969
										h-0.866v0.841h0.568c0.398,0,0.596,0.353,0.596,1.059v1.462l0.012,0.738c0,0.362,0.107,0.729,0.317,1.098
										c0.212,0.372,0.482,0.609,0.809,0.712c-0.759,0.25-1.138,1.116-1.138,2.6l0.012,1.125c0,0.93-0.202,1.395-0.608,1.395
										h-0.568v0.842h0.866c0.407,0,0.727-0.17,0.965-0.511c0.236-0.341,0.355-0.727,0.355-1.157v-2.211
										c0-0.38,0.079-0.737,0.234-1.074c0.18-0.404,0.452-0.608,0.814-0.608v-0.776
										C224.089,370.013,223.778,369.724,223.622,369.147z"/>
									<polygon style="fill:#3E38FF;" points="229.929,354.768 231.719,354.768 231.719,360.332 232.818,360.332 232.818,353.812 
										229.929,353.812 									"/>
									<path style="fill:#3E38FF;" d="M232.24,351.468c-0.477,0-0.849,0.372-0.849,0.849c0,0.475,0.372,0.85,0.849,0.85
										c0.476,0,0.849-0.374,0.849-0.85C233.089,351.84,232.716,351.468,232.24,351.468z"/>
									<rect x="236.954" y="355.522" style="fill:#3E38FF;" width="3.277" height="0.956"/>
									<rect x="243.438" y="355.522" style="fill:#3E38FF;" width="3.279" height="0.956"/>
								</g>
							</g>
							<g>
								<g>
									<rect x="236.143" y="378.711" style="fill:#FFFFFF;" width="30.976" height="44.029"/>
									<path style="fill:#FF6700;" d="M267.119,423.912h-30.975c-0.648,0-1.172-0.525-1.172-1.172v-44.029
										c0-0.647,0.525-1.172,1.172-1.172h30.975c0.647,0,1.172,0.525,1.172,1.172v44.029
										C268.291,423.387,267.766,423.912,267.119,423.912z M237.315,421.568h28.631v-41.685h-28.631V421.568z"/>
								</g>
								<g>
									<rect x="236.143" y="378.711" style="fill:#FF6700;" width="30.976" height="7.194"/>
									<path style="fill:#FF6700;" d="M267.119,387.077h-30.975c-0.648,0-1.172-0.525-1.172-1.172v-7.195
										c0-0.647,0.525-1.172,1.172-1.172h30.975c0.647,0,1.172,0.525,1.172,1.172v7.195
										C268.291,386.552,267.766,387.077,267.119,387.077z M237.315,384.733h28.631v-4.85h-28.631V384.733z"/>
								</g>
								<g>
									<path style="fill:#3E38FF;" d="M244.532,399.758c-0.007,0.499-0.302,1.003-0.945,1.003c-0.852,0-1.265-0.876-1.265-2.679
										c0-1.879,0.436-2.793,1.332-2.793c0.452,0,0.786,0.343,0.795,0.817l0.004,0.192h1.106l-0.012-0.208
										c-0.064-1.051-0.846-1.786-1.902-1.786c-1.104,0-2.42,0.652-2.42,3.758c0,3.044,1.27,3.683,2.335,3.683
										c1.212,0,1.985-0.737,2.07-1.972l0.014-0.209h-1.109L244.532,399.758z"/>
									<polygon style="fill:#3E38FF;" points="249.128,395.286 248.078,395.286 248.078,397.519 245.815,397.519 245.815,398.533 
										248.078,398.533 248.078,400.766 249.128,400.766 249.128,398.533 251.391,398.533 251.391,397.519 249.128,397.519 
																			"/>
									<polygon style="fill:#3E38FF;" points="255.105,397.519 255.105,395.286 254.055,395.286 254.055,397.519 251.793,397.519 
										251.793,398.533 254.055,398.533 254.055,400.766 255.105,400.766 255.105,398.533 257.368,398.533 257.368,397.519 
																			"/>
									<path style="fill:#3E38FF;" d="M243.426,408.096c-0.529,0-0.958,0.413-0.958,0.921c0,0.514,0.43,0.931,0.958,0.931
										c0.524,0,0.95-0.417,0.95-0.931C244.376,408.509,243.95,408.096,243.426,408.096z"/>
									<path style="fill:#3E38FF;" d="M248.612,408.096c-0.529,0-0.959,0.413-0.959,0.921c0,0.514,0.43,0.931,0.959,0.931
										c0.523,0,0.949-0.417,0.949-0.931C249.561,408.509,249.136,408.096,248.612,408.096z"/>
									<path style="fill:#3E38FF;" d="M253.798,408.096c-0.529,0-0.959,0.413-0.959,0.921c0,0.514,0.43,0.931,0.959,0.931
										c0.523,0,0.949-0.417,0.949-0.931C254.747,408.509,254.322,408.096,253.798,408.096z"/>
								</g>
							</g>
							<g>
								
									<ellipse transform="matrix(0.7071 -0.7071 0.7071 0.7071 -227.7388 284.0656)" style="fill:#3E38FF;" cx="229.028" cy="416.938" rx="12.068" ry="12.068"/>
								<g>
									<polygon style="fill:#FFFFFF;" points="224.53,412.777 220.313,416.641 224.53,420.505 225.214,419.66 221.95,416.641 
										225.214,413.622 									"/>
									<polygon style="fill:#FFFFFF;" points="226.533,420.674 227.731,420.674 230.866,412.607 229.668,412.607 									"/>
									<polygon style="fill:#FFFFFF;" points="232.859,412.777 232.174,413.622 235.439,416.641 232.174,419.66 232.859,420.505 
										237.076,416.641 									"/>
								</g>
							</g>
						</g>
						<path style="fill:#FFD300;" d="M172.135,392.154c2.896,1.11,5.597,2.363,8.444,3.455c2.23,0.855,3.678,1.453,5.735,2.307
							c1.809,0.753,4.377,1.691,5.315,3.123c0.98,1.497,0.977,3.625,1.824,5.151c1.425,2.559,3.858,2.811,6.495,4.008
							c11.019,5.005,21.884,9.536,33.238,14.371c1.415,0.604,4.512,1.369,5.255,2.994c0.683,1.484-0.306,4.23-0.649,5.938
							c-2.331,11.668-4.669,22.546-7.108,34.395c-0.32,1.553-0.483,4.832-1.785,5.503c-1.01,0.519-3.193-0.622-4.628-1.232
							c-9.75-4.157-20.807-8.992-30.092-12.95c-9.898-4.218-19.925-8.502-30.094-12.948c-2.129-0.933-3.857-1.403-4.691-4.188
							c-0.439-1.471,0.385-4.467,0.736-6.448c2.202-12.429,4.908-24.948,7.106-37.217c0.371-2.067,0.59-4.246,1.303-6.229
							C169.158,390.811,171.055,391.74,172.135,392.154z"/>
					</g>
				</g>
			</g>
		</g>
	</g>
</g>
</svg>
