<?xml version="1.0" encoding="utf-8"?>
<!-- Generator: Adobe Illustrator 27.5.0, SVG Export Plug-In . SVG Version: 6.00 Build 0)  -->
<svg version="1.1" id="Layer_1" xmlns="http://www.w3.org/2000/svg" xmlns:xlink="http://www.w3.org/1999/xlink" x="0px" y="0px"
	 viewBox="0 0 600 500" style="enable-background:new 0 0 600 500;" xml:space="preserve">
<rect style="fill:TRANSPARENT;" width="600" height="500"/>
<g>
	<g>
		<path style="fill:#3E6478;" d="M472.502,386.137c0,11.77-67.36,21.312-150.453,21.312c-83.093,0-150.454-9.542-150.454-21.312
			c0-11.77,67.36-21.313,150.454-21.313C405.142,364.824,472.502,374.366,472.502,386.137z"/>
	</g>
	<g>
		<ellipse style="fill:#659FBD;" cx="322.049" cy="386.137" rx="117.601" ry="16.658"/>
	</g>
	<g>
		<polygon style="fill:#52829B;" points="365.388,381.877 376.995,388.258 308.11,398.252 292.697,371.549 316.383,369.723 
			321.988,375.906 341.907,374.122 339.515,371.549 346.901,369.435 		"/>
	</g>
	<g>
		<path style="fill:#836A3D;" d="M388.747,203.936c-0.168,11.384-0.685,22.083-1.693,31.233c-0.805,7.297-1.458,14.231-1.985,20.753
			c-0.502,6.199-0.892,12.026-1.192,17.442c-1.566,28.264-0.694,45.293-0.694,45.293l-154.444,5.22l0.429-55.101l0.203-25.965
			l0.064-8.245c0,0-2.876-35.546-4.7-71.466c-0.182-3.581-0.352-7.166-0.51-10.719c-1.367-30.95-1.648-59.539,1.73-62.738
			c7.654-7.25,94.2-41.001,157.228-2.378c0,0,4.779,49.366,5.529,96.01C388.824,190.284,388.846,197.229,388.747,203.936z"/>
	</g>
	<g>
		<rect x="215.515" y="310.328" style="fill:#CCA05F;" width="188.941" height="61.221"/>
	</g>
	<g>
		<path style="fill:#6B5630;" d="M388.747,203.936c-0.168,11.384-0.685,22.083-1.693,31.233c-0.805,7.297-1.458,14.231-1.985,20.753
			c-0.502,6.199-0.892,12.026-1.192,17.442l-154.71-4.588l0.203-25.965l0.064-8.245c0,0-2.876-35.546-4.7-71.466
			c-0.182-3.581-0.352-7.166-0.51-10.719c6.678-4.497,13.938-9.204,20.046-15.313c16.525-16.525,49.403-10.784,58.1-12.002
			c8.698-1.218-4.87-50.447,37.4-41.227c42.271,9.219,3.131,36.704,3.131,36.704s-19.03,17.322,2.854,26.61
			c21.886,9.289,19.403,27.823,22.529,30.012C371.3,179.28,387.604,202.32,388.747,203.936z"/>
	</g>
	<g>
		<path style="fill:#4A3C20;" d="M244.617,256.228c0,0,107.677-10.34,129.596-0.995c0,0,0.008,25.87-9.477,26.218
			c-9.484,0.349-118.139-0.587-118.139-0.587L244.617,256.228z"/>
	</g>
	<g>
		<path style="fill:#3A3018;" d="M254.096,271.294l-0.086-1.04c0.146-0.013,14.87-1.226,31.047-1.828
			c21.769-0.811,35.668-0.186,41.31,1.857l-0.355,0.981C312.818,266.487,254.682,271.245,254.096,271.294z"/>
	</g>
	<g>
		<path style="fill:#4A3C20;" d="M421.353,239.104c0,0-8.927-7.802-39.465-7.087c-0.1,0.002-0.201-0.001-0.301-0.005
			c-1.28-0.061-12.811,0.693-13.29,47.353C367.809,327.027,421.353,239.104,421.353,239.104z"/>
	</g>
	<g>
		<path style="fill:#CCA05F;" d="M413.475,367.021c-0.205,2.897-0.319,4.528-0.319,4.528H371.74c0,0,0.033-1.139,0.097-3.209
			c0.264-8.491,1.061-32.639,2.367-58.012c1.046-20.315,2.417-41.416,4.098-55.892c1.218-10.488,2.599-17.497,4.137-18.213
			c2.235-1.04,7.034-1.437,12.536-1.373c11.617,0.134,26.367,2.323,26.724,4.842C422.163,242.985,415.078,344.228,413.475,367.021z"
			/>
	</g>
	<g>
		<path style="fill:#3A3018;" d="M233.432,256.534l-0.033-1.043c0.303-0.01,30.628-0.959,62.366-1.431
			c42.647-0.633,67.396-0.146,73.561,1.447l-0.261,1.011C354.549,252.767,234.642,256.496,233.432,256.534z"/>
	</g>
	<g>
		<path style="fill:#4A3C20;" d="M200.008,239.037c0,0,6.264-8.622,28.299-8.971c0,0,11.945-0.812,14.033,1.856
			c2.087,2.667,6.195,41.636,4.257,48.942c-1.938,7.306-42.181,9.045-42.181,9.045L200.008,239.037z"/>
	</g>
	<g>
		<path style="fill:#CCA05F;" d="M249.802,371.272h-41.415c0,0-0.388-5.482-0.999-14.21c-2.342-33.476-7.961-114.703-7.545-117.646
			c0.253-1.787,7.751-3.407,16.236-4.247c9.135-0.903,19.415-0.9,23.024,0.778c3.67,1.707,6.444,39.266,8.248,74.38
			c1.021,19.889,1.73,38.991,2.114,50.352C249.689,367.285,249.802,371.272,249.802,371.272z"/>
	</g>
	<g>
		<path style="fill:#AC8950;" d="M378.56,283.862v22.417c0,2.105-1.46,3.874-3.434,4.363c-0.354,0.087-0.724,0.135-1.105,0.135
			H246.828c-2.507,0-4.539-2.015-4.539-4.498v-22.417c0-2.484,2.032-4.498,4.539-4.498h127.193
			C376.529,279.364,378.56,281.378,378.56,283.862z"/>
	</g>
	<g>
		
			<rect x="255.155" y="94.262" transform="matrix(0.9983 -0.0587 0.0587 0.9983 -9.9668 15.3267)" style="fill:#3A3018;" width="1.044" height="165.811"/>
	</g>
	<g>
		<path style="fill:#3A3018;" d="M297.066,255.745l-0.205-1.023c-0.242,0.048-0.357,0.247-0.375,0.335
			c0.621-3.051-8.404-110.278-13.264-166.55l1.04-0.089c0.036,0.416,3.635,42.112,7.045,83.3c2.004,24.191,3.551,43.477,4.6,57.32
			c0.623,8.221,1.075,14.591,1.342,18.931c0.144,2.336,0.238,4.131,0.278,5.336c0.021,0.629,0.029,1.114,0.022,1.44
			C297.54,255.17,297.53,255.652,297.066,255.745z"/>
	</g>
	<g>
		
			<rect x="255.252" y="169.151" transform="matrix(0.0768 -0.997 0.997 0.0768 141.68 492.3565)" style="fill:#3A3018;" width="162.907" height="1.044"/>
	</g>
	<g>
		<path style="fill:#3A3018;" d="M356.207,249.125l-0.888-0.549c1.787-2.893,4.726-19.1,8.575-79.88
			c2.306-36.409,3.853-72.015,3.867-72.371l1.043,0.045c-0.015,0.355-1.563,35.971-3.868,72.39
			C361.835,217.73,358.897,244.769,356.207,249.125z"/>
	</g>
	<g>
		<path style="fill:#9A7C48;" d="M375.158,310.643c-0.354,0.087-0.725,0.135-1.105,0.135H246.829c-2.507,0-4.54-2.015-4.54-4.498
			v-9.027c26.768,0.739,131.851-0.248,131.851-0.248L375.158,310.643z"/>
	</g>
	<g>
		<path style="fill:#5B4A28;" d="M230.22,250.884c0,2.017-0.66,3.878-1.774,5.383c-1.648,2.223-4.292,3.663-7.271,3.663
			c-4.997,0-9.046-4.05-9.046-9.046c0-3.07,1.529-5.782,3.868-7.417c1.467-1.026,3.252-1.628,5.178-1.628
			C226.17,241.839,230.22,245.889,230.22,250.884z"/>
	</g>
	<g>
		<path style="fill:#836A3D;" d="M230.22,250.884c0,2.017-0.66,3.878-1.774,5.383c-1.466,1.027-3.252,1.629-5.179,1.629
			c-4.997,0-9.046-4.05-9.046-9.044c0-2.017,0.66-3.879,1.776-5.384c1.467-1.026,3.252-1.628,5.178-1.628
			C226.17,241.839,230.22,245.889,230.22,250.884z"/>
	</g>
	<g>
		<path style="fill:#5B4A28;" d="M409.45,250.884c0,2.017-0.66,3.878-1.774,5.383c-1.648,2.223-4.293,3.663-7.272,3.663
			c-4.997,0-9.047-4.05-9.047-9.046c0-3.07,1.53-5.782,3.868-7.417c1.467-1.026,3.252-1.628,5.179-1.628
			C405.4,241.839,409.45,245.889,409.45,250.884z"/>
	</g>
	<g>
		<path style="fill:#836A3D;" d="M409.45,250.884c0,2.017-0.66,3.878-1.774,5.383c-1.467,1.027-3.252,1.629-5.18,1.629
			c-4.996,0-9.046-4.05-9.046-9.044c0-2.017,0.66-3.879,1.775-5.384c1.467-1.026,3.252-1.628,5.179-1.628
			C405.4,241.839,409.45,245.889,409.45,250.884z"/>
	</g>
	<g>
		<path style="fill:#866C3F;" d="M413.475,367.021c-0.205,2.897-0.319,4.528-0.319,4.528H215.515v-0.276h-7.127
			c0,0-0.388-5.482-0.999-14.21c0,0,2.941,0.272,8.126,0.731c7.412,0.659,19.408,1.701,33.952,2.886
			c35.495,2.891,86.164,6.625,122.371,7.66c13.323,0.38,24.688,0.396,32.619-0.131C408.346,367.95,411.41,367.561,413.475,367.021z"
			/>
	</g>
	<g>
		<path style="fill:#E6DBCF;" d="M259.593,441.869c0,4.151-37.626,7.518-84.04,7.518s-84.04-3.366-84.04-7.518
			c0-4.151,37.626-7.517,84.04-7.517S259.593,437.718,259.593,441.869z"/>
	</g>
	<g>
		<ellipse style="fill:#E6DBCF;" cx="196.905" cy="434.16" rx="84.039" ry="7.517"/>
	</g>
	<g style="opacity:0.71;">
		<path style="fill:#695431;" d="M271.494,279.364h11.034l25.364,13.213l-1.263,10.521l3.355-0.177c0,0-0.552,0.773,0.078,7.407
			c0.534,5.633,1.923,15.492,5.225,32.691c2.339,12.184,0.677,21.729-2.591,28.529h-20c-2.002-16.27-7.938-49.212-12.395-62.044
			L271.494,279.364z"/>
	</g>
	<g style="opacity:0.71;">
		<path style="fill:#695431;" d="M325.408,279.364h27.376l8.863,28.85l0.389,0.026l-0.21,2.088l-6.526,60.178
			c0,0,0.099,0.501-0.522,1.043h-15.264c-0.233-11.95,0.632-38.76,0.148-54.147c-0.146-4.605-1.193-9.137-3.091-13.336
			L325.408,279.364z"/>
	</g>
	<g>
		<path style="fill:#B38F53;" d="M304.201,71.133c45.208-1.483,70.495,13.696,72.271,14.854c1.778,1.16-1.087,6.418-1.087,6.418
			c-19.749-11.594-74.683-17.543-74.683-17.543S298.507,71.32,304.201,71.133z"/>
	</g>
	<g>
		<path style="fill:#704410;" d="M244.398,410.351c1.937-0.19,2.357,3.827-4.388,11.481c-2.722,3.089-5.11,6.055-7.792,8.557
			c-0.64,0.597-1.296,1.167-1.978,1.707c-3.537,2.798-7.755,4.758-13.846,5.232c-0.588,0.086-1.193,0.159-1.817,0.217
			c-4.936,0.459-9.303,0.762-13.158,0.799c-0.365,1.82-1.707,3.861-5.397,5.232c-8.118,3.015-35.256,6.958-39.663,0
			c-4.407-6.959,2.783-10.206,4.639-9.278c1.855,0.928-3.401,5.799-0.85,7.886c2.259,1.849,28.232,3.516,32.099-4.454
			c-6.402-1.126-10.68-3.921-13.389-9.462c-5.103-10.439-2.552-37.809,3.479-45.927c6.031-8.118,14.845-31.313,15.077-44.998
			c0.087-5.133,0.989-8.862,2.084-11.52l-3.939-6.688c0,0-7.19,1.508-7.19,1.044s9.394-10.901,9.974-10.67
			c0.453,0.182,5.2,7.053,7.274,10.077c2.556-0.4,7.175-0.859,10.979,0.205c1.176,0.33,2.275,0.804,3.209,1.471l5.286-10.412
			c0,0,0.984-1.766,4.349,0c2.274,1.193,6.959,4.329,8.35,5.383c1.392,1.054-6.743,0.467-7.67,0.583
			c-0.646,0.081-2.134,3.925-2.979,6.255c1.102,0.169,1.862,0.728,2.152,2.659c1.517-0.841,5.322-2.835,6.974-2.651
			c2.087,0.232,4.523,3.363,3.363,6.379c-0.059,0.154-0.121,0.315-0.183,0.483c0,0-0.002,0.007-0.007,0.02
			c-0.004,0.007-0.007,0.015-0.009,0.023c-0.004,0.01-0.008,0.021-0.011,0.032c-0.006,0.013-0.011,0.025-0.015,0.038
			c-0.012,0.031-0.026,0.069-0.044,0.112c-1.176,3.138-2.938,8.217-3.906,9.613c-0.749,1.081-4.48,4.131-6.53,5.77
			c-0.058,4.037,0.034,7.696,0.5,10.119c0.163,0.849,0.382,1.979,0.637,3.345c0.257,1.366,0.55,2.969,0.864,4.765
			c0,0,0.154,0.374,0.423,1.048c0,0,0,0,0.001,0c1.903,4.765,9.539,24.467,8.58,31.784c-1.096,8.351,0,16.003,0,16.003
			S242.617,410.525,244.398,410.351z"/>
	</g>
	<g>
		<path style="fill:#563512;" d="M232.219,430.389c-0.64,0.597-1.296,1.167-1.978,1.707c-3.537,2.798-7.755,4.758-13.846,5.232
			c-0.588,0.086-1.193,0.159-1.817,0.217c-4.936,0.459-9.303,0.762-13.158,0.799c-0.365,1.82-1.707,3.861-5.397,5.232
			c-8.118,3.015-35.914,7.015-40.321,0.057c-4.407-6.959,3.441-10.263,5.297-9.335c1.855,0.928-3.091,5.672-0.54,7.759
			c2.259,1.849,27.922,3.643,31.789-4.327c-6.402-1.126-10.68-3.921-13.389-9.462c-5.103-10.439-2.552-37.809,3.479-45.927
			c6.031-8.118,14.845-31.313,15.077-44.998c0.087-5.133,0.989-8.862,2.084-11.52l-3.939-6.688c0,0-7.19,1.508-7.19,1.044
			s9.394-10.901,9.974-10.67c0.453,0.182,5.2,7.053,7.274,10.077c2.556-0.4,7.175-0.859,10.979,0.205c0,0,4.899,2.713,0,14.194
			c-4.899,11.48-18.641,24.876-17.249,41.227C200.736,391.564,232.564,414.764,232.219,430.389z"/>
	</g>
	<g>
		<path style="fill:#563512;" d="M239.358,330.165c-1.176,3.138-2.938,8.217-3.906,9.613c-0.749,1.081-4.48,4.131-6.53,5.77
			c-0.058,4.037,0.034,7.696,0.5,10.119c0.459,2.388,0.927,4.828,1.501,8.109c0,0,0.154,0.374,0.423,1.048
			c0,0-2.543-4.132-5.327-10.858c-2.783-6.727,0.386-12.525,5.721-14.922C236.493,336.909,238.892,331.355,239.358,330.165z"/>
	</g>
	<g>
		<path style="fill:#905814;" d="M224.557,360.939c0.151,0.174,8.33,15.266,7.366,22.156c-0.964,6.892-10.275-18.139-10.261-18.983
			C221.676,363.268,221.322,357.198,224.557,360.939z"/>
	</g>
	<g>
		<path style="fill:#D5AC80;" d="M353.56,109.105c0,0-1.798,7.638-5.335,9.444c-3.537,1.806,0-2.717,0-2.717L353.56,109.105z"/>
	</g>
	<g>
		<path style="fill:#DF862D;" d="M364.819,178.124c0,0.521-21.918,10.707-21.918,10.707l-1.218-2.01c0,0-0.682,2.555-1.67,6.295
			c-2.614,9.887-7.376,28.057-7.376,29.192c0,1.566,3.479,16.178-0.863,14.264c-4.343-1.914-65.587,9.046-65.587,9.046
			s-1.126,0.654-2.632,0.865c-1.139,0.161-2.498,0.068-3.748-0.754c-0.711-0.467-1.388-1.171-1.97-2.199
			c-2.958-5.219,0.174-51.316,0.174-51.316l11.308-15.656h-1.74c-2.088,0-24.354-15.135-24.354-15.135s13.22-17.569,22.788-24.527
			c5.083-3.696,12.72-4.839,19.258-5.02c5.767-0.161,10.679,0.427,12.228,0.671c3.304,0.522,11.607-1.433,11.607-1.433l23.332,9.431
			c0,0,20.899,14.791,24.03,18.618C359.601,162.989,364.819,177.602,364.819,178.124z"/>
	</g>
	<g>
		<path style="fill:#26293D;" d="M376.995,319.276c-2.521,7.558-15.655,42.368-21.232,48.978c-1.211,1.435-2.38,2.133-3.466,2.344
			c-0.443,0.087-0.874,0.093-1.287,0.035c-1.496-0.208-2.78-1.247-3.732-2.308c-1.112-1.239-1.768-2.507-1.768-2.507
			c4.127-20.695,17.048-78.452,0.244-83.845c-4.356-1.399-32.425-14.09-32.425-14.09l-7.561-20.812l-3.516-9.677l26.874-2.226
			c0,0,25.793,13.685,34.839,17.512c9.045,3.827,16.257,12.161,19.91,20.684C387.528,281.89,384.512,296.752,376.995,319.276z"/>
	</g>
	<g>
		<path style="fill:#E4DBC8;" d="M505.896,171.165c-1.218,2.087-34.176,13.602-34.176,13.602l-2.161-4.66v-7.772
			c0,0,3.633-5.692,4.677-5.692c0.762,0,16.063-1.019,24.282-1.569c3.044-0.204,5.116-0.344,5.116-0.344
			S507.113,169.078,505.896,171.165z"/>
	</g>
	<g>
		<path style="fill:#C6BEAE;" d="M505.896,171.165c-1.218,2.087-34.176,13.602-34.176,13.602l-2.161-4.66v-1.534l2.338-0.544
			c0,0,26.455-10.105,26.621-12.956c3.044-0.204,5.116-0.344,5.116-0.344S507.113,169.078,505.896,171.165z"/>
	</g>
	<g>
		<path style="fill:#1C202F;" d="M355.763,345.925c-1.284,12.64-2.987,22.132-3.466,24.673c-0.083,0.443-0.129,0.675-0.129,0.675
			s-0.444-0.234-1.158-0.64c-0.923-0.525-2.295-1.34-3.732-2.308c-1.112-1.239-1.768-2.507-1.768-2.507
			c4.127-20.695,17.048-78.452,0.244-83.845c-4.356-1.399-32.425-14.09-32.425-14.09l-7.561-20.812
			c9.242,3.506,56.237,21.964,59.051,35.763C367.94,298.144,357.271,331.08,355.763,345.925z"/>
	</g>
	<g>
		<path style="fill:#26293D;" d="M318.722,371.211c-0.427,1.918-3.66,2.27-6.102,2.254c-1.544-0.01-2.77-0.166-2.77-0.166
			s-1.913,1.913-3.653-8.177c-1.739-10.088-14.786-62.274-16.699-66.102c-1.914-3.827-19.656-23.136-22.788-29.05
			c-3.131-5.914-4.699-23.456-4.699-23.456l5.961-1.56l33.354-8.73c0,0,3.306,4.349,9.046,10.291
			c5.741,5.94,7.48,36.503,10.612,50.245C324.113,310.502,319.418,368.08,318.722,371.211z"/>
	</g>
	<g>
		<path style="fill:#1C202F;" d="M312.62,373.465c-1.544-0.01-2.77-0.166-2.77-0.166s-1.913,1.913-3.653-8.177
			c-1.739-10.088-14.786-62.274-16.699-66.102c-1.914-3.827-19.656-23.136-22.788-29.05c-3.131-5.914-4.699-23.456-4.699-23.456
			l5.961-1.56c1.456,1.236,2.744,3.133,3.71,5.93c0,0,21.803,38.446,27.138,40.766c5.335,2.319,1.583,10.426,3.434,13.195
			C308.934,314.842,311.264,362.382,312.62,373.465z"/>
	</g>
	<g>
		<path style="fill:#BE7324;" d="M338.946,187.388c0,0-13.104-24.18-4.291-17.715c8.814,6.465,11.29,15.883,12.184,16.052
			C347.732,185.895,338.946,187.388,338.946,187.388z"/>
	</g>
	<g>
		<path style="fill:#BE7324;" d="M332.638,222.308c0,1.566,3.479,16.178-0.863,14.264c-4.343-1.914-65.587,9.046-65.587,9.046
			s-1.126,0.654-2.632,0.865c-1.288-0.232-2.54-0.484-3.748-0.754c-0.711-0.467-1.388-1.171-1.97-2.199
			c-2.958-5.219,0.174-51.316,0.174-51.316l11.308-15.656l-1.002,0.458c-2.088,0-25.091-15.593-25.091-15.593
			s13.22-17.569,22.788-24.527c5.083-3.696,12.72-4.839,19.258-5.02c-13.919,7.422-27.285,23.436-29.595,25.939
			c-2.783,3.015,8.814,12.757,22.035,11.858c13.221-0.899,54.613,19.158,54.613,19.158c2.84,1.406,5.395,2.837,7.689,4.285
			C337.399,203.003,332.638,221.172,332.638,222.308z"/>
	</g>
	<g>
		<path style="fill:#D5AC80;" d="M316.967,92.236c0,0,0.968-2.733-1.381-2.586c-2.348,0.147-4.256,12.182-3.962,13.503
			c0.293,1.321,1.027,2.565,1.027,2.565L316.967,92.236z"/>
	</g>
	<g>
		<path style="fill:#D5AC80;" d="M336.168,125.238c0,0-4.748,13.572-3.53,16.877c1.218,3.305-10.516,7.828-17.087,2.783
			c-6.571-5.045-7.44-8.702-7.44-8.702l4.14-21.126L336.168,125.238z"/>
	</g>
	<g>
		<path style="fill:#D5AC80;" d="M352.719,103.447c0,0-0.222,0.981-0.559,2.385c-0.759,3.169-2.105,8.485-2.817,9.502
			c-0.361,0.515-2.763,3.884-6.211,7.701c-0.57,0.631-1.169,1.273-1.793,1.918c-0.001,0.001-0.001,0.001-0.001,0.001
			c-5.066,5.24-11.727,10.566-17.563,10.119h-0.001c-0.784-0.06-1.553-0.224-2.301-0.508c-0.659-0.248-1.301-0.589-1.924-1.031
			c-11.154-7.926-9.834-13.944-5.871-32.729c3.137-14.866,12.705-15.855,18.453-15.11c1.516,0.196,2.766,0.513,3.563,0.727
			c0.475,0.128,1.105,0.265,1.842,0.434c3.618,0.833,9.834,2.449,13.083,7.634C352.023,96.733,352.874,99.644,352.719,103.447z"/>
	</g>
	<g>
		<path style="fill:#EFC699;" d="M352.719,103.447c0,0-0.465,2.063-1.072,4.483c-0.757,3.018-1.733,6.59-2.304,7.404
			c-0.574,0.82-6.323,8.876-13.23,14.446c-3.985,3.212-8.354,5.598-12.338,5.293h-0.001c-0.784-0.06-1.553-0.224-2.301-0.508
			c0.001,0,0.001,0,0.002,0c13.918-1.445,10.745-13.63,10.317-16.154c-0.428-2.522,1.693-8.103,1.693-8.103
			c4.86-10.394-1.37-15.281-1.37-15.281c-3.335-6.604,0.156-8.375,5.42-8.171C342.719,88.047,353.232,90.852,352.719,103.447z"/>
	</g>
	<g>
		<path style="fill:#F1D6BB;" d="M351.647,107.93c-0.757,3.018-1.733,6.59-2.304,7.404c-0.574,0.82-6.323,8.876-13.23,14.446
			c-0.075-1.416,0.768-3.493,3.901-6.065c5.938-4.876,6.639-24.181,6.639-24.181C348.209,96.458,351.637,101.357,351.647,107.93z"/>
	</g>
	<g>
		<path style="fill:#EFC699;" d="M377.684,209.857c-4.182,1.814-9.73,3.463-12.846,4.331c-1.459,0.406-2.383,0.64-2.383,0.64
			l-0.316-0.343l-16.976-18.443l-2.262-7.21l19.554-9.35c0,0,2.945,3.461,6.618,7.877c3.317,3.988,8.689,10.509,11.778,14.653
			c1.1,1.475,1.893,2.629,2.215,3.27v0.001C383.765,206.679,381.21,208.327,377.684,209.857z"/>
	</g>
	<g>
		<g>
			<path style="fill:#3B2323;" d="M364.151,83.146c0,0-0.004,0-0.011,0.002c-0.1,0.022-0.878,0.196-1.814,0.546
				c-0.003,0.001-0.006,0.003-0.01,0.004c-1.143,0.43-2.516,1.123-3.18,2.124c0.097,0.703,2.001,4.454,2.101,8.792
				c0.111,4.876-1.387,6.767-6.063,12.983c-1.601,2.134-3.632,4.696-4.85,6.15c-1.458,1.787-0.71-8.895-0.71-8.895
				c-0.232-4.407-6.031-8.041-8.428-8.272c-2.397-0.232-7.035-4.175-8.891-3.789c-1.855,0.387,0.231,2.783,0.231,2.783
				s-3.016-1.778-5.799-3.401c-2.783-1.624-6.418-1.082-6.727-0.232c-0.31,0.85-3.904,7.828-4.601,7.596
				c-0.695-0.232-0.638-0.957-0.638-0.957l2.361-7.916c0,0,1.395-1.161,1.395-2.775c0-0.181,0.01-0.411,0.033-0.678
				c0-0.007,0.001-0.014,0.002-0.021c0.073-0.855,0.265-2.086,0.591-3.322c0.489-1.854,1.605-3.518,2.775-4.142
				c1.875-1.001,7.541-3.694,9.337-4.863c-0.567,0.567-1.388,1.536-1.29,2.313c0.147,1.174,12.915-3.522,16.73-1.614l-5.137,1.761
				c3.222-0.126,8.228-0.027,11.905,0.403c2.283,0.268,7.531,1.01,8.056,3.266c0,0-1.401-0.045-2.101,1.435
				C360.825,82.164,362.897,82.036,364.151,83.146z"/>
		</g>
	</g>
	<g>
		<path style="fill:#D5AC80;" d="M411.975,214.828c-10.189,5.023-19.526,9.926-30.449,12.991c0,0-2.197,6.173-19.07-12.991
			l-17.292-18.787l-2.262-7.21l19.554-9.35c0,0,2.945,3.461,6.618,7.877c-2.267,0.456-6.099,7.668,0.964,14.422
			c2.168,2.073,4.659,5.064,7.646,8.077C385.53,217.773,394.499,223.159,411.975,214.828z"/>
	</g>
	<g>
		<path style="fill:#EFC699;" d="M376.646,228.585c-2.84-2.047-7.34-5.975-14.19-13.757c-0.214-0.243,0.288-0.713,1.26-1.323
			c0.191-0.12,0.399-0.245,0.624-0.375c2.596-1.496,7.349-3.617,11.366-5.33c3.821-1.628,6.976-2.888,6.976-2.888
			s0.139,0.145,0.386,0.37v0.001c0.711,0.654,2.313,1.993,4.002,2.507c0.717,0.217,1.474,0.295,2.188,0.079
			c0.854-0.259,5.984-1.66,6.852-1.896c0.021-0.006,0.031-0.008,0.031-0.008c12.059-3.292,35.554-9.622,37.357-10.108
			c0.254-0.356-0.375-0.355-0.661-1.795c-0.439-2.202-8.07-9.345-2.436-11.652c5.635-2.307,6.089-4.633,8.001-4.807
			c1.914-0.174,10.09,5.694,8.351,15.197c-0.982,5.36-12.093,13.897-26.932,21.821C407.816,221.012,379.428,230.591,376.646,228.585
			z"/>
	</g>
	<path style="fill:#D5AC80;" d="M381.09,202.128c-1.96-2.683-2.266,0.004-2.18,1.739l-14.256,0.801c0,0-3.884,5.277-1.353,8.408
		c0.126,0.155,0.265,0.298,0.414,0.428c0.325,0.283,0.704,0.508,1.123,0.683c5.111,2.138,7.814-1.929,23.488-6.191
		C388.326,207.997,383.727,205.736,381.09,202.128z"/>
	<g>
		<path style="fill:#E4DBC8;" d="M355.763,209.62l-1.003-4.317v-0.004l-1.402-6.038l116.201-26.927c0,0,1.359,2.946,2.337,5.694
			h0.001c0.299,0.842,0.563,1.664,0.741,2.378C473.397,183.454,355.763,209.62,355.763,209.62z"/>
	</g>
	<g>
		<path style="fill:#E4DBC8;" d="M346.397,231.099c-32.856,4.106-52.057,23.248-64.706,25.839
			c-9.735,1.995-29.143-3.375-33.98-26.485c-4.724-22.521,2.198-42.587,24.728-47.265c20.656-4.287,33.204,8.387,44.661,8.263
			c4.878-0.053,11.987-1.162,21.948-4.874c9.343-3.481,17.656,2.308,22.153,10.765c2.27,4.268,3.454,8.986,3.53,13.351
			C364.902,220.325,359.762,229.425,346.397,231.099z"/>
	</g>
	<g>
		
			<ellipse transform="matrix(0.7071 -0.7071 0.7071 0.7071 -58.6772 284.5516)" style="fill:#5A4928;" cx="314.146" cy="213.105" rx="9.948" ry="9.948"/>
	</g>
	<g>
		<path style="fill:#C6BEAE;" d="M317.375,225.537c0,0-34.212,3.138-43.143,6.154c-8.886,3-26.348-1.196-26.522-1.238
			c-1.375-6.566-2.447-14.566-0.911-24.237c19.446,1.273,74.269,7.448,75.679,12.325
			C324.102,224.152,317.375,225.537,317.375,225.537z"/>
	</g>
	<g>
		<path style="fill:#EFC699;" d="M319.592,225.438c-3.504,0.762-9.008-3.144-23.169-3.076c-4.056,0.019-6.236,0.303-8.776,0.444
			c-14.615,0.836-35.905-1.167-45.942-2.419c-2.056-0.256-14.508-2.107-16.047-3.646c-1.566-1.566-0.696-7.48,0.522-12.352
			c1.218-4.87,5.63-14.042,6.674-18.913c1.044-4.871,12.093-22.892,12.093-22.892l21.126,13.46c0,0-1.09,1.325-2.773,3.435
			l-0.001,0.001c-4.644,5.817-13.473,17.261-14.266,21.165c-0.147,0.72-0.02,1.184,0.457,1.308c4,1.044,37.748,8.872,40.879,8.698
			c0.285-0.016,0.553-0.043,0.805-0.08c3.704-0.554,4.195-3.119,11.078-3.062c0.002,0,0.003,0,0.003,0
			c4.995,0.036,12.379,1.162,17.513,2.446C327.837,211.975,330.247,223.125,319.592,225.438z"/>
	</g>
	<g>
		<path style="fill:#E3BC91;" d="M303.235,207.532c0,0,5.558-2.747,11.704-0.892c6.146,1.855,6.151,3.748,6.151,3.748
			L303.235,207.532z"/>
	</g>
	<g>
		<path style="fill:#9C8E84;" d="M364.654,209.093l-10.226,2.244l-2.146-10.438l1.074-1.638l2.405,10.359l8.743-1.96
			C364.568,208.138,364.617,208.616,364.654,209.093z"/>
	</g>
	<g>
		<g>
			<path style="fill:#91714D;" d="M331.269,118.839c-0.117,0-0.245-0.01-0.385-0.029c-1.692-0.231-4.56-1.767-5.201-3.646
				l0.549-0.187c0.557,1.631,3.204,3.04,4.711,3.255c0.476,0.068,0.642-0.015,0.66-0.041l0,0c0,0,0.019-0.067-0.082-0.249
				c-1.065-1.929,2.466-9.601,2.872-10.469l0.525,0.246c-1.068,2.286-3.672,8.527-2.89,9.943c0.236,0.427,0.158,0.702,0.052,0.857
				C331.935,118.732,331.663,118.839,331.269,118.839z"/>
		</g>
	</g>
	<g>
		<path style="fill:#461A11;" d="M339.333,112.313c0,0.903-0.732,1.636-1.636,1.636c-0.903,0-1.636-0.732-1.636-1.636
			c0-0.903,0.732-1.635,1.636-1.635C338.601,110.678,339.333,111.411,339.333,112.313z"/>
	</g>
	<g>
		<path style="fill:#461A11;" d="M325.41,107.056c0,0.903-0.732,1.635-1.636,1.635c-0.903,0-1.636-0.732-1.636-1.635
			c0-0.903,0.732-1.635,1.636-1.635C324.678,105.421,325.41,106.153,325.41,107.056z"/>
	</g>
	<g>
		<path style="fill:#623312;" d="M320.081,99.286c0,0,9.237-0.31,11.693,0.618c0,0,0.905-2.539-10.217-1.784
			c-0.058,0.004-0.115,0.012-0.171,0.026C320.958,98.25,319.121,98.737,320.081,99.286z"/>
	</g>
	<g>
		<path style="fill:#623312;" d="M346.178,111.232c0,0-5.737-7.246-8.033-8.519c0,0,1.358-2.344,8.018,6.708
			C346.162,109.42,347.35,111.657,346.178,111.232z"/>
	</g>
	<g>
		<g>
			<path style="fill:#91714D;" d="M328.197,125.895c-2.842,0-5.235-0.746-5.401-0.799l0.176-0.552
				c0.066,0.021,6.648,2.069,10.829-0.663l0.317,0.486C332.319,125.541,330.152,125.895,328.197,125.895z"/>
		</g>
	</g>
	<g>
		<path style="fill:#D5AC80;" d="M266.072,176.045c0,0-1.09,1.325-2.773,3.435l-0.001,0.001c0,0-13.735-13.548-18.68-5.198
			c-4.783,8.077-16.873,30.914-13.463,44.257c-2.309-0.438-4.705-1.007-5.497-1.799c-1.566-1.566-0.696-7.48,0.522-12.352
			c1.218-4.87,3.537-12.472,6.261-19.135c2.812-6.874,12.506-22.669,12.506-22.669L266.072,176.045z"/>
	</g>
	<g>
		<path style="fill:#D5AC80;" d="M302.253,207.511c0,0-4.747,7.262-5.831,14.851v0.001c-2.011,0.009-4.199,0.099-6.577,0.294
			c-0.713,0.058-1.447,0.109-2.199,0.151c0.761-4.092,2.456-9.467,3.525-12.234c3.79-0.566,3.641-3.147,11.078-3.062
			C302.252,207.511,302.253,207.511,302.253,207.511z"/>
	</g>
	<g>
		<path style="fill:#C6BEAE;" d="M355.763,209.62l-1.003-4.317v-0.004l117.136-27.27h0.001c0.299,0.842,0.563,1.664,0.741,2.378
			C473.397,183.454,355.763,209.62,355.763,209.62z"/>
	</g>
	<g>
		<path style="fill:#E3BC91;" d="M442.639,180.111c0,0,4.512-0.223,4.59,2.561c0.077,2.784-0.258,8.278-0.258,8.278L442.639,180.111
			z"/>
	</g>
	<g>
		<path style="fill:#D5AC80;" d="M396.139,205.965c12.059-3.292,35.554-9.622,37.357-10.108c0,0,3.756,3.17,2.115,4.811
			C434.974,201.305,431.881,196.474,396.139,205.965z"/>
	</g>
	<g>
		<path style="fill:#EFC699;" d="M446.746,192.639c-0.531,2.9-3.976,6.714-9.353,10.862c-0.276-0.542-3.904-7.638-5.403-10.57
			c-1.86-3.488-6.785-8.86-1.885-10.865c5.735-2.349,6.196-4.716,8.143-4.893C440.195,176.995,448.517,182.968,446.746,192.639z"/>
	</g>
	<g>
		<g>
			<path style="fill:#988173;" d="M478.387,179.463c0,1.174-0.952,2.126-2.126,2.126c-1.175,0-2.127-0.952-2.127-2.126
				s0.952-2.126,2.127-2.126C477.435,177.337,478.387,178.289,478.387,179.463z"/>
		</g>
		<g>
			<path style="fill:#988173;" d="M484.637,177.183c0,1.174-0.952,2.126-2.127,2.126c-1.174,0-2.126-0.952-2.126-2.126
				s0.952-2.126,2.126-2.126C483.685,175.056,484.637,176.008,484.637,177.183z"/>
		</g>
		<g>
			<path style="fill:#988173;" d="M490.886,174.902c0,1.174-0.951,2.126-2.126,2.126c-1.174,0-2.126-0.952-2.126-2.126
				c0-1.174,0.952-2.126,2.126-2.126C489.935,172.776,490.886,173.727,490.886,174.902z"/>
		</g>
		<g>
			<path style="fill:#988173;" d="M497.136,172.622c0,1.174-0.952,2.126-2.126,2.126c-1.175,0-2.126-0.952-2.126-2.126
				s0.951-2.126,2.126-2.126C496.184,170.495,497.136,171.447,497.136,172.622z"/>
		</g>
	</g>
	<g>
		<path style="fill:#483C2C;" d="M376.995,388.258c-5.393,2.436-19.83,3.306-22.266-2.434c-2.436-5.741-6.468-5.741-8.974-7.654
			c-2.507-1.914-5.639-10.438-0.246-12.352c0,0,2.302,0.196,4.729,0.588c0.002,0,0.003,0.001,0.003,0.001
			c2.503,0.405,5.139,1.02,5.521,1.847c0,0,4.453,10.611,9.625,11.655c3.201,0.645,8.951,2.758,11.591,4.85
			C378.604,386.049,379.051,387.33,376.995,388.258z"/>
	</g>
	<g>
		<path style="fill:#483C2C;" d="M320.945,388.103c-0.317,6.507-3.233,12.858-15.492,8.952c-0.271-0.086-0.545-0.178-0.822-0.272
			c0,0-6.262-4.871,0-11.307c6.263-6.436,2.875-14.805,2.875-14.805c0.001,0,0.001,0,0.002-0.001
			c0.064-0.023,1.357-0.493,3.076-0.847c0.473-0.098,0.977-0.186,1.497-0.254c2.454-0.319,5.251-0.183,6.641,1.642
			c0,0,1.044,2.746,1.392,6.766c0.09,1.028,0.508,3.238,0.727,5.838C320.955,385.176,321.016,386.643,320.945,388.103z"/>
	</g>
	<g>
		<path style="fill:#C6BEAE;" d="M324.624,236.352c-20.099,7.232-33.37,18.627-42.934,20.585
			c-9.735,1.995-29.143-3.375-33.98-26.485c-0.205-0.979-0.384-1.989-0.535-3.033l41.529,1.434
			C288.705,228.854,305.446,239.648,324.624,236.352z"/>
	</g>
	<g>
		<path style="fill:#261717;" d="M354.208,108.873c-2.186,2.852-3.882,4.875-3.882,4.875c-1.458,1.787-0.71-8.895-0.71-8.895
			c-0.232-4.407-6.03-8.041-8.428-8.272c-2.397-0.232-7.035-4.175-8.891-3.789c-1.855,0.387,0.231,2.783,0.231,2.783
			s-3.015-1.778-5.799-3.401c-2.783-1.624-6.418-1.082-6.727-0.232c-0.31,0.85-3.904,7.828-4.601,7.596
			c-0.695-0.232-0.638-0.957-0.638-0.957l2.361-7.916c0,0,1.409-1.161,1.395-2.775c-0.022-2.63,0.918-6.364,3.081-8.365
			c2.594-2.399,7.861-3.492,9.656-4.661c-0.567,0.567-1.387,1.536-1.29,2.313c0.147,1.174,12.915-3.522,16.73-1.614l-5.136,1.761
			c0,0,1.923-0.076,4.576-0.035c-0.001,0.001-0.001,0.001-0.001,0.001s-13.188,2.244-14.365,6.303
			c-1.178,4.059,4.899,4.523,8.239,4.871c3.34,0.348,9.537,5.393,10.092,5.944c0.555,0.551,4.864,6.996,4.034,11.312
			C353.856,107.19,353.955,108.192,354.208,108.873z"/>
	</g>
	<g>
		<path style="fill:#30281D;" d="M320.945,388.103c-0.317,6.507-3.233,12.858-15.492,8.952c-0.271-0.086-0.545-0.178-0.822-0.272
			c0,0-6.262-4.871,0-11.307c6.263-6.436,2.875-14.805,2.875-14.805c0.001,0,0.001,0,0.002-0.001
			c1.061-0.313,2.197-0.618,3.076-0.847c0.905-0.235,1.539-0.389,1.539-0.389s-0.016,0.046-0.042,0.135
			c-0.425,1.373-1.665,12.772-0.685,17.025c0.808,3.497,5.466-3.576,9.444-2.779C320.955,385.176,321.016,386.643,320.945,388.103z"
			/>
	</g>
	<g>
		<path style="fill:#30281D;" d="M376.995,388.258c-5.393,2.436-19.83,3.306-22.266-2.434c-2.436-5.741-6.468-5.741-8.974-7.654
			c-2.507-1.914-5.639-10.438-0.246-12.352c0,0,2.302,0.196,4.729,0.588c0.002,0,0.003,0.001,0.003,0.001s-4.22,9.642,1.23,11.569
			c5.451,1.929,7.654,4.121,10.09,5.866c1.858,1.332,10.603,0.297,15.417,0.916C378.604,386.049,379.051,387.33,376.995,388.258z"/>
	</g>
	<g>
		<path style="fill:#FFF3DF;" d="M336.03,189.179c0,0,16.307-4.69,18.729,3.544c2.423,8.234-14.829,1.401-17.221,1.338
			S333.667,190.391,336.03,189.179z"/>
	</g>
	<g>
		<path style="fill:#633B3B;" d="M364.151,83.146c-0.452,0.092-3.869,0.952-5.014,2.676c0.097,0.703,1.953,4.455,2.101,8.792
			c0.186,5.511-2.121,8.173-6.063,12.983c0,0,3.093-14.668,0-20.142c-1.616-2.86,0.161-7.366,3.294-8.746
			c1.208,0.368,2.774,1.076,3.055,2.28c0,0-1.401-0.045-2.101,1.435C360.825,82.164,362.897,82.036,364.151,83.146z"/>
	</g>
</g>
</svg>
